%TF.GenerationSoftware,KiCad,Pcbnew,(6.0.4)*%
%TF.CreationDate,2022-05-05T14:57:31-04:00*%
%TF.ProjectId,KSGER Controller,4b534745-5220-4436-9f6e-74726f6c6c65,rev?*%
%TF.SameCoordinates,Original*%
%TF.FileFunction,Soldermask,Top*%
%TF.FilePolarity,Negative*%
%FSLAX46Y46*%
G04 Gerber Fmt 4.6, Leading zero omitted, Abs format (unit mm)*
G04 Created by KiCad (PCBNEW (6.0.4)) date 2022-05-05 14:57:31*
%MOMM*%
%LPD*%
G01*
G04 APERTURE LIST*
G04 Aperture macros list*
%AMRoundRect*
0 Rectangle with rounded corners*
0 $1 Rounding radius*
0 $2 $3 $4 $5 $6 $7 $8 $9 X,Y pos of 4 corners*
0 Add a 4 corners polygon primitive as box body*
4,1,4,$2,$3,$4,$5,$6,$7,$8,$9,$2,$3,0*
0 Add four circle primitives for the rounded corners*
1,1,$1+$1,$2,$3*
1,1,$1+$1,$4,$5*
1,1,$1+$1,$6,$7*
1,1,$1+$1,$8,$9*
0 Add four rect primitives between the rounded corners*
20,1,$1+$1,$2,$3,$4,$5,0*
20,1,$1+$1,$4,$5,$6,$7,0*
20,1,$1+$1,$6,$7,$8,$9,0*
20,1,$1+$1,$8,$9,$2,$3,0*%
%AMFreePoly0*
4,1,9,3.862500,-0.866500,0.737500,-0.866500,0.737500,-0.450000,-0.737500,-0.450000,-0.737500,0.450000,0.737500,0.450000,0.737500,0.866500,3.862500,0.866500,3.862500,-0.866500,3.862500,-0.866500,$1*%
G04 Aperture macros list end*
%ADD10RoundRect,0.150000X-0.512500X-0.150000X0.512500X-0.150000X0.512500X0.150000X-0.512500X0.150000X0*%
%ADD11RoundRect,0.218750X-0.218750X-0.256250X0.218750X-0.256250X0.218750X0.256250X-0.218750X0.256250X0*%
%ADD12C,0.800000*%
%ADD13C,6.400000*%
%ADD14RoundRect,0.250000X-0.250000X-0.475000X0.250000X-0.475000X0.250000X0.475000X-0.250000X0.475000X0*%
%ADD15RoundRect,0.250000X0.725000X-0.600000X0.725000X0.600000X-0.725000X0.600000X-0.725000X-0.600000X0*%
%ADD16O,1.950000X1.700000*%
%ADD17RoundRect,0.200000X-0.200000X-0.275000X0.200000X-0.275000X0.200000X0.275000X-0.200000X0.275000X0*%
%ADD18RoundRect,0.250000X0.262500X0.450000X-0.262500X0.450000X-0.262500X-0.450000X0.262500X-0.450000X0*%
%ADD19RoundRect,0.250000X-0.600000X-0.750000X0.600000X-0.750000X0.600000X0.750000X-0.600000X0.750000X0*%
%ADD20O,1.700000X2.000000*%
%ADD21RoundRect,0.250000X-0.600000X-0.725000X0.600000X-0.725000X0.600000X0.725000X-0.600000X0.725000X0*%
%ADD22O,1.700000X1.950000*%
%ADD23RoundRect,0.150000X-0.587500X-0.150000X0.587500X-0.150000X0.587500X0.150000X-0.587500X0.150000X0*%
%ADD24R,1.300000X0.900000*%
%ADD25FreePoly0,0.000000*%
%ADD26R,1.000000X1.800000*%
%ADD27RoundRect,0.150000X0.150000X-0.675000X0.150000X0.675000X-0.150000X0.675000X-0.150000X-0.675000X0*%
%ADD28RoundRect,0.200000X-0.275000X0.200000X-0.275000X-0.200000X0.275000X-0.200000X0.275000X0.200000X0*%
%ADD29R,0.600000X0.450000*%
%ADD30RoundRect,0.250000X-0.787500X-1.025000X0.787500X-1.025000X0.787500X1.025000X-0.787500X1.025000X0*%
%ADD31R,1.500000X2.000000*%
%ADD32R,3.800000X2.000000*%
%ADD33RoundRect,0.250000X-0.262500X-0.450000X0.262500X-0.450000X0.262500X0.450000X-0.262500X0.450000X0*%
%ADD34RoundRect,0.150000X-0.725000X-0.150000X0.725000X-0.150000X0.725000X0.150000X-0.725000X0.150000X0*%
%ADD35RoundRect,0.200000X0.200000X0.275000X-0.200000X0.275000X-0.200000X-0.275000X0.200000X-0.275000X0*%
%ADD36RoundRect,0.075000X0.075000X-0.662500X0.075000X0.662500X-0.075000X0.662500X-0.075000X-0.662500X0*%
%ADD37RoundRect,0.075000X0.662500X-0.075000X0.662500X0.075000X-0.662500X0.075000X-0.662500X-0.075000X0*%
%ADD38R,2.000000X2.000000*%
%ADD39C,2.000000*%
%ADD40R,2.000000X3.200000*%
%ADD41C,4.500000*%
%ADD42C,1.524000*%
G04 APERTURE END LIST*
D10*
%TO.C,U3*%
X146182500Y-91760000D03*
X146182500Y-92710000D03*
X146182500Y-93660000D03*
X148457500Y-93660000D03*
X148457500Y-91760000D03*
%TD*%
D11*
%TO.C,D1*%
X139232500Y-115570000D03*
X140807500Y-115570000D03*
%TD*%
D12*
%TO.C,H1*%
X199390000Y-116700000D03*
X201087056Y-115997056D03*
X201790000Y-114300000D03*
X196990000Y-114300000D03*
D13*
X199390000Y-114300000D03*
D12*
X199390000Y-111900000D03*
X197692944Y-115997056D03*
X201087056Y-112602944D03*
X197692944Y-112602944D03*
%TD*%
D14*
%TO.C,C12*%
X172090000Y-91440000D03*
X173990000Y-91440000D03*
%TD*%
D15*
%TO.C,J2*%
X193248000Y-102790000D03*
D16*
X193248000Y-100290000D03*
X193248000Y-97790000D03*
X193248000Y-95290000D03*
X193248000Y-92790000D03*
%TD*%
D17*
%TO.C,R13*%
X126175000Y-105410000D03*
X127825000Y-105410000D03*
%TD*%
D18*
%TO.C,R15*%
X185062500Y-97790000D03*
X183237500Y-97790000D03*
%TD*%
D19*
%TO.C,J4*%
X102870000Y-114300000D03*
D20*
X105370000Y-114300000D03*
%TD*%
D17*
%TO.C,R17*%
X183325000Y-113030000D03*
X184975000Y-113030000D03*
%TD*%
D21*
%TO.C,JE*%
X101680000Y-81280000D03*
D22*
X104180000Y-81280000D03*
X106680000Y-81280000D03*
X109180000Y-81280000D03*
%TD*%
D17*
%TO.C,R3*%
X161735000Y-90170000D03*
X163385000Y-90170000D03*
%TD*%
%TO.C,R9*%
X168085000Y-81280000D03*
X169735000Y-81280000D03*
%TD*%
%TO.C,R4*%
X161735000Y-93980000D03*
X163385000Y-93980000D03*
%TD*%
D23*
%TO.C,Q2*%
X161622500Y-98110000D03*
X161622500Y-100010000D03*
X163497500Y-99060000D03*
%TD*%
D17*
%TO.C,R11*%
X126175000Y-109220000D03*
X127825000Y-109220000D03*
%TD*%
D14*
%TO.C,C4*%
X130180000Y-90170000D03*
X132080000Y-90170000D03*
%TD*%
D24*
%TO.C,U6*%
X171105000Y-97560000D03*
D25*
X171192500Y-99060000D03*
D24*
X171105000Y-100560000D03*
%TD*%
D17*
%TO.C,R6*%
X139195000Y-105410000D03*
X140845000Y-105410000D03*
%TD*%
D26*
%TO.C,Y1*%
X114320000Y-107188000D03*
X116820000Y-107188000D03*
%TD*%
D17*
%TO.C,R8*%
X168085000Y-85090000D03*
X169735000Y-85090000D03*
%TD*%
D14*
%TO.C,C11*%
X99380000Y-104140000D03*
X101280000Y-104140000D03*
%TD*%
D19*
%TO.C,J1*%
X186690000Y-82550000D03*
D20*
X189190000Y-82550000D03*
%TD*%
D27*
%TO.C,U4*%
X135255000Y-97875000D03*
X136525000Y-97875000D03*
X137795000Y-97875000D03*
X139065000Y-97875000D03*
X139065000Y-92625000D03*
X137795000Y-92625000D03*
X136525000Y-92625000D03*
X135255000Y-92625000D03*
%TD*%
D14*
%TO.C,C5*%
X134620000Y-115570000D03*
X136520000Y-115570000D03*
%TD*%
D28*
%TO.C,R19*%
X91694000Y-102807000D03*
X91694000Y-104457000D03*
%TD*%
D17*
%TO.C,R2*%
X150559000Y-87376000D03*
X152209000Y-87376000D03*
%TD*%
D29*
%TO.C,D3*%
X179036000Y-108712000D03*
X181136000Y-108712000D03*
%TD*%
D14*
%TO.C,C7*%
X153040000Y-100330000D03*
X154940000Y-100330000D03*
%TD*%
%TO.C,C1*%
X121986000Y-102870000D03*
X123886000Y-102870000D03*
%TD*%
D17*
%TO.C,R12*%
X183325000Y-105410000D03*
X184975000Y-105410000D03*
%TD*%
%TO.C,R16*%
X183325000Y-109220000D03*
X184975000Y-109220000D03*
%TD*%
D30*
%TO.C,C3*%
X120077500Y-82550000D03*
X126302500Y-82550000D03*
%TD*%
D31*
%TO.C,U2*%
X153430000Y-106070000D03*
D32*
X151130000Y-112370000D03*
D31*
X151130000Y-106070000D03*
X148830000Y-106070000D03*
%TD*%
D33*
%TO.C,R5*%
X161647500Y-104140000D03*
X163472500Y-104140000D03*
%TD*%
D12*
%TO.C,H3*%
X92710000Y-78880000D03*
X95110000Y-81280000D03*
D13*
X92710000Y-81280000D03*
D12*
X92710000Y-83680000D03*
X90310000Y-81280000D03*
X91012944Y-79582944D03*
X94407056Y-82977056D03*
X94407056Y-79582944D03*
X91012944Y-82977056D03*
%TD*%
%TO.C,H4*%
X201087056Y-82977056D03*
X201087056Y-79582944D03*
D13*
X199390000Y-81280000D03*
D12*
X196990000Y-81280000D03*
X199390000Y-83680000D03*
X199390000Y-78880000D03*
X197692944Y-79582944D03*
X201790000Y-81280000D03*
X197692944Y-82977056D03*
%TD*%
D34*
%TO.C,Q1*%
X171415000Y-104775000D03*
X171415000Y-106045000D03*
X171415000Y-107315000D03*
X171415000Y-108585000D03*
X176565000Y-108585000D03*
X176565000Y-107315000D03*
X176565000Y-106045000D03*
X176565000Y-104775000D03*
%TD*%
D35*
%TO.C,R20*%
X108013000Y-109220000D03*
X106363000Y-109220000D03*
%TD*%
D17*
%TO.C,R14*%
X175705000Y-81280000D03*
X177355000Y-81280000D03*
%TD*%
D35*
%TO.C,R10*%
X98869000Y-87884000D03*
X97219000Y-87884000D03*
%TD*%
D12*
%TO.C,H2*%
X91012944Y-115997056D03*
X90310000Y-114300000D03*
X92710000Y-116700000D03*
X95110000Y-114300000D03*
X94407056Y-112602944D03*
D13*
X92710000Y-114300000D03*
D12*
X92710000Y-111900000D03*
X91012944Y-112602944D03*
X94407056Y-115997056D03*
%TD*%
D29*
%TO.C,D2*%
X175480000Y-85090000D03*
X177580000Y-85090000D03*
%TD*%
D19*
%TO.C,BZ1*%
X113030000Y-114300000D03*
D20*
X115530000Y-114300000D03*
%TD*%
D36*
%TO.C,U1*%
X117900000Y-99412500D03*
X118400000Y-99412500D03*
X118900000Y-99412500D03*
X119400000Y-99412500D03*
X119900000Y-99412500D03*
X120400000Y-99412500D03*
X120900000Y-99412500D03*
X121400000Y-99412500D03*
X121900000Y-99412500D03*
X122400000Y-99412500D03*
X122900000Y-99412500D03*
X123400000Y-99412500D03*
D37*
X124812500Y-98000000D03*
X124812500Y-97500000D03*
X124812500Y-97000000D03*
X124812500Y-96500000D03*
X124812500Y-96000000D03*
X124812500Y-95500000D03*
X124812500Y-95000000D03*
X124812500Y-94500000D03*
X124812500Y-94000000D03*
X124812500Y-93500000D03*
X124812500Y-93000000D03*
X124812500Y-92500000D03*
D36*
X123400000Y-91087500D03*
X122900000Y-91087500D03*
X122400000Y-91087500D03*
X121900000Y-91087500D03*
X121400000Y-91087500D03*
X120900000Y-91087500D03*
X120400000Y-91087500D03*
X119900000Y-91087500D03*
X119400000Y-91087500D03*
X118900000Y-91087500D03*
X118400000Y-91087500D03*
X117900000Y-91087500D03*
D37*
X116487500Y-92500000D03*
X116487500Y-93000000D03*
X116487500Y-93500000D03*
X116487500Y-94000000D03*
X116487500Y-94500000D03*
X116487500Y-95000000D03*
X116487500Y-95500000D03*
X116487500Y-96000000D03*
X116487500Y-96500000D03*
X116487500Y-97000000D03*
X116487500Y-97500000D03*
X116487500Y-98000000D03*
%TD*%
D17*
%TO.C,R7*%
X165799000Y-104140000D03*
X167449000Y-104140000D03*
%TD*%
D14*
%TO.C,C10*%
X94620000Y-104140000D03*
X96520000Y-104140000D03*
%TD*%
D17*
%TO.C,R1*%
X183325000Y-93980000D03*
X184975000Y-93980000D03*
%TD*%
D14*
%TO.C,C6*%
X130556000Y-115570000D03*
X132456000Y-115570000D03*
%TD*%
D17*
%TO.C,R18*%
X183325000Y-101600000D03*
X184975000Y-101600000D03*
%TD*%
D38*
%TO.C,SW1*%
X100330000Y-106680000D03*
D39*
X95330000Y-106680000D03*
X97830000Y-106680000D03*
D40*
X103430000Y-99180000D03*
X92230000Y-99180000D03*
D39*
X95330000Y-92180000D03*
X100330000Y-92180000D03*
%TD*%
D41*
%TO.C,U7*%
X162441500Y-109740000D03*
X131961500Y-109740000D03*
X162441500Y-81240000D03*
X131961500Y-81240000D03*
D42*
X151051500Y-80740000D03*
X148511500Y-80740000D03*
X145971500Y-80740000D03*
X143431500Y-80740000D03*
%TD*%
M02*
