M48
; DRILL file {KiCad (6.0.4)} date Thu May  5 14:57:31 2022
; FORMAT={-:-/ absolute / inch / decimal}
; #@! TF.CreationDate,2022-05-05T14:57:31-04:00
; #@! TF.GenerationSoftware,Kicad,Pcbnew,(6.0.4)
; #@! TF.FileFunction,Plated,1,2,PTH
FMAT,2
INCH
; #@! TA.AperFunction,Plated,PTH,ViaDrill
T1C0.0157
; #@! TA.AperFunction,Plated,PTH,ComponentDrill
T2C0.0197
; #@! TA.AperFunction,Plated,PTH,ComponentDrill
T3C0.0300
; #@! TA.AperFunction,Plated,PTH,ComponentDrill
T4C0.0374
; #@! TA.AperFunction,Plated,PTH,ComponentDrill
T5C0.0394
; #@! TA.AperFunction,Plated,PTH,ComponentDrill
T6C0.0591
; #@! TA.AperFunction,Plated,PTH,ComponentDrill
T7C0.1181
; #@! TA.AperFunction,Plated,PTH,ComponentDrill
T8C0.1260
%
G90
G05
T1
X4.0Y-4.01
X4.1Y-4.26
X4.25Y-4.36
X4.57Y-3.53
X4.57Y-4.11
X4.59Y-4.02
X4.63Y-4.13
X4.65Y-3.81
X4.66Y-4.02
X4.71Y-3.7
X4.71Y-3.99
X4.7355Y-4.0628
X4.78Y-3.77
X4.79Y-3.98
X4.79Y-4.11
X4.8Y-4.19
X4.83Y-3.5
X4.84Y-3.83
X4.87Y-3.45
X4.92Y-3.94
X5.03Y-3.91
X5.08Y-3.97
X5.12Y-3.91
X5.16Y-3.88
X5.24Y-3.78
X5.33Y-3.54
X5.52Y-4.07
X5.56Y-4.4504
X5.63Y-3.6
X5.64Y-3.66
X5.67Y-3.73
X5.82Y-4.0985
X5.83Y-4.54
X5.93Y-3.89
X6.01Y-3.76
X6.02Y-4.1
X6.16Y-4.17
X6.18Y-3.86
X6.24Y-3.93
X6.29Y-3.77
X6.32Y-4.03
X6.55Y-3.26
X6.58Y-3.81
X6.65Y-4.0
X6.65Y-4.16
X6.71Y-3.5
X7.0Y-3.93
X7.12Y-3.2
X7.14Y-3.73
X7.25Y-4.22
X7.36Y-4.34
T2
X3.5555Y-3.2
X3.5555Y-4.5
X3.5832Y-3.1332
X3.5832Y-3.2668
X3.5832Y-4.4332
X3.5832Y-4.5668
X3.65Y-3.1055
X3.65Y-3.2945
X3.65Y-4.4055
X3.65Y-4.5945
X3.7168Y-3.1332
X3.7168Y-3.2668
X3.7168Y-4.4332
X3.7168Y-4.5668
X3.7445Y-3.2
X3.7445Y-4.5
X7.7555Y-3.2
X7.7555Y-4.5
X7.7832Y-3.1332
X7.7832Y-3.2668
X7.7832Y-4.4332
X7.7832Y-4.5668
X7.85Y-3.1055
X7.85Y-3.2945
X7.85Y-4.4055
X7.85Y-4.5945
X7.9168Y-3.1332
X7.9168Y-3.2668
X7.9168Y-4.4332
X7.9168Y-4.5668
X7.9445Y-3.2
X7.9445Y-4.5
T3
X5.6469Y-3.1787
X5.7469Y-3.1787
X5.8469Y-3.1787
X5.9469Y-3.1787
T4
X4.0031Y-3.2
X4.1016Y-3.2
X4.2Y-3.2
X4.2984Y-3.2
X7.6082Y-3.6531
X7.6082Y-3.7516
X7.6082Y-3.85
X7.6082Y-3.9484
X7.6082Y-4.0469
T5
X3.7531Y-3.6291
X3.7531Y-4.2
X3.8516Y-4.2
X3.95Y-3.6291
X3.95Y-4.2
X4.05Y-4.5
X4.1484Y-4.5
X4.45Y-4.5
X4.5484Y-4.5
X7.35Y-3.25
X7.4484Y-3.25
T7
X5.1953Y-3.1984
X5.1953Y-4.3205
X6.3953Y-3.1984
X6.3953Y-4.3205
T8
X3.65Y-3.2
X3.65Y-4.5
X7.85Y-3.2
X7.85Y-4.5
T6
G00X3.6311Y-3.9303
M15
G01X3.6311Y-3.8791
M16
G05
G00X4.072Y-3.9303
M15
G01X4.072Y-3.8791
M16
G05
T0
M30
