%TF.GenerationSoftware,KiCad,Pcbnew,(6.0.4)*%
%TF.CreationDate,2022-05-05T14:57:31-04:00*%
%TF.ProjectId,KSGER Controller,4b534745-5220-4436-9f6e-74726f6c6c65,rev?*%
%TF.SameCoordinates,Original*%
%TF.FileFunction,Legend,Bot*%
%TF.FilePolarity,Positive*%
%FSLAX46Y46*%
G04 Gerber Fmt 4.6, Leading zero omitted, Abs format (unit mm)*
G04 Created by KiCad (PCBNEW (6.0.4)) date 2022-05-05 14:57:31*
%MOMM*%
%LPD*%
G01*
G04 APERTURE LIST*
G04 Aperture macros list*
%AMRoundRect*
0 Rectangle with rounded corners*
0 $1 Rounding radius*
0 $2 $3 $4 $5 $6 $7 $8 $9 X,Y pos of 4 corners*
0 Add a 4 corners polygon primitive as box body*
4,1,4,$2,$3,$4,$5,$6,$7,$8,$9,$2,$3,0*
0 Add four circle primitives for the rounded corners*
1,1,$1+$1,$2,$3*
1,1,$1+$1,$4,$5*
1,1,$1+$1,$6,$7*
1,1,$1+$1,$8,$9*
0 Add four rect primitives between the rounded corners*
20,1,$1+$1,$2,$3,$4,$5,0*
20,1,$1+$1,$4,$5,$6,$7,0*
20,1,$1+$1,$6,$7,$8,$9,0*
20,1,$1+$1,$8,$9,$2,$3,0*%
G04 Aperture macros list end*
%ADD10C,0.150000*%
%ADD11C,0.300000*%
%ADD12C,0.120000*%
%ADD13C,0.100000*%
%ADD14C,0.800000*%
%ADD15C,6.400000*%
%ADD16RoundRect,0.250000X0.725000X-0.600000X0.725000X0.600000X-0.725000X0.600000X-0.725000X-0.600000X0*%
%ADD17O,1.950000X1.700000*%
%ADD18RoundRect,0.250000X-0.600000X-0.750000X0.600000X-0.750000X0.600000X0.750000X-0.600000X0.750000X0*%
%ADD19O,1.700000X2.000000*%
%ADD20RoundRect,0.250000X-0.600000X-0.725000X0.600000X-0.725000X0.600000X0.725000X-0.600000X0.725000X0*%
%ADD21O,1.700000X1.950000*%
%ADD22R,2.000000X2.000000*%
%ADD23C,2.000000*%
%ADD24R,2.000000X3.200000*%
%ADD25C,4.500000*%
%ADD26C,1.524000*%
G04 APERTURE END LIST*
D10*
X143914761Y-82075976D02*
X143962380Y-82218833D01*
X143962380Y-82456928D01*
X143914761Y-82552166D01*
X143867142Y-82599785D01*
X143771904Y-82647404D01*
X143676666Y-82647404D01*
X143581428Y-82599785D01*
X143533809Y-82552166D01*
X143486190Y-82456928D01*
X143438571Y-82266452D01*
X143390952Y-82171214D01*
X143343333Y-82123595D01*
X143248095Y-82075976D01*
X143152857Y-82075976D01*
X143057619Y-82123595D01*
X143010000Y-82171214D01*
X142962380Y-82266452D01*
X142962380Y-82504547D01*
X143010000Y-82647404D01*
X143962380Y-83075976D02*
X142962380Y-83075976D01*
X142962380Y-83314071D01*
X143010000Y-83456928D01*
X143105238Y-83552166D01*
X143200476Y-83599785D01*
X143390952Y-83647404D01*
X143533809Y-83647404D01*
X143724285Y-83599785D01*
X143819523Y-83552166D01*
X143914761Y-83456928D01*
X143962380Y-83314071D01*
X143962380Y-83075976D01*
X143676666Y-84028357D02*
X143676666Y-84504547D01*
X143962380Y-83933119D02*
X142962380Y-84266452D01*
X143962380Y-84599785D01*
X150582380Y-81980738D02*
X151582380Y-82314071D01*
X150582380Y-82647404D01*
X151487142Y-83552166D02*
X151534761Y-83504547D01*
X151582380Y-83361690D01*
X151582380Y-83266452D01*
X151534761Y-83123595D01*
X151439523Y-83028357D01*
X151344285Y-82980738D01*
X151153809Y-82933119D01*
X151010952Y-82933119D01*
X150820476Y-82980738D01*
X150725238Y-83028357D01*
X150630000Y-83123595D01*
X150582380Y-83266452D01*
X150582380Y-83361690D01*
X150630000Y-83504547D01*
X150677619Y-83552166D01*
X151487142Y-84552166D02*
X151534761Y-84504547D01*
X151582380Y-84361690D01*
X151582380Y-84266452D01*
X151534761Y-84123595D01*
X151439523Y-84028357D01*
X151344285Y-83980738D01*
X151153809Y-83933119D01*
X151010952Y-83933119D01*
X150820476Y-83980738D01*
X150725238Y-84028357D01*
X150630000Y-84123595D01*
X150582380Y-84266452D01*
X150582380Y-84361690D01*
X150630000Y-84504547D01*
X150677619Y-84552166D01*
X146454761Y-82075976D02*
X146502380Y-82218833D01*
X146502380Y-82456928D01*
X146454761Y-82552166D01*
X146407142Y-82599785D01*
X146311904Y-82647404D01*
X146216666Y-82647404D01*
X146121428Y-82599785D01*
X146073809Y-82552166D01*
X146026190Y-82456928D01*
X145978571Y-82266452D01*
X145930952Y-82171214D01*
X145883333Y-82123595D01*
X145788095Y-82075976D01*
X145692857Y-82075976D01*
X145597619Y-82123595D01*
X145550000Y-82171214D01*
X145502380Y-82266452D01*
X145502380Y-82504547D01*
X145550000Y-82647404D01*
X146407142Y-83647404D02*
X146454761Y-83599785D01*
X146502380Y-83456928D01*
X146502380Y-83361690D01*
X146454761Y-83218833D01*
X146359523Y-83123595D01*
X146264285Y-83075976D01*
X146073809Y-83028357D01*
X145930952Y-83028357D01*
X145740476Y-83075976D01*
X145645238Y-83123595D01*
X145550000Y-83218833D01*
X145502380Y-83361690D01*
X145502380Y-83456928D01*
X145550000Y-83599785D01*
X145597619Y-83647404D01*
X146502380Y-84552166D02*
X146502380Y-84075976D01*
X145502380Y-84075976D01*
D11*
X172910571Y-84662857D02*
X172910571Y-85520000D01*
X174410571Y-85091428D02*
X172910571Y-85091428D01*
X174410571Y-86805714D02*
X174410571Y-85948571D01*
X174410571Y-86377142D02*
X172910571Y-86377142D01*
X173124857Y-86234285D01*
X173267714Y-86091428D01*
X173339142Y-85948571D01*
X173053428Y-87377142D02*
X172982000Y-87448571D01*
X172910571Y-87591428D01*
X172910571Y-87948571D01*
X172982000Y-88091428D01*
X173053428Y-88162857D01*
X173196285Y-88234285D01*
X173339142Y-88234285D01*
X173553428Y-88162857D01*
X174410571Y-87305714D01*
X174410571Y-88234285D01*
X174339142Y-89948571D02*
X174410571Y-90162857D01*
X174410571Y-90520000D01*
X174339142Y-90662857D01*
X174267714Y-90734285D01*
X174124857Y-90805714D01*
X173982000Y-90805714D01*
X173839142Y-90734285D01*
X173767714Y-90662857D01*
X173696285Y-90520000D01*
X173624857Y-90234285D01*
X173553428Y-90091428D01*
X173482000Y-90020000D01*
X173339142Y-89948571D01*
X173196285Y-89948571D01*
X173053428Y-90020000D01*
X172982000Y-90091428D01*
X172910571Y-90234285D01*
X172910571Y-90591428D01*
X172982000Y-90805714D01*
X172910571Y-91734285D02*
X172910571Y-92020000D01*
X172982000Y-92162857D01*
X173124857Y-92305714D01*
X173410571Y-92377142D01*
X173910571Y-92377142D01*
X174196285Y-92305714D01*
X174339142Y-92162857D01*
X174410571Y-92020000D01*
X174410571Y-91734285D01*
X174339142Y-91591428D01*
X174196285Y-91448571D01*
X173910571Y-91377142D01*
X173410571Y-91377142D01*
X173124857Y-91448571D01*
X172982000Y-91591428D01*
X172910571Y-91734285D01*
X174410571Y-93734285D02*
X174410571Y-93020000D01*
X172910571Y-93020000D01*
X174410571Y-94234285D02*
X172910571Y-94234285D01*
X172910571Y-94591428D01*
X172982000Y-94805714D01*
X173124857Y-94948571D01*
X173267714Y-95020000D01*
X173553428Y-95091428D01*
X173767714Y-95091428D01*
X174053428Y-95020000D01*
X174196285Y-94948571D01*
X174339142Y-94805714D01*
X174410571Y-94591428D01*
X174410571Y-94234285D01*
X173624857Y-95734285D02*
X173624857Y-96234285D01*
X174410571Y-96448571D02*
X174410571Y-95734285D01*
X172910571Y-95734285D01*
X172910571Y-96448571D01*
X174410571Y-97948571D02*
X173696285Y-97448571D01*
X174410571Y-97091428D02*
X172910571Y-97091428D01*
X172910571Y-97662857D01*
X172982000Y-97805714D01*
X173053428Y-97877142D01*
X173196285Y-97948571D01*
X173410571Y-97948571D01*
X173553428Y-97877142D01*
X173624857Y-97805714D01*
X173696285Y-97662857D01*
X173696285Y-97091428D01*
X174410571Y-98591428D02*
X172910571Y-98591428D01*
X174410571Y-99305714D02*
X172910571Y-99305714D01*
X174410571Y-100162857D01*
X172910571Y-100162857D01*
X172982000Y-101662857D02*
X172910571Y-101520000D01*
X172910571Y-101305714D01*
X172982000Y-101091428D01*
X173124857Y-100948571D01*
X173267714Y-100877142D01*
X173553428Y-100805714D01*
X173767714Y-100805714D01*
X174053428Y-100877142D01*
X174196285Y-100948571D01*
X174339142Y-101091428D01*
X174410571Y-101305714D01*
X174410571Y-101448571D01*
X174339142Y-101662857D01*
X174267714Y-101734285D01*
X173767714Y-101734285D01*
X173767714Y-101448571D01*
X174410571Y-103520000D02*
X172910571Y-103520000D01*
X174410571Y-105091428D02*
X173696285Y-104591428D01*
X174410571Y-104234285D02*
X172910571Y-104234285D01*
X172910571Y-104805714D01*
X172982000Y-104948571D01*
X173053428Y-105020000D01*
X173196285Y-105091428D01*
X173410571Y-105091428D01*
X173553428Y-105020000D01*
X173624857Y-104948571D01*
X173696285Y-104805714D01*
X173696285Y-104234285D01*
X172910571Y-106020000D02*
X172910571Y-106305714D01*
X172982000Y-106448571D01*
X173124857Y-106591428D01*
X173410571Y-106662857D01*
X173910571Y-106662857D01*
X174196285Y-106591428D01*
X174339142Y-106448571D01*
X174410571Y-106305714D01*
X174410571Y-106020000D01*
X174339142Y-105877142D01*
X174196285Y-105734285D01*
X173910571Y-105662857D01*
X173410571Y-105662857D01*
X173124857Y-105734285D01*
X172982000Y-105877142D01*
X172910571Y-106020000D01*
X174410571Y-107305714D02*
X172910571Y-107305714D01*
X174410571Y-108162857D01*
X172910571Y-108162857D01*
X176682714Y-88448571D02*
X176754142Y-88377142D01*
X176825571Y-88162857D01*
X176825571Y-88020000D01*
X176754142Y-87805714D01*
X176611285Y-87662857D01*
X176468428Y-87591428D01*
X176182714Y-87520000D01*
X175968428Y-87520000D01*
X175682714Y-87591428D01*
X175539857Y-87662857D01*
X175397000Y-87805714D01*
X175325571Y-88020000D01*
X175325571Y-88162857D01*
X175397000Y-88377142D01*
X175468428Y-88448571D01*
X175325571Y-89377142D02*
X175325571Y-89662857D01*
X175397000Y-89805714D01*
X175539857Y-89948571D01*
X175825571Y-90020000D01*
X176325571Y-90020000D01*
X176611285Y-89948571D01*
X176754142Y-89805714D01*
X176825571Y-89662857D01*
X176825571Y-89377142D01*
X176754142Y-89234285D01*
X176611285Y-89091428D01*
X176325571Y-89020000D01*
X175825571Y-89020000D01*
X175539857Y-89091428D01*
X175397000Y-89234285D01*
X175325571Y-89377142D01*
X176825571Y-90662857D02*
X175325571Y-90662857D01*
X176825571Y-91520000D01*
X175325571Y-91520000D01*
X175325571Y-92020000D02*
X175325571Y-92877142D01*
X176825571Y-92448571D02*
X175325571Y-92448571D01*
X176825571Y-94234285D02*
X176111285Y-93734285D01*
X176825571Y-93377142D02*
X175325571Y-93377142D01*
X175325571Y-93948571D01*
X175397000Y-94091428D01*
X175468428Y-94162857D01*
X175611285Y-94234285D01*
X175825571Y-94234285D01*
X175968428Y-94162857D01*
X176039857Y-94091428D01*
X176111285Y-93948571D01*
X176111285Y-93377142D01*
X175325571Y-95162857D02*
X175325571Y-95448571D01*
X175397000Y-95591428D01*
X175539857Y-95734285D01*
X175825571Y-95805714D01*
X176325571Y-95805714D01*
X176611285Y-95734285D01*
X176754142Y-95591428D01*
X176825571Y-95448571D01*
X176825571Y-95162857D01*
X176754142Y-95020000D01*
X176611285Y-94877142D01*
X176325571Y-94805714D01*
X175825571Y-94805714D01*
X175539857Y-94877142D01*
X175397000Y-95020000D01*
X175325571Y-95162857D01*
X176825571Y-97162857D02*
X176825571Y-96448571D01*
X175325571Y-96448571D01*
X176039857Y-99305714D02*
X176111285Y-99520000D01*
X176182714Y-99591428D01*
X176325571Y-99662857D01*
X176539857Y-99662857D01*
X176682714Y-99591428D01*
X176754142Y-99520000D01*
X176825571Y-99377142D01*
X176825571Y-98805714D01*
X175325571Y-98805714D01*
X175325571Y-99305714D01*
X175397000Y-99448571D01*
X175468428Y-99520000D01*
X175611285Y-99591428D01*
X175754142Y-99591428D01*
X175897000Y-99520000D01*
X175968428Y-99448571D01*
X176039857Y-99305714D01*
X176039857Y-98805714D01*
X175325571Y-100591428D02*
X175325571Y-100877142D01*
X175397000Y-101020000D01*
X175539857Y-101162857D01*
X175825571Y-101234285D01*
X176325571Y-101234285D01*
X176611285Y-101162857D01*
X176754142Y-101020000D01*
X176825571Y-100877142D01*
X176825571Y-100591428D01*
X176754142Y-100448571D01*
X176611285Y-100305714D01*
X176325571Y-100234285D01*
X175825571Y-100234285D01*
X175539857Y-100305714D01*
X175397000Y-100448571D01*
X175325571Y-100591428D01*
X176397000Y-101805714D02*
X176397000Y-102520000D01*
X176825571Y-101662857D02*
X175325571Y-102162857D01*
X176825571Y-102662857D01*
X176825571Y-104020000D02*
X176111285Y-103520000D01*
X176825571Y-103162857D02*
X175325571Y-103162857D01*
X175325571Y-103734285D01*
X175397000Y-103877142D01*
X175468428Y-103948571D01*
X175611285Y-104020000D01*
X175825571Y-104020000D01*
X175968428Y-103948571D01*
X176039857Y-103877142D01*
X176111285Y-103734285D01*
X176111285Y-103162857D01*
X176825571Y-104662857D02*
X175325571Y-104662857D01*
X175325571Y-105020000D01*
X175397000Y-105234285D01*
X175539857Y-105377142D01*
X175682714Y-105448571D01*
X175968428Y-105520000D01*
X176182714Y-105520000D01*
X176468428Y-105448571D01*
X176611285Y-105377142D01*
X176754142Y-105234285D01*
X176825571Y-105020000D01*
X176825571Y-104662857D01*
X179240571Y-82305714D02*
X177740571Y-82305714D01*
X177740571Y-82662857D01*
X177812000Y-82877142D01*
X177954857Y-83020000D01*
X178097714Y-83091428D01*
X178383428Y-83162857D01*
X178597714Y-83162857D01*
X178883428Y-83091428D01*
X179026285Y-83020000D01*
X179169142Y-82877142D01*
X179240571Y-82662857D01*
X179240571Y-82305714D01*
X178454857Y-83805714D02*
X178454857Y-84305714D01*
X179240571Y-84520000D02*
X179240571Y-83805714D01*
X177740571Y-83805714D01*
X177740571Y-84520000D01*
X179169142Y-85091428D02*
X179240571Y-85305714D01*
X179240571Y-85662857D01*
X179169142Y-85805714D01*
X179097714Y-85877142D01*
X178954857Y-85948571D01*
X178812000Y-85948571D01*
X178669142Y-85877142D01*
X178597714Y-85805714D01*
X178526285Y-85662857D01*
X178454857Y-85377142D01*
X178383428Y-85234285D01*
X178312000Y-85162857D01*
X178169142Y-85091428D01*
X178026285Y-85091428D01*
X177883428Y-85162857D01*
X177812000Y-85234285D01*
X177740571Y-85377142D01*
X177740571Y-85734285D01*
X177812000Y-85948571D01*
X179240571Y-86591428D02*
X177740571Y-86591428D01*
X177812000Y-88091428D02*
X177740571Y-87948571D01*
X177740571Y-87734285D01*
X177812000Y-87520000D01*
X177954857Y-87377142D01*
X178097714Y-87305714D01*
X178383428Y-87234285D01*
X178597714Y-87234285D01*
X178883428Y-87305714D01*
X179026285Y-87377142D01*
X179169142Y-87520000D01*
X179240571Y-87734285D01*
X179240571Y-87877142D01*
X179169142Y-88091428D01*
X179097714Y-88162857D01*
X178597714Y-88162857D01*
X178597714Y-87877142D01*
X179240571Y-88805714D02*
X177740571Y-88805714D01*
X179240571Y-89662857D01*
X177740571Y-89662857D01*
X178454857Y-90377142D02*
X178454857Y-90877142D01*
X179240571Y-91091428D02*
X179240571Y-90377142D01*
X177740571Y-90377142D01*
X177740571Y-91091428D01*
X179240571Y-91734285D02*
X177740571Y-91734285D01*
X177740571Y-92091428D01*
X177812000Y-92305714D01*
X177954857Y-92448571D01*
X178097714Y-92520000D01*
X178383428Y-92591428D01*
X178597714Y-92591428D01*
X178883428Y-92520000D01*
X179026285Y-92448571D01*
X179169142Y-92305714D01*
X179240571Y-92091428D01*
X179240571Y-91734285D01*
X178454857Y-94877142D02*
X178526285Y-95091428D01*
X178597714Y-95162857D01*
X178740571Y-95234285D01*
X178954857Y-95234285D01*
X179097714Y-95162857D01*
X179169142Y-95091428D01*
X179240571Y-94948571D01*
X179240571Y-94377142D01*
X177740571Y-94377142D01*
X177740571Y-94877142D01*
X177812000Y-95020000D01*
X177883428Y-95091428D01*
X178026285Y-95162857D01*
X178169142Y-95162857D01*
X178312000Y-95091428D01*
X178383428Y-95020000D01*
X178454857Y-94877142D01*
X178454857Y-94377142D01*
X178526285Y-96162857D02*
X179240571Y-96162857D01*
X177740571Y-95662857D02*
X178526285Y-96162857D01*
X177740571Y-96662857D01*
X177740571Y-98591428D02*
X177740571Y-98877142D01*
X177812000Y-99020000D01*
X177954857Y-99162857D01*
X178240571Y-99234285D01*
X178740571Y-99234285D01*
X179026285Y-99162857D01*
X179169142Y-99020000D01*
X179240571Y-98877142D01*
X179240571Y-98591428D01*
X179169142Y-98448571D01*
X179026285Y-98305714D01*
X178740571Y-98234285D01*
X178240571Y-98234285D01*
X177954857Y-98305714D01*
X177812000Y-98448571D01*
X177740571Y-98591428D01*
X179240571Y-99877142D02*
X177740571Y-99877142D01*
X178812000Y-100377142D01*
X177740571Y-100877142D01*
X179240571Y-100877142D01*
X178454857Y-101591428D02*
X178454857Y-102091428D01*
X179240571Y-102305714D02*
X179240571Y-101591428D01*
X177740571Y-101591428D01*
X177740571Y-102305714D01*
X177812000Y-103734285D02*
X177740571Y-103591428D01*
X177740571Y-103377142D01*
X177812000Y-103162857D01*
X177954857Y-103020000D01*
X178097714Y-102948571D01*
X178383428Y-102877142D01*
X178597714Y-102877142D01*
X178883428Y-102948571D01*
X179026285Y-103020000D01*
X179169142Y-103162857D01*
X179240571Y-103377142D01*
X179240571Y-103520000D01*
X179169142Y-103734285D01*
X179097714Y-103805714D01*
X178597714Y-103805714D01*
X178597714Y-103520000D01*
X178812000Y-104377142D02*
X178812000Y-105091428D01*
X179240571Y-104234285D02*
X177740571Y-104734285D01*
X179240571Y-105234285D01*
X179240571Y-105805714D02*
X179240571Y-106091428D01*
X179169142Y-106234285D01*
X179097714Y-106305714D01*
X178883428Y-106448571D01*
X178597714Y-106520000D01*
X178026285Y-106520000D01*
X177883428Y-106448571D01*
X177812000Y-106377142D01*
X177740571Y-106234285D01*
X177740571Y-105948571D01*
X177812000Y-105805714D01*
X177883428Y-105734285D01*
X178026285Y-105662857D01*
X178383428Y-105662857D01*
X178526285Y-105734285D01*
X178597714Y-105805714D01*
X178669142Y-105948571D01*
X178669142Y-106234285D01*
X178597714Y-106377142D01*
X178526285Y-106448571D01*
X178383428Y-106520000D01*
X177740571Y-107020000D02*
X177740571Y-107948571D01*
X178312000Y-107448571D01*
X178312000Y-107662857D01*
X178383428Y-107805714D01*
X178454857Y-107877142D01*
X178597714Y-107948571D01*
X178954857Y-107948571D01*
X179097714Y-107877142D01*
X179169142Y-107805714D01*
X179240571Y-107662857D01*
X179240571Y-107234285D01*
X179169142Y-107091428D01*
X179097714Y-107020000D01*
X178383428Y-108805714D02*
X178312000Y-108662857D01*
X178240571Y-108591428D01*
X178097714Y-108520000D01*
X178026285Y-108520000D01*
X177883428Y-108591428D01*
X177812000Y-108662857D01*
X177740571Y-108805714D01*
X177740571Y-109091428D01*
X177812000Y-109234285D01*
X177883428Y-109305714D01*
X178026285Y-109377142D01*
X178097714Y-109377142D01*
X178240571Y-109305714D01*
X178312000Y-109234285D01*
X178383428Y-109091428D01*
X178383428Y-108805714D01*
X178454857Y-108662857D01*
X178526285Y-108591428D01*
X178669142Y-108520000D01*
X178954857Y-108520000D01*
X179097714Y-108591428D01*
X179169142Y-108662857D01*
X179240571Y-108805714D01*
X179240571Y-109091428D01*
X179169142Y-109234285D01*
X179097714Y-109305714D01*
X178954857Y-109377142D01*
X178669142Y-109377142D01*
X178526285Y-109305714D01*
X178454857Y-109234285D01*
X178383428Y-109091428D01*
X177740571Y-110305714D02*
X177740571Y-110448571D01*
X177812000Y-110591428D01*
X177883428Y-110662857D01*
X178026285Y-110734285D01*
X178312000Y-110805714D01*
X178669142Y-110805714D01*
X178954857Y-110734285D01*
X179097714Y-110662857D01*
X179169142Y-110591428D01*
X179240571Y-110448571D01*
X179240571Y-110305714D01*
X179169142Y-110162857D01*
X179097714Y-110091428D01*
X178954857Y-110020000D01*
X178669142Y-109948571D01*
X178312000Y-109948571D01*
X178026285Y-110020000D01*
X177883428Y-110091428D01*
X177812000Y-110162857D01*
X177740571Y-110305714D01*
X180869857Y-83734285D02*
X180941285Y-83948571D01*
X181012714Y-84020000D01*
X181155571Y-84091428D01*
X181369857Y-84091428D01*
X181512714Y-84020000D01*
X181584142Y-83948571D01*
X181655571Y-83805714D01*
X181655571Y-83234285D01*
X180155571Y-83234285D01*
X180155571Y-83734285D01*
X180227000Y-83877142D01*
X180298428Y-83948571D01*
X180441285Y-84020000D01*
X180584142Y-84020000D01*
X180727000Y-83948571D01*
X180798428Y-83877142D01*
X180869857Y-83734285D01*
X180869857Y-83234285D01*
X181227000Y-84662857D02*
X181227000Y-85377142D01*
X181655571Y-84520000D02*
X180155571Y-85020000D01*
X181655571Y-85520000D01*
X181584142Y-85948571D02*
X181655571Y-86162857D01*
X181655571Y-86520000D01*
X181584142Y-86662857D01*
X181512714Y-86734285D01*
X181369857Y-86805714D01*
X181227000Y-86805714D01*
X181084142Y-86734285D01*
X181012714Y-86662857D01*
X180941285Y-86520000D01*
X180869857Y-86234285D01*
X180798428Y-86091428D01*
X180727000Y-86020000D01*
X180584142Y-85948571D01*
X180441285Y-85948571D01*
X180298428Y-86020000D01*
X180227000Y-86091428D01*
X180155571Y-86234285D01*
X180155571Y-86591428D01*
X180227000Y-86805714D01*
X180869857Y-87448571D02*
X180869857Y-87948571D01*
X181655571Y-88162857D02*
X181655571Y-87448571D01*
X180155571Y-87448571D01*
X180155571Y-88162857D01*
X181655571Y-88805714D02*
X180155571Y-88805714D01*
X180155571Y-89162857D01*
X180227000Y-89377142D01*
X180369857Y-89520000D01*
X180512714Y-89591428D01*
X180798428Y-89662857D01*
X181012714Y-89662857D01*
X181298428Y-89591428D01*
X181441285Y-89520000D01*
X181584142Y-89377142D01*
X181655571Y-89162857D01*
X181655571Y-88805714D01*
X180155571Y-91734285D02*
X180155571Y-92020000D01*
X180227000Y-92162857D01*
X180369857Y-92305714D01*
X180655571Y-92377142D01*
X181155571Y-92377142D01*
X181441285Y-92305714D01*
X181584142Y-92162857D01*
X181655571Y-92020000D01*
X181655571Y-91734285D01*
X181584142Y-91591428D01*
X181441285Y-91448571D01*
X181155571Y-91377142D01*
X180655571Y-91377142D01*
X180369857Y-91448571D01*
X180227000Y-91591428D01*
X180155571Y-91734285D01*
X181655571Y-93020000D02*
X180155571Y-93020000D01*
X181655571Y-93877142D01*
X180155571Y-93877142D01*
X181584142Y-95662857D02*
X181655571Y-95877142D01*
X181655571Y-96234285D01*
X181584142Y-96377142D01*
X181512714Y-96448571D01*
X181369857Y-96520000D01*
X181227000Y-96520000D01*
X181084142Y-96448571D01*
X181012714Y-96377142D01*
X180941285Y-96234285D01*
X180869857Y-95948571D01*
X180798428Y-95805714D01*
X180727000Y-95734285D01*
X180584142Y-95662857D01*
X180441285Y-95662857D01*
X180298428Y-95734285D01*
X180227000Y-95805714D01*
X180155571Y-95948571D01*
X180155571Y-96305714D01*
X180227000Y-96520000D01*
X181512714Y-98020000D02*
X181584142Y-97948571D01*
X181655571Y-97734285D01*
X181655571Y-97591428D01*
X181584142Y-97377142D01*
X181441285Y-97234285D01*
X181298428Y-97162857D01*
X181012714Y-97091428D01*
X180798428Y-97091428D01*
X180512714Y-97162857D01*
X180369857Y-97234285D01*
X180227000Y-97377142D01*
X180155571Y-97591428D01*
X180155571Y-97734285D01*
X180227000Y-97948571D01*
X180298428Y-98020000D01*
X181655571Y-98662857D02*
X180155571Y-98662857D01*
X180869857Y-98662857D02*
X180869857Y-99520000D01*
X181655571Y-99520000D02*
X180155571Y-99520000D01*
X180869857Y-100234285D02*
X180869857Y-100734285D01*
X181655571Y-100948571D02*
X181655571Y-100234285D01*
X180155571Y-100234285D01*
X180155571Y-100948571D01*
X181655571Y-101591428D02*
X180155571Y-101591428D01*
X181227000Y-102091428D01*
X180155571Y-102591428D01*
X181655571Y-102591428D01*
X181227000Y-103234285D02*
X181227000Y-103948571D01*
X181655571Y-103091428D02*
X180155571Y-103591428D01*
X181655571Y-104091428D01*
X180155571Y-104377142D02*
X180155571Y-105234285D01*
X181655571Y-104805714D02*
X180155571Y-104805714D01*
X181655571Y-105734285D02*
X180155571Y-105734285D01*
X181512714Y-107305714D02*
X181584142Y-107234285D01*
X181655571Y-107020000D01*
X181655571Y-106877142D01*
X181584142Y-106662857D01*
X181441285Y-106520000D01*
X181298428Y-106448571D01*
X181012714Y-106377142D01*
X180798428Y-106377142D01*
X180512714Y-106448571D01*
X180369857Y-106520000D01*
X180227000Y-106662857D01*
X180155571Y-106877142D01*
X180155571Y-107020000D01*
X180227000Y-107234285D01*
X180298428Y-107305714D01*
X181584142Y-107877142D02*
X181655571Y-108091428D01*
X181655571Y-108448571D01*
X181584142Y-108591428D01*
X181512714Y-108662857D01*
X181369857Y-108734285D01*
X181227000Y-108734285D01*
X181084142Y-108662857D01*
X181012714Y-108591428D01*
X180941285Y-108448571D01*
X180869857Y-108162857D01*
X180798428Y-108020000D01*
X180727000Y-107948571D01*
X180584142Y-107877142D01*
X180441285Y-107877142D01*
X180298428Y-107948571D01*
X180227000Y-108020000D01*
X180155571Y-108162857D01*
X180155571Y-108520000D01*
X180227000Y-108734285D01*
X183284857Y-87555714D02*
X183356285Y-87770000D01*
X183427714Y-87841428D01*
X183570571Y-87912857D01*
X183784857Y-87912857D01*
X183927714Y-87841428D01*
X183999142Y-87770000D01*
X184070571Y-87627142D01*
X184070571Y-87055714D01*
X182570571Y-87055714D01*
X182570571Y-87555714D01*
X182642000Y-87698571D01*
X182713428Y-87770000D01*
X182856285Y-87841428D01*
X182999142Y-87841428D01*
X183142000Y-87770000D01*
X183213428Y-87698571D01*
X183284857Y-87555714D01*
X183284857Y-87055714D01*
X183356285Y-88841428D02*
X184070571Y-88841428D01*
X182570571Y-88341428D02*
X183356285Y-88841428D01*
X182570571Y-89341428D01*
X184070571Y-90984285D02*
X182570571Y-90984285D01*
X183642000Y-91484285D01*
X182570571Y-91984285D01*
X184070571Y-91984285D01*
X184070571Y-92698571D02*
X182570571Y-92698571D01*
X184070571Y-93412857D02*
X182570571Y-93412857D01*
X184070571Y-94270000D01*
X182570571Y-94270000D01*
X184070571Y-94984285D02*
X182570571Y-94984285D01*
X182570571Y-95341428D01*
X182642000Y-95555714D01*
X182784857Y-95698571D01*
X182927714Y-95770000D01*
X183213428Y-95841428D01*
X183427714Y-95841428D01*
X183713428Y-95770000D01*
X183856285Y-95698571D01*
X183999142Y-95555714D01*
X184070571Y-95341428D01*
X184070571Y-94984285D01*
X183999142Y-96412857D02*
X184070571Y-96627142D01*
X184070571Y-96984285D01*
X183999142Y-97127142D01*
X183927714Y-97198571D01*
X183784857Y-97270000D01*
X183642000Y-97270000D01*
X183499142Y-97198571D01*
X183427714Y-97127142D01*
X183356285Y-96984285D01*
X183284857Y-96698571D01*
X183213428Y-96555714D01*
X183142000Y-96484285D01*
X182999142Y-96412857D01*
X182856285Y-96412857D01*
X182713428Y-96484285D01*
X182642000Y-96555714D01*
X182570571Y-96698571D01*
X182570571Y-97055714D01*
X182642000Y-97270000D01*
X182570571Y-97698571D02*
X182570571Y-98555714D01*
X184070571Y-98127142D02*
X182570571Y-98127142D01*
X182570571Y-99341428D02*
X182570571Y-99627142D01*
X182642000Y-99770000D01*
X182784857Y-99912857D01*
X183070571Y-99984285D01*
X183570571Y-99984285D01*
X183856285Y-99912857D01*
X183999142Y-99770000D01*
X184070571Y-99627142D01*
X184070571Y-99341428D01*
X183999142Y-99198571D01*
X183856285Y-99055714D01*
X183570571Y-98984285D01*
X183070571Y-98984285D01*
X182784857Y-99055714D01*
X182642000Y-99198571D01*
X182570571Y-99341428D01*
X184070571Y-101484285D02*
X183356285Y-100984285D01*
X184070571Y-100627142D02*
X182570571Y-100627142D01*
X182570571Y-101198571D01*
X182642000Y-101341428D01*
X182713428Y-101412857D01*
X182856285Y-101484285D01*
X183070571Y-101484285D01*
X183213428Y-101412857D01*
X183284857Y-101341428D01*
X183356285Y-101198571D01*
X183356285Y-100627142D01*
X184070571Y-102127142D02*
X182570571Y-102127142D01*
X183642000Y-102627142D01*
X182570571Y-103127142D01*
X184070571Y-103127142D01*
X183213428Y-104055714D02*
X183142000Y-103912857D01*
X183070571Y-103841428D01*
X182927714Y-103770000D01*
X182856285Y-103770000D01*
X182713428Y-103841428D01*
X182642000Y-103912857D01*
X182570571Y-104055714D01*
X182570571Y-104341428D01*
X182642000Y-104484285D01*
X182713428Y-104555714D01*
X182856285Y-104627142D01*
X182927714Y-104627142D01*
X183070571Y-104555714D01*
X183142000Y-104484285D01*
X183213428Y-104341428D01*
X183213428Y-104055714D01*
X183284857Y-103912857D01*
X183356285Y-103841428D01*
X183499142Y-103770000D01*
X183784857Y-103770000D01*
X183927714Y-103841428D01*
X183999142Y-103912857D01*
X184070571Y-104055714D01*
X184070571Y-104341428D01*
X183999142Y-104484285D01*
X183927714Y-104555714D01*
X183784857Y-104627142D01*
X183499142Y-104627142D01*
X183356285Y-104555714D01*
X183284857Y-104484285D01*
X183213428Y-104341428D01*
X183213428Y-105484285D02*
X183142000Y-105341428D01*
X183070571Y-105270000D01*
X182927714Y-105198571D01*
X182856285Y-105198571D01*
X182713428Y-105270000D01*
X182642000Y-105341428D01*
X182570571Y-105484285D01*
X182570571Y-105770000D01*
X182642000Y-105912857D01*
X182713428Y-105984285D01*
X182856285Y-106055714D01*
X182927714Y-106055714D01*
X183070571Y-105984285D01*
X183142000Y-105912857D01*
X183213428Y-105770000D01*
X183213428Y-105484285D01*
X183284857Y-105341428D01*
X183356285Y-105270000D01*
X183499142Y-105198571D01*
X183784857Y-105198571D01*
X183927714Y-105270000D01*
X183999142Y-105341428D01*
X184070571Y-105484285D01*
X184070571Y-105770000D01*
X183999142Y-105912857D01*
X183927714Y-105984285D01*
X183784857Y-106055714D01*
X183499142Y-106055714D01*
X183356285Y-105984285D01*
X183284857Y-105912857D01*
X183213428Y-105770000D01*
D10*
X148090000Y-82647404D02*
X148042380Y-82552166D01*
X148042380Y-82409309D01*
X148090000Y-82266452D01*
X148185238Y-82171214D01*
X148280476Y-82123595D01*
X148470952Y-82075976D01*
X148613809Y-82075976D01*
X148804285Y-82123595D01*
X148899523Y-82171214D01*
X148994761Y-82266452D01*
X149042380Y-82409309D01*
X149042380Y-82504547D01*
X148994761Y-82647404D01*
X148947142Y-82695023D01*
X148613809Y-82695023D01*
X148613809Y-82504547D01*
X149042380Y-83123595D02*
X148042380Y-83123595D01*
X149042380Y-83695023D01*
X148042380Y-83695023D01*
X149042380Y-84171214D02*
X148042380Y-84171214D01*
X148042380Y-84409309D01*
X148090000Y-84552166D01*
X148185238Y-84647404D01*
X148280476Y-84695023D01*
X148470952Y-84742642D01*
X148613809Y-84742642D01*
X148804285Y-84695023D01*
X148899523Y-84647404D01*
X148994761Y-84552166D01*
X149042380Y-84409309D01*
X149042380Y-84171214D01*
%TO.C,SW1*%
X103695333Y-107084761D02*
X103552476Y-107132380D01*
X103314380Y-107132380D01*
X103219142Y-107084761D01*
X103171523Y-107037142D01*
X103123904Y-106941904D01*
X103123904Y-106846666D01*
X103171523Y-106751428D01*
X103219142Y-106703809D01*
X103314380Y-106656190D01*
X103504857Y-106608571D01*
X103600095Y-106560952D01*
X103647714Y-106513333D01*
X103695333Y-106418095D01*
X103695333Y-106322857D01*
X103647714Y-106227619D01*
X103600095Y-106180000D01*
X103504857Y-106132380D01*
X103266761Y-106132380D01*
X103123904Y-106180000D01*
X102790571Y-106132380D02*
X102552476Y-107132380D01*
X102362000Y-106418095D01*
X102171523Y-107132380D01*
X101933428Y-106132380D01*
X101028666Y-107132380D02*
X101600095Y-107132380D01*
X101314380Y-107132380D02*
X101314380Y-106132380D01*
X101409619Y-106275238D01*
X101504857Y-106370476D01*
X101600095Y-106418095D01*
%TO.C,U7*%
X147923404Y-103132380D02*
X147923404Y-103941904D01*
X147875785Y-104037142D01*
X147828166Y-104084761D01*
X147732928Y-104132380D01*
X147542452Y-104132380D01*
X147447214Y-104084761D01*
X147399595Y-104037142D01*
X147351976Y-103941904D01*
X147351976Y-103132380D01*
X146971023Y-103132380D02*
X146304357Y-103132380D01*
X146732928Y-104132380D01*
X150328166Y-105584761D02*
X150185309Y-105632380D01*
X149947214Y-105632380D01*
X149851976Y-105584761D01*
X149804357Y-105537142D01*
X149756738Y-105441904D01*
X149756738Y-105346666D01*
X149804357Y-105251428D01*
X149851976Y-105203809D01*
X149947214Y-105156190D01*
X150137690Y-105108571D01*
X150232928Y-105060952D01*
X150280547Y-105013333D01*
X150328166Y-104918095D01*
X150328166Y-104822857D01*
X150280547Y-104727619D01*
X150232928Y-104680000D01*
X150137690Y-104632380D01*
X149899595Y-104632380D01*
X149756738Y-104680000D01*
X149375785Y-105584761D02*
X149232928Y-105632380D01*
X148994833Y-105632380D01*
X148899595Y-105584761D01*
X148851976Y-105537142D01*
X148804357Y-105441904D01*
X148804357Y-105346666D01*
X148851976Y-105251428D01*
X148899595Y-105203809D01*
X148994833Y-105156190D01*
X149185309Y-105108571D01*
X149280547Y-105060952D01*
X149328166Y-105013333D01*
X149375785Y-104918095D01*
X149375785Y-104822857D01*
X149328166Y-104727619D01*
X149280547Y-104680000D01*
X149185309Y-104632380D01*
X148947214Y-104632380D01*
X148804357Y-104680000D01*
X148375785Y-105632380D02*
X148375785Y-104632380D01*
X148137690Y-104632380D01*
X147994833Y-104680000D01*
X147899595Y-104775238D01*
X147851976Y-104870476D01*
X147804357Y-105060952D01*
X147804357Y-105203809D01*
X147851976Y-105394285D01*
X147899595Y-105489523D01*
X147994833Y-105584761D01*
X148137690Y-105632380D01*
X148375785Y-105632380D01*
X146851976Y-105632380D02*
X147423404Y-105632380D01*
X147137690Y-105632380D02*
X147137690Y-104632380D01*
X147232928Y-104775238D01*
X147328166Y-104870476D01*
X147423404Y-104918095D01*
X145899595Y-105632380D02*
X146471023Y-105632380D01*
X146185309Y-105632380D02*
X146185309Y-104632380D01*
X146280547Y-104775238D01*
X146375785Y-104870476D01*
X146471023Y-104918095D01*
X145280547Y-104632380D02*
X145185309Y-104632380D01*
X145090071Y-104680000D01*
X145042452Y-104727619D01*
X144994833Y-104822857D01*
X144947214Y-105013333D01*
X144947214Y-105251428D01*
X144994833Y-105441904D01*
X145042452Y-105537142D01*
X145090071Y-105584761D01*
X145185309Y-105632380D01*
X145280547Y-105632380D01*
X145375785Y-105584761D01*
X145423404Y-105537142D01*
X145471023Y-105441904D01*
X145518642Y-105251428D01*
X145518642Y-105013333D01*
X145471023Y-104822857D01*
X145423404Y-104727619D01*
X145375785Y-104680000D01*
X145280547Y-104632380D01*
X144090071Y-104632380D02*
X144280547Y-104632380D01*
X144375785Y-104680000D01*
X144423404Y-104727619D01*
X144518642Y-104870476D01*
X144566261Y-105060952D01*
X144566261Y-105441904D01*
X144518642Y-105537142D01*
X144471023Y-105584761D01*
X144375785Y-105632380D01*
X144185309Y-105632380D01*
X144090071Y-105584761D01*
X144042452Y-105537142D01*
X143994833Y-105441904D01*
X143994833Y-105203809D01*
X144042452Y-105108571D01*
X144090071Y-105060952D01*
X144185309Y-105013333D01*
X144375785Y-105013333D01*
X144471023Y-105060952D01*
X144518642Y-105108571D01*
X144566261Y-105203809D01*
D12*
%TO.C,SW1*%
X103730000Y-93080000D02*
X101330000Y-93080000D01*
X103730000Y-101180000D02*
X103730000Y-105280000D01*
X91930000Y-93080000D02*
X91930000Y-97180000D01*
X101930000Y-106380000D02*
X101630000Y-106680000D01*
X94330000Y-93080000D02*
X91930000Y-93080000D01*
X101930000Y-106980000D02*
X101930000Y-106380000D01*
X103730000Y-105280000D02*
X91930000Y-105280000D01*
X91930000Y-101180000D02*
X91930000Y-105280000D01*
X98330000Y-99180000D02*
X97330000Y-99180000D01*
X101630000Y-106680000D02*
X101930000Y-106980000D01*
X103730000Y-97180000D02*
X103730000Y-93080000D01*
X97830000Y-99680000D02*
X97830000Y-98680000D01*
X99130000Y-93080000D02*
X96530000Y-93080000D01*
X100830000Y-99180000D02*
G75*
G03*
X100830000Y-99180000I-3000000J0D01*
G01*
D13*
%TO.C,U7*%
X131921500Y-112268000D02*
X162401500Y-112268000D01*
X164941500Y-109728000D02*
X164941500Y-81280000D01*
X129381500Y-81280000D02*
X129381500Y-109728000D01*
X162401500Y-78740000D02*
X131921500Y-78740000D01*
D12*
X161951500Y-86090000D02*
X132531500Y-86090000D01*
X132531500Y-86090000D02*
X132531500Y-100790000D01*
X132531500Y-100790000D02*
X161951500Y-100790000D01*
X161951500Y-100790000D02*
X161951500Y-86090000D01*
X164941500Y-81280000D02*
G75*
G03*
X162401500Y-78740000I-2540000J0D01*
G01*
X162401500Y-112268000D02*
G75*
G03*
X164941500Y-109728000I0J2540000D01*
G01*
X131921500Y-78740000D02*
G75*
G03*
X129381500Y-81280000I0J-2540000D01*
G01*
X129381500Y-109728000D02*
G75*
G03*
X131921500Y-112268000I2540000J0D01*
G01*
%TD*%
%LPC*%
D14*
%TO.C,H1*%
X199390000Y-116700000D03*
X201087056Y-115997056D03*
X201790000Y-114300000D03*
X196990000Y-114300000D03*
D15*
X199390000Y-114300000D03*
D14*
X199390000Y-111900000D03*
X197692944Y-115997056D03*
X201087056Y-112602944D03*
X197692944Y-112602944D03*
%TD*%
D16*
%TO.C,J2*%
X193248000Y-102790000D03*
D17*
X193248000Y-100290000D03*
X193248000Y-97790000D03*
X193248000Y-95290000D03*
X193248000Y-92790000D03*
%TD*%
D18*
%TO.C,J4*%
X102870000Y-114300000D03*
D19*
X105370000Y-114300000D03*
%TD*%
D20*
%TO.C,JE*%
X101680000Y-81280000D03*
D21*
X104180000Y-81280000D03*
X106680000Y-81280000D03*
X109180000Y-81280000D03*
%TD*%
D18*
%TO.C,J1*%
X186690000Y-82550000D03*
D19*
X189190000Y-82550000D03*
%TD*%
D14*
%TO.C,H3*%
X92710000Y-78880000D03*
X95110000Y-81280000D03*
D15*
X92710000Y-81280000D03*
D14*
X92710000Y-83680000D03*
X90310000Y-81280000D03*
X91012944Y-79582944D03*
X94407056Y-82977056D03*
X94407056Y-79582944D03*
X91012944Y-82977056D03*
%TD*%
%TO.C,H4*%
X201087056Y-82977056D03*
X201087056Y-79582944D03*
D15*
X199390000Y-81280000D03*
D14*
X196990000Y-81280000D03*
X199390000Y-83680000D03*
X199390000Y-78880000D03*
X197692944Y-79582944D03*
X201790000Y-81280000D03*
X197692944Y-82977056D03*
%TD*%
%TO.C,H2*%
X91012944Y-115997056D03*
X90310000Y-114300000D03*
X92710000Y-116700000D03*
X95110000Y-114300000D03*
X94407056Y-112602944D03*
D15*
X92710000Y-114300000D03*
D14*
X92710000Y-111900000D03*
X91012944Y-112602944D03*
X94407056Y-115997056D03*
%TD*%
D18*
%TO.C,BZ1*%
X113030000Y-114300000D03*
D19*
X115530000Y-114300000D03*
%TD*%
D22*
%TO.C,SW1*%
X100330000Y-106680000D03*
D23*
X95330000Y-106680000D03*
X97830000Y-106680000D03*
D24*
X103430000Y-99180000D03*
X92230000Y-99180000D03*
D23*
X95330000Y-92180000D03*
X100330000Y-92180000D03*
%TD*%
D25*
%TO.C,U7*%
X162441500Y-109740000D03*
X131961500Y-109740000D03*
X162441500Y-81240000D03*
X131961500Y-81240000D03*
D26*
X151051500Y-80740000D03*
X148511500Y-80740000D03*
X145971500Y-80740000D03*
X143431500Y-80740000D03*
%TD*%
M02*
