%TF.GenerationSoftware,KiCad,Pcbnew,(6.0.4)*%
%TF.CreationDate,2022-05-05T14:57:31-04:00*%
%TF.ProjectId,KSGER Controller,4b534745-5220-4436-9f6e-74726f6c6c65,rev?*%
%TF.SameCoordinates,Original*%
%TF.FileFunction,Copper,L2,Bot*%
%TF.FilePolarity,Positive*%
%FSLAX46Y46*%
G04 Gerber Fmt 4.6, Leading zero omitted, Abs format (unit mm)*
G04 Created by KiCad (PCBNEW (6.0.4)) date 2022-05-05 14:57:31*
%MOMM*%
%LPD*%
G01*
G04 APERTURE LIST*
G04 Aperture macros list*
%AMRoundRect*
0 Rectangle with rounded corners*
0 $1 Rounding radius*
0 $2 $3 $4 $5 $6 $7 $8 $9 X,Y pos of 4 corners*
0 Add a 4 corners polygon primitive as box body*
4,1,4,$2,$3,$4,$5,$6,$7,$8,$9,$2,$3,0*
0 Add four circle primitives for the rounded corners*
1,1,$1+$1,$2,$3*
1,1,$1+$1,$4,$5*
1,1,$1+$1,$6,$7*
1,1,$1+$1,$8,$9*
0 Add four rect primitives between the rounded corners*
20,1,$1+$1,$2,$3,$4,$5,0*
20,1,$1+$1,$4,$5,$6,$7,0*
20,1,$1+$1,$6,$7,$8,$9,0*
20,1,$1+$1,$8,$9,$2,$3,0*%
G04 Aperture macros list end*
%TA.AperFunction,ComponentPad*%
%ADD10C,0.800000*%
%TD*%
%TA.AperFunction,ComponentPad*%
%ADD11C,6.400000*%
%TD*%
%TA.AperFunction,ComponentPad*%
%ADD12RoundRect,0.250000X0.725000X-0.600000X0.725000X0.600000X-0.725000X0.600000X-0.725000X-0.600000X0*%
%TD*%
%TA.AperFunction,ComponentPad*%
%ADD13O,1.950000X1.700000*%
%TD*%
%TA.AperFunction,ComponentPad*%
%ADD14RoundRect,0.250000X-0.600000X-0.750000X0.600000X-0.750000X0.600000X0.750000X-0.600000X0.750000X0*%
%TD*%
%TA.AperFunction,ComponentPad*%
%ADD15O,1.700000X2.000000*%
%TD*%
%TA.AperFunction,ComponentPad*%
%ADD16RoundRect,0.250000X-0.600000X-0.725000X0.600000X-0.725000X0.600000X0.725000X-0.600000X0.725000X0*%
%TD*%
%TA.AperFunction,ComponentPad*%
%ADD17O,1.700000X1.950000*%
%TD*%
%TA.AperFunction,ComponentPad*%
%ADD18R,2.000000X2.000000*%
%TD*%
%TA.AperFunction,ComponentPad*%
%ADD19C,2.000000*%
%TD*%
%TA.AperFunction,ComponentPad*%
%ADD20R,2.000000X3.200000*%
%TD*%
%TA.AperFunction,ComponentPad*%
%ADD21C,4.500000*%
%TD*%
%TA.AperFunction,ComponentPad*%
%ADD22C,1.524000*%
%TD*%
%TA.AperFunction,ViaPad*%
%ADD23C,0.800000*%
%TD*%
%TA.AperFunction,Conductor*%
%ADD24C,0.250000*%
%TD*%
G04 APERTURE END LIST*
D10*
%TO.P,H1,1,1*%
%TO.N,GND*%
X199390000Y-116700000D03*
X201087056Y-115997056D03*
X201790000Y-114300000D03*
X196990000Y-114300000D03*
D11*
X199390000Y-114300000D03*
D10*
X199390000Y-111900000D03*
X197692944Y-115997056D03*
X201087056Y-112602944D03*
X197692944Y-112602944D03*
%TD*%
D12*
%TO.P,J2,1,Pin_1*%
%TO.N,Net-(J2-Pad1)*%
X193248000Y-102790000D03*
D13*
%TO.P,J2,2,Pin_2*%
%TO.N,Net-(J2-Pad2)*%
X193248000Y-100290000D03*
%TO.P,J2,3,Pin_3*%
%TO.N,GND*%
X193248000Y-97790000D03*
%TO.P,J2,4,Pin_4*%
X193248000Y-95290000D03*
%TO.P,J2,5,Pin_5*%
%TO.N,Net-(C12-Pad2)*%
X193248000Y-92790000D03*
%TD*%
D14*
%TO.P,J4,1,Pin_1*%
%TO.N,GND*%
X102870000Y-114300000D03*
D15*
%TO.P,J4,2,Pin_2*%
%TO.N,Net-(J4-Pad2)*%
X105370000Y-114300000D03*
%TD*%
D16*
%TO.P,JE,1,Pin_1*%
%TO.N,+3V3*%
X101680000Y-81280000D03*
D17*
%TO.P,JE,2,Pin_2*%
%TO.N,SW_CLK*%
X104180000Y-81280000D03*
%TO.P,JE,3,Pin_3*%
%TO.N,SWDIO*%
X106680000Y-81280000D03*
%TO.P,JE,4,Pin_4*%
%TO.N,GND*%
X109180000Y-81280000D03*
%TD*%
D14*
%TO.P,J1,1,Pin_1*%
%TO.N,GND*%
X186690000Y-82550000D03*
D15*
%TO.P,J1,2,Pin_2*%
%TO.N,+24V*%
X189190000Y-82550000D03*
%TD*%
D10*
%TO.P,H3,1,1*%
%TO.N,GND*%
X92710000Y-78880000D03*
X95110000Y-81280000D03*
D11*
X92710000Y-81280000D03*
D10*
X92710000Y-83680000D03*
X90310000Y-81280000D03*
X91012944Y-79582944D03*
X94407056Y-82977056D03*
X94407056Y-79582944D03*
X91012944Y-82977056D03*
%TD*%
%TO.P,H4,1,1*%
%TO.N,GND*%
X201087056Y-82977056D03*
X201087056Y-79582944D03*
D11*
X199390000Y-81280000D03*
D10*
X196990000Y-81280000D03*
X199390000Y-83680000D03*
X199390000Y-78880000D03*
X197692944Y-79582944D03*
X201790000Y-81280000D03*
X197692944Y-82977056D03*
%TD*%
%TO.P,H2,1,1*%
%TO.N,GND*%
X91012944Y-115997056D03*
X90310000Y-114300000D03*
X92710000Y-116700000D03*
X95110000Y-114300000D03*
X94407056Y-112602944D03*
D11*
X92710000Y-114300000D03*
D10*
X92710000Y-111900000D03*
X91012944Y-112602944D03*
X94407056Y-115997056D03*
%TD*%
D14*
%TO.P,BZ1,1,-*%
%TO.N,+3V3*%
X113030000Y-114300000D03*
D15*
%TO.P,BZ1,2,+*%
%TO.N,Net-(BZ1-Pad2)*%
X115530000Y-114300000D03*
%TD*%
D18*
%TO.P,SW1,A,A*%
%TO.N,ENCODER_A*%
X100330000Y-106680000D03*
D19*
%TO.P,SW1,B,B*%
%TO.N,ENCODER_B*%
X95330000Y-106680000D03*
%TO.P,SW1,C,C*%
%TO.N,GND*%
X97830000Y-106680000D03*
D20*
%TO.P,SW1,MP*%
X103430000Y-99180000D03*
X92230000Y-99180000D03*
D19*
%TO.P,SW1,S1,S1*%
%TO.N,ENCODER_SW*%
X95330000Y-92180000D03*
%TO.P,SW1,S2,S2*%
%TO.N,GND*%
X100330000Y-92180000D03*
%TD*%
D21*
%TO.P,U7,*%
%TO.N,*%
X162441500Y-109740000D03*
X131961500Y-109740000D03*
X162441500Y-81240000D03*
X131961500Y-81240000D03*
D22*
%TO.P,U7,1,VCC*%
%TO.N,Net-(R2-Pad2)*%
X151051500Y-80740000D03*
%TO.P,U7,2,GND*%
%TO.N,GND*%
X148511500Y-80740000D03*
%TO.P,U7,3,SCL*%
%TO.N,OLED_SCL*%
X145971500Y-80740000D03*
%TO.P,U7,4,SDA*%
%TO.N,OLED_SDA*%
X143431500Y-80740000D03*
%TD*%
D23*
%TO.N,+3V3*%
X121666000Y-101092000D03*
X120282013Y-103194006D03*
X121412000Y-95758000D03*
X148082000Y-115316000D03*
X141224000Y-113039011D03*
X119634000Y-93980000D03*
%TO.N,Net-(BZ1-Pad2)*%
X121920000Y-106426000D03*
X127762000Y-99314000D03*
%TO.N,GND*%
X166370000Y-82804000D03*
X156464000Y-105918000D03*
X118110000Y-96774000D03*
X121666000Y-104394000D03*
X170434000Y-88900000D03*
X116078000Y-89662000D03*
X143256000Y-92964000D03*
X156972000Y-98044000D03*
%TO.N,VIN_MON*%
X150622000Y-98806000D03*
X133096000Y-96012000D03*
%TO.N,ENCODER_A*%
X101600000Y-101854000D03*
X104140000Y-108204000D03*
%TO.N,+24V*%
X167132000Y-96774000D03*
X168910000Y-101600000D03*
%TO.N,Net-(D1-Pad2)*%
X181356000Y-94742000D03*
X144018000Y-94742000D03*
%TO.N,Net-(J4-Pad2)*%
X116586000Y-102108000D03*
X107950000Y-110744000D03*
%TO.N,Net-(Q1-Pad4)*%
X159766000Y-95758000D03*
X168910000Y-105664000D03*
%TO.N,HEATER_ON*%
X158496000Y-99822000D03*
X131064000Y-98552000D03*
X140208000Y-103378000D03*
%TO.N,TIP_TEMP*%
X147828000Y-104102500D03*
X124968000Y-100076000D03*
X152908000Y-104140000D03*
X143002000Y-91440000D03*
%TO.N,Net-(R5-Pad2)*%
X152654000Y-95504000D03*
X160528000Y-102362000D03*
%TO.N,NTC*%
X184150000Y-107188000D03*
X130048000Y-99314000D03*
%TO.N,Net-(R14-Pad2)*%
X180848000Y-81280000D03*
X177800000Y-99822000D03*
%TO.N,SHAKE*%
X129032000Y-100838000D03*
X186944000Y-110236000D03*
%TO.N,Net-(U1-Pad3)*%
X118364000Y-102108000D03*
X116078000Y-104394000D03*
%TO.N,Net-(U1-Pad4)*%
X117602000Y-104902000D03*
X119634000Y-101346000D03*
%TO.N,EE_SCL*%
X122936000Y-97282000D03*
X135382000Y-89916000D03*
%TO.N,OLED_SDA*%
X123698000Y-87630000D03*
%TO.N,OLED_SCL*%
X122682000Y-88900000D03*
%TD*%
D24*
%TO.N,+3V3*%
X121666000Y-101092000D02*
X120282013Y-102475987D01*
X121412000Y-95758000D02*
X119634000Y-93980000D01*
X141224000Y-113039011D02*
X143500989Y-115316000D01*
X120282013Y-102475987D02*
X120282013Y-103194006D01*
X143500989Y-115316000D02*
X148082000Y-115316000D01*
%TO.N,Net-(BZ1-Pad2)*%
X121920000Y-106426000D02*
X127762000Y-100584000D01*
X127762000Y-100584000D02*
X127762000Y-99314000D01*
%TO.N,VIN_MON*%
X133096000Y-96012000D02*
X147828000Y-96012000D01*
X147828000Y-96012000D02*
X150622000Y-98806000D01*
%TO.N,ENCODER_A*%
X104140000Y-104394000D02*
X101600000Y-101854000D01*
X104140000Y-108204000D02*
X104140000Y-104394000D01*
%TO.N,+24V*%
X167132000Y-99822000D02*
X167132000Y-96774000D01*
X168910000Y-101600000D02*
X167132000Y-99822000D01*
%TO.N,Net-(D1-Pad2)*%
X144018000Y-94742000D02*
X181356000Y-94742000D01*
%TO.N,Net-(J4-Pad2)*%
X107950000Y-110744000D02*
X116586000Y-102108000D01*
%TO.N,Net-(Q1-Pad4)*%
X159766000Y-95758000D02*
X168910000Y-104902000D01*
X168910000Y-104902000D02*
X168910000Y-105664000D01*
%TO.N,HEATER_ON*%
X154940000Y-103378000D02*
X140208000Y-103378000D01*
X158496000Y-99822000D02*
X154940000Y-103378000D01*
X135890000Y-103378000D02*
X140208000Y-103378000D01*
X131064000Y-98552000D02*
X135890000Y-103378000D01*
%TO.N,TIP_TEMP*%
X124968000Y-100076000D02*
X125857717Y-100076000D01*
X134493717Y-91440000D02*
X143002000Y-91440000D01*
X125857717Y-100076000D02*
X134493717Y-91440000D01*
X147865500Y-104140000D02*
X147828000Y-104102500D01*
X152908000Y-104140000D02*
X147865500Y-104140000D01*
%TO.N,Net-(R5-Pad2)*%
X158467125Y-98768511D02*
X160528000Y-100829386D01*
X152654000Y-95504000D02*
X155918511Y-98768511D01*
X160528000Y-100829386D02*
X160528000Y-102362000D01*
X155918511Y-98768511D02*
X158467125Y-98768511D01*
%TO.N,NTC*%
X137899489Y-107165489D02*
X184127489Y-107165489D01*
X184127489Y-107165489D02*
X184150000Y-107188000D01*
X130048000Y-99314000D02*
X137899489Y-107165489D01*
%TO.N,Net-(R14-Pad2)*%
X182080511Y-82512511D02*
X180848000Y-81280000D01*
X177800000Y-99822000D02*
X182080511Y-95541489D01*
X182080511Y-95541489D02*
X182080511Y-82512511D01*
%TO.N,SHAKE*%
X140508511Y-112314511D02*
X184865489Y-112314511D01*
X129032000Y-100838000D02*
X140508511Y-112314511D01*
X184865489Y-112314511D02*
X186944000Y-110236000D01*
%TO.N,Net-(U1-Pad3)*%
X116078000Y-104394000D02*
X118364000Y-102108000D01*
%TO.N,Net-(U1-Pad4)*%
X117602000Y-104902000D02*
X119634000Y-102870000D01*
X119634000Y-102870000D02*
X119634000Y-101346000D01*
%TO.N,EE_SCL*%
X122936000Y-97282000D02*
X128016000Y-97282000D01*
X128016000Y-97282000D02*
X135382000Y-89916000D01*
%TO.N,OLED_SDA*%
X143431500Y-80740000D02*
X136541500Y-87630000D01*
X136541500Y-87630000D02*
X123698000Y-87630000D01*
%TO.N,OLED_SCL*%
X138065500Y-88646000D02*
X122936000Y-88646000D01*
X122936000Y-88646000D02*
X122682000Y-88900000D01*
X145971500Y-80740000D02*
X138065500Y-88646000D01*
%TD*%
%TA.AperFunction,Conductor*%
%TO.N,GND*%
G36*
X197308437Y-77998502D02*
G01*
X197354930Y-78052158D01*
X197365034Y-78122432D01*
X197335540Y-78187012D01*
X197308940Y-78210173D01*
X197210265Y-78274253D01*
X197204939Y-78278123D01*
X196966165Y-78471478D01*
X196957700Y-78483733D01*
X196964034Y-78494824D01*
X202174310Y-83705100D01*
X202187386Y-83712241D01*
X202197753Y-83704784D01*
X202391877Y-83465061D01*
X202395747Y-83459735D01*
X202459827Y-83361060D01*
X202513704Y-83314823D01*
X202584025Y-83305053D01*
X202648465Y-83334853D01*
X202686564Y-83394761D01*
X202691500Y-83429684D01*
X202691500Y-112150316D01*
X202671498Y-112218437D01*
X202617842Y-112264930D01*
X202547568Y-112275034D01*
X202482988Y-112245540D01*
X202459827Y-112218940D01*
X202395747Y-112120265D01*
X202391877Y-112114939D01*
X202198522Y-111876165D01*
X202186267Y-111867700D01*
X202175176Y-111874034D01*
X196964900Y-117084310D01*
X196957759Y-117097386D01*
X196965216Y-117107753D01*
X197204935Y-117301874D01*
X197210272Y-117305751D01*
X197308941Y-117369828D01*
X197355178Y-117423704D01*
X197364947Y-117494025D01*
X197335147Y-117558465D01*
X197275238Y-117596564D01*
X197240316Y-117601500D01*
X94859684Y-117601500D01*
X94791563Y-117581498D01*
X94745070Y-117527842D01*
X94734966Y-117457568D01*
X94764460Y-117392988D01*
X94791059Y-117369828D01*
X94889728Y-117305751D01*
X94895065Y-117301874D01*
X95133835Y-117108522D01*
X95142300Y-117096267D01*
X95135966Y-117085176D01*
X92351922Y-114301132D01*
X93074408Y-114301132D01*
X93074539Y-114302965D01*
X93078790Y-114309580D01*
X95494310Y-116725100D01*
X95507386Y-116732241D01*
X95517753Y-116724784D01*
X95711877Y-116485061D01*
X95715747Y-116479735D01*
X95923831Y-116159313D01*
X95927128Y-116153603D01*
X96100578Y-115813189D01*
X96103260Y-115807164D01*
X96240171Y-115450498D01*
X96242212Y-115444216D01*
X96335223Y-115097095D01*
X101512001Y-115097095D01*
X101512338Y-115103614D01*
X101522257Y-115199206D01*
X101525149Y-115212600D01*
X101576588Y-115366784D01*
X101582761Y-115379962D01*
X101668063Y-115517807D01*
X101677099Y-115529208D01*
X101791829Y-115643739D01*
X101803240Y-115652751D01*
X101941243Y-115737816D01*
X101954424Y-115743963D01*
X102108710Y-115795138D01*
X102122086Y-115798005D01*
X102216438Y-115807672D01*
X102222854Y-115808000D01*
X102597885Y-115808000D01*
X102613124Y-115803525D01*
X102614329Y-115802135D01*
X102616000Y-115794452D01*
X102616000Y-115789884D01*
X103124000Y-115789884D01*
X103128475Y-115805123D01*
X103129865Y-115806328D01*
X103137548Y-115807999D01*
X103517095Y-115807999D01*
X103523614Y-115807662D01*
X103619206Y-115797743D01*
X103632600Y-115794851D01*
X103786784Y-115743412D01*
X103799962Y-115737239D01*
X103937807Y-115651937D01*
X103949208Y-115642901D01*
X104063739Y-115528171D01*
X104072753Y-115516757D01*
X104158723Y-115377287D01*
X104211495Y-115329793D01*
X104281566Y-115318369D01*
X104346690Y-115346643D01*
X104357149Y-115356426D01*
X104466576Y-115471135D01*
X104651542Y-115608754D01*
X104656293Y-115611170D01*
X104656297Y-115611172D01*
X104718586Y-115642841D01*
X104857051Y-115713240D01*
X104862145Y-115714822D01*
X104862148Y-115714823D01*
X105038697Y-115769643D01*
X105077227Y-115781607D01*
X105082516Y-115782308D01*
X105300489Y-115811198D01*
X105300494Y-115811198D01*
X105305774Y-115811898D01*
X105311103Y-115811698D01*
X105311105Y-115811698D01*
X105431874Y-115807164D01*
X105536158Y-115803249D01*
X105541468Y-115802135D01*
X105648974Y-115779578D01*
X105761791Y-115755907D01*
X105766750Y-115753949D01*
X105766752Y-115753948D01*
X105971256Y-115673185D01*
X105971258Y-115673184D01*
X105976221Y-115671224D01*
X106012343Y-115649305D01*
X106168757Y-115554390D01*
X106168756Y-115554390D01*
X106173317Y-115551623D01*
X106252311Y-115483076D01*
X106343412Y-115404023D01*
X106343414Y-115404021D01*
X106347445Y-115400523D01*
X106411367Y-115322565D01*
X106490240Y-115226373D01*
X106490244Y-115226367D01*
X106493624Y-115222245D01*
X106499115Y-115212600D01*
X106562982Y-115100400D01*
X111671500Y-115100400D01*
X111671837Y-115103646D01*
X111671837Y-115103650D01*
X111681752Y-115199206D01*
X111682474Y-115206166D01*
X111684655Y-115212702D01*
X111684655Y-115212704D01*
X111721308Y-115322565D01*
X111738450Y-115373946D01*
X111831522Y-115524348D01*
X111956697Y-115649305D01*
X111962927Y-115653145D01*
X111962928Y-115653146D01*
X112100288Y-115737816D01*
X112107262Y-115742115D01*
X112142938Y-115753948D01*
X112268611Y-115795632D01*
X112268613Y-115795632D01*
X112275139Y-115797797D01*
X112281975Y-115798497D01*
X112281978Y-115798498D01*
X112317663Y-115802154D01*
X112379600Y-115808500D01*
X113680400Y-115808500D01*
X113683646Y-115808163D01*
X113683650Y-115808163D01*
X113779308Y-115798238D01*
X113779312Y-115798237D01*
X113786166Y-115797526D01*
X113792702Y-115795345D01*
X113792704Y-115795345D01*
X113924806Y-115751272D01*
X113953946Y-115741550D01*
X114104348Y-115648478D01*
X114229305Y-115523303D01*
X114319081Y-115377660D01*
X114371852Y-115330168D01*
X114441924Y-115318744D01*
X114507048Y-115347018D01*
X114517510Y-115356805D01*
X114559215Y-115400523D01*
X114626576Y-115471135D01*
X114811542Y-115608754D01*
X114816293Y-115611170D01*
X114816297Y-115611172D01*
X114878586Y-115642841D01*
X115017051Y-115713240D01*
X115022145Y-115714822D01*
X115022148Y-115714823D01*
X115198697Y-115769643D01*
X115237227Y-115781607D01*
X115242516Y-115782308D01*
X115460489Y-115811198D01*
X115460494Y-115811198D01*
X115465774Y-115811898D01*
X115471103Y-115811698D01*
X115471105Y-115811698D01*
X115591874Y-115807164D01*
X115696158Y-115803249D01*
X115701468Y-115802135D01*
X115808974Y-115779578D01*
X115921791Y-115755907D01*
X115926750Y-115753949D01*
X115926752Y-115753948D01*
X116131256Y-115673185D01*
X116131258Y-115673184D01*
X116136221Y-115671224D01*
X116172343Y-115649305D01*
X116328757Y-115554390D01*
X116328756Y-115554390D01*
X116333317Y-115551623D01*
X116412311Y-115483076D01*
X116503412Y-115404023D01*
X116503414Y-115404021D01*
X116507445Y-115400523D01*
X116571367Y-115322565D01*
X116650240Y-115226373D01*
X116650244Y-115226367D01*
X116653624Y-115222245D01*
X116659115Y-115212600D01*
X116765032Y-115026529D01*
X116767675Y-115021886D01*
X116846337Y-114805175D01*
X116866916Y-114691371D01*
X116886623Y-114582392D01*
X116886624Y-114582385D01*
X116887361Y-114578308D01*
X116888500Y-114554156D01*
X116888500Y-114092110D01*
X116876114Y-113946139D01*
X116874371Y-113925591D01*
X116874370Y-113925587D01*
X116873920Y-113920280D01*
X116872582Y-113915125D01*
X116872581Y-113915119D01*
X116817343Y-113702297D01*
X116817342Y-113702293D01*
X116816001Y-113697128D01*
X116721312Y-113486925D01*
X116592559Y-113295681D01*
X116533918Y-113234209D01*
X116504725Y-113203608D01*
X116433424Y-113128865D01*
X116248458Y-112991246D01*
X116243707Y-112988830D01*
X116243703Y-112988828D01*
X116101850Y-112916707D01*
X116042949Y-112886760D01*
X116037855Y-112885178D01*
X116037852Y-112885177D01*
X115827871Y-112819976D01*
X115822773Y-112818393D01*
X115817484Y-112817692D01*
X115599511Y-112788802D01*
X115599506Y-112788802D01*
X115594226Y-112788102D01*
X115588897Y-112788302D01*
X115588895Y-112788302D01*
X115490368Y-112792001D01*
X115363842Y-112796751D01*
X115358623Y-112797846D01*
X115337600Y-112802257D01*
X115138209Y-112844093D01*
X115133250Y-112846051D01*
X115133248Y-112846052D01*
X114928744Y-112926815D01*
X114928742Y-112926816D01*
X114923779Y-112928776D01*
X114919220Y-112931543D01*
X114919217Y-112931544D01*
X114820832Y-112991246D01*
X114726683Y-113048377D01*
X114722653Y-113051874D01*
X114629484Y-113132722D01*
X114552555Y-113199477D01*
X114523330Y-113235120D01*
X114464671Y-113275114D01*
X114393701Y-113277046D01*
X114332952Y-113240302D01*
X114318752Y-113221532D01*
X114232332Y-113081880D01*
X114228478Y-113075652D01*
X114103303Y-112950695D01*
X114097072Y-112946854D01*
X113958968Y-112861725D01*
X113958966Y-112861724D01*
X113952738Y-112857885D01*
X113847837Y-112823091D01*
X113791389Y-112804368D01*
X113791387Y-112804368D01*
X113784861Y-112802203D01*
X113778025Y-112801503D01*
X113778022Y-112801502D01*
X113731757Y-112796762D01*
X113680400Y-112791500D01*
X112379600Y-112791500D01*
X112376354Y-112791837D01*
X112376350Y-112791837D01*
X112280692Y-112801762D01*
X112280688Y-112801763D01*
X112273834Y-112802474D01*
X112267298Y-112804655D01*
X112267296Y-112804655D01*
X112176588Y-112834918D01*
X112106054Y-112858450D01*
X111955652Y-112951522D01*
X111830695Y-113076697D01*
X111826855Y-113082927D01*
X111826854Y-113082928D01*
X111752466Y-113203608D01*
X111737885Y-113227262D01*
X111682203Y-113395139D01*
X111671500Y-113499600D01*
X111671500Y-115100400D01*
X106562982Y-115100400D01*
X106605032Y-115026529D01*
X106607675Y-115021886D01*
X106686337Y-114805175D01*
X106706916Y-114691371D01*
X106726623Y-114582392D01*
X106726624Y-114582385D01*
X106727361Y-114578308D01*
X106728500Y-114554156D01*
X106728500Y-114092110D01*
X106716114Y-113946139D01*
X106714371Y-113925591D01*
X106714370Y-113925587D01*
X106713920Y-113920280D01*
X106712582Y-113915125D01*
X106712581Y-113915119D01*
X106657343Y-113702297D01*
X106657342Y-113702293D01*
X106656001Y-113697128D01*
X106561312Y-113486925D01*
X106432559Y-113295681D01*
X106373918Y-113234209D01*
X106344725Y-113203608D01*
X106273424Y-113128865D01*
X106088458Y-112991246D01*
X106083707Y-112988830D01*
X106083703Y-112988828D01*
X105941850Y-112916707D01*
X105882949Y-112886760D01*
X105877855Y-112885178D01*
X105877852Y-112885177D01*
X105667871Y-112819976D01*
X105662773Y-112818393D01*
X105657484Y-112817692D01*
X105439511Y-112788802D01*
X105439506Y-112788802D01*
X105434226Y-112788102D01*
X105428897Y-112788302D01*
X105428895Y-112788302D01*
X105330368Y-112792001D01*
X105203842Y-112796751D01*
X105198623Y-112797846D01*
X105177600Y-112802257D01*
X104978209Y-112844093D01*
X104973250Y-112846051D01*
X104973248Y-112846052D01*
X104768744Y-112926815D01*
X104768742Y-112926816D01*
X104763779Y-112928776D01*
X104759220Y-112931543D01*
X104759217Y-112931544D01*
X104660832Y-112991246D01*
X104566683Y-113048377D01*
X104562653Y-113051874D01*
X104469484Y-113132722D01*
X104392555Y-113199477D01*
X104389168Y-113203608D01*
X104362994Y-113235529D01*
X104304334Y-113275524D01*
X104233364Y-113277455D01*
X104172616Y-113240710D01*
X104158416Y-113221941D01*
X104071937Y-113082193D01*
X104062901Y-113070792D01*
X103948171Y-112956261D01*
X103936760Y-112947249D01*
X103798757Y-112862184D01*
X103785576Y-112856037D01*
X103631290Y-112804862D01*
X103617914Y-112801995D01*
X103523562Y-112792328D01*
X103517145Y-112792000D01*
X103142115Y-112792000D01*
X103126876Y-112796475D01*
X103125671Y-112797865D01*
X103124000Y-112805548D01*
X103124000Y-115789884D01*
X102616000Y-115789884D01*
X102616000Y-114572115D01*
X102611525Y-114556876D01*
X102610135Y-114555671D01*
X102602452Y-114554000D01*
X101530116Y-114554000D01*
X101514877Y-114558475D01*
X101513672Y-114559865D01*
X101512001Y-114567548D01*
X101512001Y-115097095D01*
X96335223Y-115097095D01*
X96341094Y-115075184D01*
X96342465Y-115068734D01*
X96402234Y-114691371D01*
X96402920Y-114684833D01*
X96422916Y-114303301D01*
X96422916Y-114296699D01*
X96408828Y-114027885D01*
X101512000Y-114027885D01*
X101516475Y-114043124D01*
X101517865Y-114044329D01*
X101525548Y-114046000D01*
X102597885Y-114046000D01*
X102613124Y-114041525D01*
X102614329Y-114040135D01*
X102616000Y-114032452D01*
X102616000Y-112810116D01*
X102611525Y-112794877D01*
X102610135Y-112793672D01*
X102602452Y-112792001D01*
X102222905Y-112792001D01*
X102216386Y-112792338D01*
X102120794Y-112802257D01*
X102107400Y-112805149D01*
X101953216Y-112856588D01*
X101940038Y-112862761D01*
X101802193Y-112948063D01*
X101790792Y-112957099D01*
X101676261Y-113071829D01*
X101667249Y-113083240D01*
X101582184Y-113221243D01*
X101576037Y-113234424D01*
X101524862Y-113388710D01*
X101521995Y-113402086D01*
X101512328Y-113496438D01*
X101512000Y-113502855D01*
X101512000Y-114027885D01*
X96408828Y-114027885D01*
X96402920Y-113915167D01*
X96402234Y-113908629D01*
X96342465Y-113531266D01*
X96341094Y-113524816D01*
X96242212Y-113155784D01*
X96240171Y-113149502D01*
X96103260Y-112792836D01*
X96100578Y-112786811D01*
X95927128Y-112446397D01*
X95923831Y-112440687D01*
X95715747Y-112120265D01*
X95711877Y-112114939D01*
X95518522Y-111876165D01*
X95506267Y-111867700D01*
X95495176Y-111874034D01*
X93082022Y-114287188D01*
X93074408Y-114301132D01*
X92351922Y-114301132D01*
X89925690Y-111874900D01*
X89912614Y-111867759D01*
X89902247Y-111875216D01*
X89708123Y-112114939D01*
X89704253Y-112120265D01*
X89640173Y-112218940D01*
X89586296Y-112265177D01*
X89515975Y-112274947D01*
X89451535Y-112245147D01*
X89413436Y-112185239D01*
X89408500Y-112150316D01*
X89408500Y-111503733D01*
X90277700Y-111503733D01*
X90284034Y-111514824D01*
X92697188Y-113927978D01*
X92711132Y-113935592D01*
X92712965Y-113935461D01*
X92719580Y-113931210D01*
X95135100Y-111515690D01*
X95142241Y-111502614D01*
X95134784Y-111492247D01*
X94895065Y-111298126D01*
X94889728Y-111294249D01*
X94569315Y-111086170D01*
X94563606Y-111082873D01*
X94223189Y-110909422D01*
X94217164Y-110906740D01*
X93860498Y-110769829D01*
X93854216Y-110767788D01*
X93765438Y-110744000D01*
X107036496Y-110744000D01*
X107037186Y-110750565D01*
X107054863Y-110918749D01*
X107056458Y-110933928D01*
X107115473Y-111115556D01*
X107210960Y-111280944D01*
X107338747Y-111422866D01*
X107493248Y-111535118D01*
X107499276Y-111537802D01*
X107499278Y-111537803D01*
X107655491Y-111607353D01*
X107667712Y-111612794D01*
X107761113Y-111632647D01*
X107848056Y-111651128D01*
X107848061Y-111651128D01*
X107854513Y-111652500D01*
X108045487Y-111652500D01*
X108051939Y-111651128D01*
X108051944Y-111651128D01*
X108138887Y-111632647D01*
X108232288Y-111612794D01*
X108244509Y-111607353D01*
X108400722Y-111537803D01*
X108400724Y-111537802D01*
X108406752Y-111535118D01*
X108561253Y-111422866D01*
X108689040Y-111280944D01*
X108784527Y-111115556D01*
X108843542Y-110933928D01*
X108845138Y-110918749D01*
X108860462Y-110772944D01*
X108860907Y-110768706D01*
X108887920Y-110703050D01*
X108897122Y-110692782D01*
X109878843Y-109711061D01*
X129198110Y-109711061D01*
X129214647Y-110043255D01*
X129215288Y-110046986D01*
X129215289Y-110046994D01*
X129270229Y-110366721D01*
X129270974Y-110371057D01*
X129272062Y-110374696D01*
X129272063Y-110374699D01*
X129339823Y-110601271D01*
X129366274Y-110689718D01*
X129367787Y-110693189D01*
X129367789Y-110693195D01*
X129404687Y-110777852D01*
X129499166Y-110994622D01*
X129501089Y-110997893D01*
X129501091Y-110997897D01*
X129551046Y-111082873D01*
X129667726Y-111281352D01*
X129670027Y-111284367D01*
X129867212Y-111542742D01*
X129867217Y-111542748D01*
X129869512Y-111545755D01*
X129872156Y-111548469D01*
X130001273Y-111681011D01*
X130101602Y-111784002D01*
X130360632Y-111992640D01*
X130442535Y-112043719D01*
X130613458Y-112150316D01*
X130642852Y-112168648D01*
X130944172Y-112309476D01*
X131260229Y-112413085D01*
X131586444Y-112477973D01*
X131590216Y-112478260D01*
X131590224Y-112478261D01*
X131914315Y-112502914D01*
X131914320Y-112502914D01*
X131918092Y-112503201D01*
X132250369Y-112488403D01*
X132254901Y-112487649D01*
X132574720Y-112434417D01*
X132574725Y-112434416D01*
X132578461Y-112433794D01*
X132897616Y-112340164D01*
X132901083Y-112338674D01*
X132901087Y-112338673D01*
X133199728Y-112210366D01*
X133199730Y-112210365D01*
X133203212Y-112208869D01*
X133490821Y-112041813D01*
X133493843Y-112039532D01*
X133493847Y-112039529D01*
X133753253Y-111843697D01*
X133753254Y-111843696D01*
X133756277Y-111841414D01*
X133960952Y-111644106D01*
X133993008Y-111613204D01*
X133993009Y-111613203D01*
X133995735Y-111610575D01*
X134205727Y-111352641D01*
X134313769Y-111181405D01*
X134381183Y-111074560D01*
X134381185Y-111074557D01*
X134383210Y-111071347D01*
X134451424Y-110927365D01*
X134523985Y-110774205D01*
X134525614Y-110770767D01*
X134536735Y-110737435D01*
X134595720Y-110560635D01*
X134630877Y-110455257D01*
X134697472Y-110129386D01*
X134724436Y-109797875D01*
X134725042Y-109740000D01*
X134723526Y-109714853D01*
X134705255Y-109411772D01*
X134705254Y-109411765D01*
X134705027Y-109407997D01*
X134651059Y-109112500D01*
X134645951Y-109084530D01*
X134645950Y-109084525D01*
X134645270Y-109080803D01*
X134643210Y-109074166D01*
X134547761Y-108766771D01*
X134546639Y-108763157D01*
X134410561Y-108459662D01*
X134260592Y-108210565D01*
X134240966Y-108177966D01*
X134240962Y-108177960D01*
X134239007Y-108174713D01*
X134236680Y-108171729D01*
X134236675Y-108171722D01*
X134036794Y-107915425D01*
X134036788Y-107915418D01*
X134034463Y-107912437D01*
X133799892Y-107676634D01*
X133538691Y-107470720D01*
X133254644Y-107297677D01*
X133068929Y-107213237D01*
X132955317Y-107161580D01*
X132955309Y-107161577D01*
X132951865Y-107160011D01*
X132634740Y-107059718D01*
X132341823Y-107004635D01*
X132311587Y-106998949D01*
X132311585Y-106998949D01*
X132307864Y-106998249D01*
X131975970Y-106976496D01*
X131972190Y-106976704D01*
X131972189Y-106976704D01*
X131874418Y-106982085D01*
X131643866Y-106994773D01*
X131640139Y-106995434D01*
X131640135Y-106995434D01*
X131381010Y-107041358D01*
X131316364Y-107052815D01*
X131312739Y-107053920D01*
X131312734Y-107053921D01*
X131145580Y-107104866D01*
X130998207Y-107149782D01*
X130994743Y-107151313D01*
X130994736Y-107151316D01*
X130854674Y-107213237D01*
X130694003Y-107284269D01*
X130690749Y-107286205D01*
X130690743Y-107286208D01*
X130411418Y-107452389D01*
X130408159Y-107454328D01*
X130405158Y-107456643D01*
X130405154Y-107456646D01*
X130320730Y-107521779D01*
X130144816Y-107657496D01*
X130142117Y-107660152D01*
X130142118Y-107660152D01*
X129932198Y-107866800D01*
X129907788Y-107890829D01*
X129798291Y-108028240D01*
X129727774Y-108116734D01*
X129700509Y-108150949D01*
X129525981Y-108434086D01*
X129386732Y-108736140D01*
X129385573Y-108739740D01*
X129385570Y-108739747D01*
X129285942Y-109049126D01*
X129284780Y-109052735D01*
X129284061Y-109056451D01*
X129284059Y-109056459D01*
X129222319Y-109375567D01*
X129221600Y-109379285D01*
X129221333Y-109383061D01*
X129221332Y-109383066D01*
X129216681Y-109448763D01*
X129198110Y-109711061D01*
X109878843Y-109711061D01*
X113163904Y-106426000D01*
X121006496Y-106426000D01*
X121007186Y-106432565D01*
X121015107Y-106507925D01*
X121026458Y-106615928D01*
X121085473Y-106797556D01*
X121180960Y-106962944D01*
X121185378Y-106967851D01*
X121185379Y-106967852D01*
X121269127Y-107060864D01*
X121308747Y-107104866D01*
X121372680Y-107151316D01*
X121432207Y-107194565D01*
X121463248Y-107217118D01*
X121469276Y-107219802D01*
X121469278Y-107219803D01*
X121610631Y-107282737D01*
X121637712Y-107294794D01*
X121731113Y-107314647D01*
X121818056Y-107333128D01*
X121818061Y-107333128D01*
X121824513Y-107334500D01*
X122015487Y-107334500D01*
X122021939Y-107333128D01*
X122021944Y-107333128D01*
X122108887Y-107314647D01*
X122202288Y-107294794D01*
X122229369Y-107282737D01*
X122370722Y-107219803D01*
X122370724Y-107219802D01*
X122376752Y-107217118D01*
X122407794Y-107194565D01*
X122467320Y-107151316D01*
X122531253Y-107104866D01*
X122570873Y-107060864D01*
X122654621Y-106967852D01*
X122654622Y-106967851D01*
X122659040Y-106962944D01*
X122754527Y-106797556D01*
X122813542Y-106615928D01*
X122830907Y-106450706D01*
X122857920Y-106385050D01*
X122867122Y-106374782D01*
X128020922Y-101220982D01*
X128083234Y-101186956D01*
X128154049Y-101192021D01*
X128210885Y-101234568D01*
X128219134Y-101247075D01*
X128292960Y-101374944D01*
X128297378Y-101379851D01*
X128297379Y-101379852D01*
X128416325Y-101511955D01*
X128420747Y-101516866D01*
X128488578Y-101566148D01*
X128544207Y-101606565D01*
X128575248Y-101629118D01*
X128581276Y-101631802D01*
X128581278Y-101631803D01*
X128743681Y-101704109D01*
X128749712Y-101706794D01*
X128843112Y-101726647D01*
X128930056Y-101745128D01*
X128930061Y-101745128D01*
X128936513Y-101746500D01*
X128992406Y-101746500D01*
X129060527Y-101766502D01*
X129081501Y-101783405D01*
X140004854Y-112706758D01*
X140012398Y-112715048D01*
X140016511Y-112721529D01*
X140022288Y-112726954D01*
X140066178Y-112768169D01*
X140069020Y-112770924D01*
X140088742Y-112790646D01*
X140091866Y-112793069D01*
X140091870Y-112793073D01*
X140091935Y-112793123D01*
X140100956Y-112800828D01*
X140133190Y-112831097D01*
X140140138Y-112834916D01*
X140140140Y-112834918D01*
X140150943Y-112840857D01*
X140167470Y-112851713D01*
X140177209Y-112859268D01*
X140177211Y-112859269D01*
X140183471Y-112864125D01*
X140224051Y-112881685D01*
X140234702Y-112886904D01*
X140248114Y-112894278D01*
X140298171Y-112944625D01*
X140312719Y-113017860D01*
X140310496Y-113039011D01*
X140311186Y-113045576D01*
X140329680Y-113221532D01*
X140330458Y-113228939D01*
X140389473Y-113410567D01*
X140484960Y-113575955D01*
X140489378Y-113580862D01*
X140489379Y-113580863D01*
X140598719Y-113702297D01*
X140612747Y-113717877D01*
X140767248Y-113830129D01*
X140773276Y-113832813D01*
X140773278Y-113832814D01*
X140935681Y-113905120D01*
X140941712Y-113907805D01*
X141025388Y-113925591D01*
X141122056Y-113946139D01*
X141122061Y-113946139D01*
X141128513Y-113947511D01*
X141184406Y-113947511D01*
X141252527Y-113967513D01*
X141273501Y-113984416D01*
X142997337Y-115708253D01*
X143004877Y-115716539D01*
X143008989Y-115723018D01*
X143014766Y-115728443D01*
X143058640Y-115769643D01*
X143061482Y-115772398D01*
X143081219Y-115792135D01*
X143084416Y-115794615D01*
X143093436Y-115802318D01*
X143125668Y-115832586D01*
X143132614Y-115836405D01*
X143132617Y-115836407D01*
X143143423Y-115842348D01*
X143159942Y-115853199D01*
X143175948Y-115865614D01*
X143183217Y-115868759D01*
X143183221Y-115868762D01*
X143216526Y-115883174D01*
X143227176Y-115888391D01*
X143265929Y-115909695D01*
X143273604Y-115911666D01*
X143273605Y-115911666D01*
X143285551Y-115914733D01*
X143304256Y-115921137D01*
X143322844Y-115929181D01*
X143330667Y-115930420D01*
X143330677Y-115930423D01*
X143366513Y-115936099D01*
X143378133Y-115938505D01*
X143413278Y-115947528D01*
X143420959Y-115949500D01*
X143441213Y-115949500D01*
X143460923Y-115951051D01*
X143480932Y-115954220D01*
X143488824Y-115953474D01*
X143524950Y-115950059D01*
X143536808Y-115949500D01*
X147373800Y-115949500D01*
X147441921Y-115969502D01*
X147461147Y-115985843D01*
X147461420Y-115985540D01*
X147466332Y-115989963D01*
X147470747Y-115994866D01*
X147625248Y-116107118D01*
X147631276Y-116109802D01*
X147631278Y-116109803D01*
X147742480Y-116159313D01*
X147799712Y-116184794D01*
X147893112Y-116204647D01*
X147980056Y-116223128D01*
X147980061Y-116223128D01*
X147986513Y-116224500D01*
X148177487Y-116224500D01*
X148183939Y-116223128D01*
X148183944Y-116223128D01*
X148270888Y-116204647D01*
X148364288Y-116184794D01*
X148421520Y-116159313D01*
X148532722Y-116109803D01*
X148532724Y-116109802D01*
X148538752Y-116107118D01*
X148693253Y-115994866D01*
X148729851Y-115954220D01*
X148816621Y-115857852D01*
X148816622Y-115857851D01*
X148821040Y-115852944D01*
X148885027Y-115742115D01*
X148913223Y-115693279D01*
X148913224Y-115693278D01*
X148916527Y-115687556D01*
X148975542Y-115505928D01*
X148978316Y-115479541D01*
X148994814Y-115322565D01*
X148995504Y-115316000D01*
X148985650Y-115222245D01*
X148976232Y-115132635D01*
X148976232Y-115132633D01*
X148975542Y-115126072D01*
X148916527Y-114944444D01*
X148821040Y-114779056D01*
X148693253Y-114637134D01*
X148538752Y-114524882D01*
X148532724Y-114522198D01*
X148532722Y-114522197D01*
X148370319Y-114449891D01*
X148370318Y-114449891D01*
X148364288Y-114447206D01*
X148270887Y-114427353D01*
X148183944Y-114408872D01*
X148183939Y-114408872D01*
X148177487Y-114407500D01*
X147986513Y-114407500D01*
X147980061Y-114408872D01*
X147980056Y-114408872D01*
X147893113Y-114427353D01*
X147799712Y-114447206D01*
X147793682Y-114449891D01*
X147793681Y-114449891D01*
X147631278Y-114522197D01*
X147631276Y-114522198D01*
X147625248Y-114524882D01*
X147619907Y-114528762D01*
X147619906Y-114528763D01*
X147492329Y-114621454D01*
X147470747Y-114637134D01*
X147466332Y-114642037D01*
X147461420Y-114646460D01*
X147460295Y-114645211D01*
X147406986Y-114678051D01*
X147373800Y-114682500D01*
X143815583Y-114682500D01*
X143747462Y-114662498D01*
X143726488Y-114645595D01*
X143384194Y-114303301D01*
X195677084Y-114303301D01*
X195697080Y-114684833D01*
X195697766Y-114691371D01*
X195757535Y-115068734D01*
X195758906Y-115075184D01*
X195857788Y-115444216D01*
X195859829Y-115450498D01*
X195996740Y-115807164D01*
X195999422Y-115813189D01*
X196172872Y-116153603D01*
X196176169Y-116159313D01*
X196384253Y-116479735D01*
X196388123Y-116485061D01*
X196581478Y-116723835D01*
X196593733Y-116732300D01*
X196604824Y-116725966D01*
X199017978Y-114312812D01*
X199025592Y-114298868D01*
X199025461Y-114297035D01*
X199021210Y-114290420D01*
X196605690Y-111874900D01*
X196592614Y-111867759D01*
X196582247Y-111875216D01*
X196388123Y-112114939D01*
X196384253Y-112120265D01*
X196176169Y-112440687D01*
X196172872Y-112446397D01*
X195999422Y-112786811D01*
X195996740Y-112792836D01*
X195859829Y-113149502D01*
X195857788Y-113155784D01*
X195758906Y-113524816D01*
X195757535Y-113531266D01*
X195697766Y-113908629D01*
X195697080Y-113915167D01*
X195677084Y-114296699D01*
X195677084Y-114303301D01*
X143384194Y-114303301D01*
X142244000Y-113163106D01*
X142209974Y-113100794D01*
X142215039Y-113029978D01*
X142257586Y-112973143D01*
X142324106Y-112948332D01*
X142333095Y-112948011D01*
X184786722Y-112948011D01*
X184797905Y-112948538D01*
X184805398Y-112950213D01*
X184813324Y-112949964D01*
X184813325Y-112949964D01*
X184873475Y-112948073D01*
X184877434Y-112948011D01*
X184905345Y-112948011D01*
X184909280Y-112947514D01*
X184909345Y-112947506D01*
X184921182Y-112946573D01*
X184953440Y-112945559D01*
X184957459Y-112945433D01*
X184965378Y-112945184D01*
X184984832Y-112939532D01*
X185004189Y-112935524D01*
X185016419Y-112933979D01*
X185016420Y-112933979D01*
X185024286Y-112932985D01*
X185031657Y-112930066D01*
X185031659Y-112930066D01*
X185065401Y-112916707D01*
X185076631Y-112912862D01*
X185111472Y-112902740D01*
X185111473Y-112902740D01*
X185119082Y-112900529D01*
X185125901Y-112896496D01*
X185125906Y-112896494D01*
X185136517Y-112890218D01*
X185154265Y-112881523D01*
X185173106Y-112874063D01*
X185189289Y-112862306D01*
X185208876Y-112848075D01*
X185218796Y-112841559D01*
X185250024Y-112823091D01*
X185250027Y-112823089D01*
X185256851Y-112819053D01*
X185271172Y-112804732D01*
X185286206Y-112791891D01*
X185287920Y-112790646D01*
X185302596Y-112779983D01*
X185330787Y-112745906D01*
X185338777Y-112737127D01*
X186572171Y-111503733D01*
X196957700Y-111503733D01*
X196964034Y-111514824D01*
X199377188Y-113927978D01*
X199391132Y-113935592D01*
X199392965Y-113935461D01*
X199399580Y-113931210D01*
X201815100Y-111515690D01*
X201822241Y-111502614D01*
X201814784Y-111492247D01*
X201575065Y-111298126D01*
X201569728Y-111294249D01*
X201249315Y-111086170D01*
X201243606Y-111082873D01*
X200903189Y-110909422D01*
X200897164Y-110906740D01*
X200540498Y-110769829D01*
X200534216Y-110767788D01*
X200165184Y-110668906D01*
X200158734Y-110667535D01*
X199781371Y-110607766D01*
X199774833Y-110607080D01*
X199393301Y-110587084D01*
X199386699Y-110587084D01*
X199005167Y-110607080D01*
X198998629Y-110607766D01*
X198621266Y-110667535D01*
X198614816Y-110668906D01*
X198245784Y-110767788D01*
X198239502Y-110769829D01*
X197882836Y-110906740D01*
X197876811Y-110909422D01*
X197536397Y-111082872D01*
X197530687Y-111086169D01*
X197210265Y-111294253D01*
X197204939Y-111298123D01*
X196966165Y-111491478D01*
X196957700Y-111503733D01*
X186572171Y-111503733D01*
X186894499Y-111181405D01*
X186956811Y-111147379D01*
X186983594Y-111144500D01*
X187039487Y-111144500D01*
X187045939Y-111143128D01*
X187045944Y-111143128D01*
X187132888Y-111124647D01*
X187226288Y-111104794D01*
X187232319Y-111102109D01*
X187394722Y-111029803D01*
X187394724Y-111029802D01*
X187400752Y-111027118D01*
X187555253Y-110914866D01*
X187683040Y-110772944D01*
X187778527Y-110607556D01*
X187837542Y-110425928D01*
X187857504Y-110236000D01*
X187840062Y-110070045D01*
X187838232Y-110052635D01*
X187838232Y-110052633D01*
X187837542Y-110046072D01*
X187778527Y-109864444D01*
X187683040Y-109699056D01*
X187555253Y-109557134D01*
X187400752Y-109444882D01*
X187394724Y-109442198D01*
X187394722Y-109442197D01*
X187232319Y-109369891D01*
X187232318Y-109369891D01*
X187226288Y-109367206D01*
X187132888Y-109347353D01*
X187045944Y-109328872D01*
X187045939Y-109328872D01*
X187039487Y-109327500D01*
X186848513Y-109327500D01*
X186842061Y-109328872D01*
X186842056Y-109328872D01*
X186755113Y-109347353D01*
X186661712Y-109367206D01*
X186655682Y-109369891D01*
X186655681Y-109369891D01*
X186493278Y-109442197D01*
X186493276Y-109442198D01*
X186487248Y-109444882D01*
X186332747Y-109557134D01*
X186204960Y-109699056D01*
X186109473Y-109864444D01*
X186050458Y-110046072D01*
X186049768Y-110052633D01*
X186049768Y-110052635D01*
X186033093Y-110211292D01*
X186006080Y-110276949D01*
X185996878Y-110287217D01*
X184639989Y-111644106D01*
X184577677Y-111678132D01*
X184550894Y-111681011D01*
X164683448Y-111681011D01*
X164615327Y-111661009D01*
X164568834Y-111607353D01*
X164558730Y-111537079D01*
X164585736Y-111475460D01*
X164628555Y-111422866D01*
X164685727Y-111352641D01*
X164793769Y-111181405D01*
X164861183Y-111074560D01*
X164861185Y-111074557D01*
X164863210Y-111071347D01*
X164931424Y-110927365D01*
X165003985Y-110774205D01*
X165005614Y-110770767D01*
X165016735Y-110737435D01*
X165075720Y-110560635D01*
X165110877Y-110455257D01*
X165177472Y-110129386D01*
X165204436Y-109797875D01*
X165205042Y-109740000D01*
X165203526Y-109714853D01*
X165185255Y-109411772D01*
X165185254Y-109411765D01*
X165185027Y-109407997D01*
X165131059Y-109112500D01*
X165125951Y-109084530D01*
X165125950Y-109084525D01*
X165125270Y-109080803D01*
X165123210Y-109074166D01*
X165027761Y-108766771D01*
X165026639Y-108763157D01*
X164890561Y-108459662D01*
X164740592Y-108210565D01*
X164720966Y-108177966D01*
X164720962Y-108177960D01*
X164719007Y-108174713D01*
X164716680Y-108171729D01*
X164716675Y-108171722D01*
X164584683Y-108002476D01*
X164558563Y-107936458D01*
X164572281Y-107866800D01*
X164621482Y-107815616D01*
X164684040Y-107798989D01*
X183421531Y-107798989D01*
X183489652Y-107818991D01*
X183515167Y-107840678D01*
X183538747Y-107866866D01*
X183546704Y-107872647D01*
X183630999Y-107933891D01*
X183693248Y-107979118D01*
X183699276Y-107981802D01*
X183699278Y-107981803D01*
X183837316Y-108043261D01*
X183867712Y-108056794D01*
X183961113Y-108076647D01*
X184048056Y-108095128D01*
X184048061Y-108095128D01*
X184054513Y-108096500D01*
X184245487Y-108096500D01*
X184251939Y-108095128D01*
X184251944Y-108095128D01*
X184338887Y-108076647D01*
X184432288Y-108056794D01*
X184462684Y-108043261D01*
X184600722Y-107981803D01*
X184600724Y-107981802D01*
X184606752Y-107979118D01*
X184761253Y-107866866D01*
X184818120Y-107803709D01*
X184884621Y-107729852D01*
X184884622Y-107729851D01*
X184889040Y-107724944D01*
X184968409Y-107587474D01*
X184981223Y-107565279D01*
X184981224Y-107565278D01*
X184984527Y-107559556D01*
X185043542Y-107377928D01*
X185044695Y-107366963D01*
X185062814Y-107194565D01*
X185063504Y-107188000D01*
X185058751Y-107142782D01*
X185044232Y-107004635D01*
X185044232Y-107004633D01*
X185043542Y-106998072D01*
X184984527Y-106816444D01*
X184889040Y-106651056D01*
X184863064Y-106622206D01*
X184765675Y-106514045D01*
X184765674Y-106514044D01*
X184761253Y-106509134D01*
X184646829Y-106426000D01*
X184612094Y-106400763D01*
X184612093Y-106400762D01*
X184606752Y-106396882D01*
X184600724Y-106394198D01*
X184600722Y-106394197D01*
X184438319Y-106321891D01*
X184438318Y-106321891D01*
X184432288Y-106319206D01*
X184338888Y-106299353D01*
X184251944Y-106280872D01*
X184251939Y-106280872D01*
X184245487Y-106279500D01*
X184054513Y-106279500D01*
X184048061Y-106280872D01*
X184048056Y-106280872D01*
X183961112Y-106299353D01*
X183867712Y-106319206D01*
X183861682Y-106321891D01*
X183861681Y-106321891D01*
X183699278Y-106394197D01*
X183699276Y-106394198D01*
X183693248Y-106396882D01*
X183687907Y-106400762D01*
X183687906Y-106400763D01*
X183540411Y-106507925D01*
X183473543Y-106531783D01*
X183466350Y-106531989D01*
X169633966Y-106531989D01*
X169565845Y-106511987D01*
X169519352Y-106458331D01*
X169509248Y-106388057D01*
X169540330Y-106321679D01*
X169644621Y-106205852D01*
X169644622Y-106205851D01*
X169649040Y-106200944D01*
X169744527Y-106035556D01*
X169803542Y-105853928D01*
X169807222Y-105818920D01*
X169822814Y-105670565D01*
X169823504Y-105664000D01*
X169819770Y-105628469D01*
X169804232Y-105480635D01*
X169804232Y-105480633D01*
X169803542Y-105474072D01*
X169744527Y-105292444D01*
X169649040Y-105127056D01*
X169644621Y-105122148D01*
X169577515Y-105047619D01*
X169546797Y-104983612D01*
X169546069Y-104962079D01*
X169545702Y-104962091D01*
X169543562Y-104894001D01*
X169543500Y-104890043D01*
X169543500Y-104862144D01*
X169542996Y-104858153D01*
X169542063Y-104846311D01*
X169541323Y-104822745D01*
X169540674Y-104802111D01*
X169538462Y-104794497D01*
X169538461Y-104794492D01*
X169535023Y-104782659D01*
X169531012Y-104763295D01*
X169529467Y-104751064D01*
X169528474Y-104743203D01*
X169525557Y-104735836D01*
X169525556Y-104735831D01*
X169512198Y-104702092D01*
X169508354Y-104690865D01*
X169498230Y-104656022D01*
X169496018Y-104648407D01*
X169490717Y-104639444D01*
X169485707Y-104630972D01*
X169477012Y-104613224D01*
X169469552Y-104594383D01*
X169443564Y-104558613D01*
X169437048Y-104548693D01*
X169418580Y-104517465D01*
X169418578Y-104517462D01*
X169414542Y-104510638D01*
X169400221Y-104496317D01*
X169387380Y-104481283D01*
X169380131Y-104471306D01*
X169375472Y-104464893D01*
X169341395Y-104436702D01*
X169332616Y-104428712D01*
X161677905Y-96774000D01*
X166218496Y-96774000D01*
X166219186Y-96780565D01*
X166233894Y-96920500D01*
X166238458Y-96963928D01*
X166297473Y-97145556D01*
X166392960Y-97310944D01*
X166466137Y-97392215D01*
X166496853Y-97456221D01*
X166498500Y-97476524D01*
X166498500Y-99743233D01*
X166497973Y-99754416D01*
X166496298Y-99761909D01*
X166496547Y-99769835D01*
X166496547Y-99769836D01*
X166498438Y-99829986D01*
X166498500Y-99833945D01*
X166498500Y-99861856D01*
X166498997Y-99865790D01*
X166498997Y-99865791D01*
X166499005Y-99865856D01*
X166499938Y-99877693D01*
X166501327Y-99921889D01*
X166506978Y-99941339D01*
X166510987Y-99960700D01*
X166513526Y-99980797D01*
X166516445Y-99988168D01*
X166516445Y-99988170D01*
X166529804Y-100021912D01*
X166533649Y-100033142D01*
X166545982Y-100075593D01*
X166550015Y-100082412D01*
X166550017Y-100082417D01*
X166556293Y-100093028D01*
X166564988Y-100110776D01*
X166572448Y-100129617D01*
X166577110Y-100136033D01*
X166577110Y-100136034D01*
X166598436Y-100165387D01*
X166604952Y-100175307D01*
X166615745Y-100193556D01*
X166627458Y-100213362D01*
X166641779Y-100227683D01*
X166654619Y-100242716D01*
X166666528Y-100259107D01*
X166682362Y-100272206D01*
X166700605Y-100287298D01*
X166709384Y-100295288D01*
X167962878Y-101548782D01*
X167996904Y-101611094D01*
X167999092Y-101624703D01*
X167999839Y-101631803D01*
X168014863Y-101774749D01*
X168016458Y-101789928D01*
X168075473Y-101971556D01*
X168170960Y-102136944D01*
X168175378Y-102141851D01*
X168175379Y-102141852D01*
X168294325Y-102273955D01*
X168298747Y-102278866D01*
X168397843Y-102350864D01*
X168422207Y-102368565D01*
X168453248Y-102391118D01*
X168459276Y-102393802D01*
X168459278Y-102393803D01*
X168621681Y-102466109D01*
X168627712Y-102468794D01*
X168721113Y-102488647D01*
X168808056Y-102507128D01*
X168808061Y-102507128D01*
X168814513Y-102508500D01*
X169005487Y-102508500D01*
X169011939Y-102507128D01*
X169011944Y-102507128D01*
X169098888Y-102488647D01*
X169192288Y-102468794D01*
X169198319Y-102466109D01*
X169360722Y-102393803D01*
X169360724Y-102393802D01*
X169366752Y-102391118D01*
X169397794Y-102368565D01*
X169422157Y-102350864D01*
X169521253Y-102278866D01*
X169525675Y-102273955D01*
X169644621Y-102141852D01*
X169644622Y-102141851D01*
X169649040Y-102136944D01*
X169744527Y-101971556D01*
X169803542Y-101789928D01*
X169805138Y-101774749D01*
X169822814Y-101606565D01*
X169823504Y-101600000D01*
X169818121Y-101548782D01*
X169804232Y-101416635D01*
X169804232Y-101416633D01*
X169803542Y-101410072D01*
X169744527Y-101228444D01*
X169729991Y-101203266D01*
X169665751Y-101092000D01*
X169649040Y-101063056D01*
X169595599Y-101003703D01*
X169525675Y-100926045D01*
X169525674Y-100926044D01*
X169521253Y-100921134D01*
X169397864Y-100831486D01*
X169372094Y-100812763D01*
X169372093Y-100812762D01*
X169366752Y-100808882D01*
X169360724Y-100806198D01*
X169360722Y-100806197D01*
X169198319Y-100733891D01*
X169198318Y-100733891D01*
X169192288Y-100731206D01*
X169087794Y-100708995D01*
X169011944Y-100692872D01*
X169011939Y-100692872D01*
X169005487Y-100691500D01*
X168949594Y-100691500D01*
X168881473Y-100671498D01*
X168860499Y-100654595D01*
X167802405Y-99596500D01*
X167768379Y-99534188D01*
X167765500Y-99507405D01*
X167765500Y-97476524D01*
X167785502Y-97408403D01*
X167797858Y-97392221D01*
X167871040Y-97310944D01*
X167966527Y-97145556D01*
X168025542Y-96963928D01*
X168030107Y-96920500D01*
X168044814Y-96780565D01*
X168045504Y-96774000D01*
X168038084Y-96703405D01*
X168026232Y-96590635D01*
X168026232Y-96590633D01*
X168025542Y-96584072D01*
X167966527Y-96402444D01*
X167871040Y-96237056D01*
X167845064Y-96208206D01*
X167747675Y-96100045D01*
X167747674Y-96100044D01*
X167743253Y-96095134D01*
X167628829Y-96012000D01*
X167594094Y-95986763D01*
X167594093Y-95986762D01*
X167588752Y-95982882D01*
X167582724Y-95980198D01*
X167582722Y-95980197D01*
X167420319Y-95907891D01*
X167420318Y-95907891D01*
X167414288Y-95905206D01*
X167301721Y-95881279D01*
X167233944Y-95866872D01*
X167233939Y-95866872D01*
X167227487Y-95865500D01*
X167036513Y-95865500D01*
X167030061Y-95866872D01*
X167030056Y-95866872D01*
X166962279Y-95881279D01*
X166849712Y-95905206D01*
X166843682Y-95907891D01*
X166843681Y-95907891D01*
X166681278Y-95980197D01*
X166681276Y-95980198D01*
X166675248Y-95982882D01*
X166669907Y-95986762D01*
X166669906Y-95986763D01*
X166635171Y-96012000D01*
X166520747Y-96095134D01*
X166516326Y-96100044D01*
X166516325Y-96100045D01*
X166418937Y-96208206D01*
X166392960Y-96237056D01*
X166297473Y-96402444D01*
X166238458Y-96584072D01*
X166237768Y-96590633D01*
X166237768Y-96590635D01*
X166225916Y-96703405D01*
X166218496Y-96774000D01*
X161677905Y-96774000D01*
X160713122Y-95809217D01*
X160679096Y-95746905D01*
X160676907Y-95733292D01*
X160660232Y-95574635D01*
X160660232Y-95574633D01*
X160659542Y-95568072D01*
X160657502Y-95561794D01*
X160657502Y-95561792D01*
X160650563Y-95540438D01*
X160648534Y-95469471D01*
X160685195Y-95408672D01*
X160748907Y-95377346D01*
X160770395Y-95375500D01*
X180647800Y-95375500D01*
X180715921Y-95395502D01*
X180735147Y-95411843D01*
X180735420Y-95411540D01*
X180740332Y-95415963D01*
X180744747Y-95420866D01*
X180750086Y-95424745D01*
X180868207Y-95510565D01*
X180899248Y-95533118D01*
X180905275Y-95535801D01*
X180905283Y-95535806D01*
X180935009Y-95549041D01*
X180989105Y-95595022D01*
X181009753Y-95662949D01*
X180990400Y-95731257D01*
X180972854Y-95753242D01*
X179410248Y-97315847D01*
X177849500Y-98876595D01*
X177787188Y-98910621D01*
X177760405Y-98913500D01*
X177704513Y-98913500D01*
X177698061Y-98914872D01*
X177698056Y-98914872D01*
X177611113Y-98933353D01*
X177517712Y-98953206D01*
X177511682Y-98955891D01*
X177511681Y-98955891D01*
X177349278Y-99028197D01*
X177349276Y-99028198D01*
X177343248Y-99030882D01*
X177188747Y-99143134D01*
X177184326Y-99148044D01*
X177184325Y-99148045D01*
X177065810Y-99279670D01*
X177060960Y-99285056D01*
X177044671Y-99313269D01*
X176973307Y-99436876D01*
X176965473Y-99450444D01*
X176906458Y-99632072D01*
X176905768Y-99638633D01*
X176905768Y-99638635D01*
X176894961Y-99741461D01*
X176886496Y-99822000D01*
X176887186Y-99828565D01*
X176904455Y-99992866D01*
X176906458Y-100011928D01*
X176965473Y-100193556D01*
X176968776Y-100199278D01*
X176968777Y-100199279D01*
X176981023Y-100220489D01*
X177060960Y-100358944D01*
X177065378Y-100363851D01*
X177065379Y-100363852D01*
X177180266Y-100491447D01*
X177188747Y-100500866D01*
X177343248Y-100613118D01*
X177349276Y-100615802D01*
X177349278Y-100615803D01*
X177508633Y-100686752D01*
X177517712Y-100690794D01*
X177603378Y-100709003D01*
X177698056Y-100729128D01*
X177698061Y-100729128D01*
X177704513Y-100730500D01*
X177895487Y-100730500D01*
X177901939Y-100729128D01*
X177901944Y-100729128D01*
X177996622Y-100709003D01*
X178082288Y-100690794D01*
X178091367Y-100686752D01*
X178250722Y-100615803D01*
X178250724Y-100615802D01*
X178256752Y-100613118D01*
X178411253Y-100500866D01*
X178419734Y-100491447D01*
X178534621Y-100363852D01*
X178534622Y-100363851D01*
X178539040Y-100358944D01*
X178615926Y-100225774D01*
X191761102Y-100225774D01*
X191761302Y-100231103D01*
X191761302Y-100231105D01*
X191762543Y-100264158D01*
X191769751Y-100456158D01*
X191817093Y-100681791D01*
X191819051Y-100686750D01*
X191819052Y-100686752D01*
X191899113Y-100889477D01*
X191901776Y-100896221D01*
X191904543Y-100900780D01*
X191904544Y-100900783D01*
X191994045Y-101048276D01*
X192021377Y-101093317D01*
X192024874Y-101097347D01*
X192154803Y-101247077D01*
X192172477Y-101267445D01*
X192208120Y-101296670D01*
X192248114Y-101355329D01*
X192250046Y-101426299D01*
X192213302Y-101487048D01*
X192194532Y-101501248D01*
X192072484Y-101576774D01*
X192048652Y-101591522D01*
X191923695Y-101716697D01*
X191919855Y-101722927D01*
X191919854Y-101722928D01*
X191843107Y-101847435D01*
X191830885Y-101867262D01*
X191814032Y-101918072D01*
X191790028Y-101990444D01*
X191775203Y-102035139D01*
X191764500Y-102139600D01*
X191764500Y-103440400D01*
X191775474Y-103546166D01*
X191831450Y-103713946D01*
X191924522Y-103864348D01*
X192049697Y-103989305D01*
X192055927Y-103993145D01*
X192055928Y-103993146D01*
X192193090Y-104077694D01*
X192200262Y-104082115D01*
X192235350Y-104093753D01*
X192361611Y-104135632D01*
X192361613Y-104135632D01*
X192368139Y-104137797D01*
X192374975Y-104138497D01*
X192374978Y-104138498D01*
X192418031Y-104142909D01*
X192472600Y-104148500D01*
X194023400Y-104148500D01*
X194026646Y-104148163D01*
X194026650Y-104148163D01*
X194122308Y-104138238D01*
X194122312Y-104138237D01*
X194129166Y-104137526D01*
X194135702Y-104135345D01*
X194135704Y-104135345D01*
X194282460Y-104086383D01*
X194296946Y-104081550D01*
X194447348Y-103988478D01*
X194454515Y-103981299D01*
X194549069Y-103886580D01*
X194572305Y-103863303D01*
X194665115Y-103712738D01*
X194713931Y-103565562D01*
X194718632Y-103551389D01*
X194718632Y-103551387D01*
X194720797Y-103544861D01*
X194731500Y-103440400D01*
X194731500Y-102139600D01*
X194729874Y-102123925D01*
X194721238Y-102040692D01*
X194721237Y-102040688D01*
X194720526Y-102033834D01*
X194710366Y-102003379D01*
X194666868Y-101873002D01*
X194664550Y-101866054D01*
X194571478Y-101715652D01*
X194446303Y-101590695D01*
X194300660Y-101500919D01*
X194253168Y-101448148D01*
X194241744Y-101378076D01*
X194270018Y-101312952D01*
X194279805Y-101302490D01*
X194356872Y-101228971D01*
X194394135Y-101193424D01*
X194430923Y-101143980D01*
X194528568Y-101012740D01*
X194531754Y-101008458D01*
X194544274Y-100983834D01*
X194605588Y-100863237D01*
X194636240Y-100802949D01*
X194651171Y-100754866D01*
X194703024Y-100587871D01*
X194704607Y-100582773D01*
X194708503Y-100553380D01*
X194734198Y-100359511D01*
X194734198Y-100359506D01*
X194734898Y-100354226D01*
X194726249Y-100123842D01*
X194678907Y-99898209D01*
X194666130Y-99865856D01*
X194596185Y-99688744D01*
X194596184Y-99688742D01*
X194594224Y-99683779D01*
X194589605Y-99676166D01*
X194487197Y-99507405D01*
X194474623Y-99486683D01*
X194433997Y-99439865D01*
X194327023Y-99316588D01*
X194327021Y-99316586D01*
X194323523Y-99312555D01*
X194243718Y-99247119D01*
X194149373Y-99169760D01*
X194149367Y-99169756D01*
X194145245Y-99166376D01*
X194140602Y-99163733D01*
X194113265Y-99148171D01*
X194063959Y-99097088D01*
X194050098Y-99027458D01*
X194076082Y-98961387D01*
X194105232Y-98934149D01*
X194222578Y-98855148D01*
X194230870Y-98848481D01*
X194389900Y-98696772D01*
X194396941Y-98688814D01*
X194528141Y-98512475D01*
X194533745Y-98503438D01*
X194633357Y-98307516D01*
X194637357Y-98297665D01*
X194702534Y-98087760D01*
X194704817Y-98077376D01*
X194706861Y-98061957D01*
X194704665Y-98047793D01*
X194691478Y-98044000D01*
X191806808Y-98044000D01*
X191793277Y-98047973D01*
X191791752Y-98058580D01*
X191816477Y-98176421D01*
X191819537Y-98186617D01*
X191900263Y-98391029D01*
X191904994Y-98400561D01*
X192019016Y-98588462D01*
X192025280Y-98597052D01*
X192169327Y-98763052D01*
X192176958Y-98770472D01*
X192346911Y-98909826D01*
X192355674Y-98915848D01*
X192382711Y-98931238D01*
X192432018Y-98982320D01*
X192445880Y-99051951D01*
X192419897Y-99118022D01*
X192390747Y-99145261D01*
X192386612Y-99148045D01*
X192268681Y-99227441D01*
X192264824Y-99231120D01*
X192264822Y-99231122D01*
X192248053Y-99247119D01*
X192101865Y-99386576D01*
X192098682Y-99390854D01*
X192096899Y-99393251D01*
X191964246Y-99571542D01*
X191961830Y-99576293D01*
X191961828Y-99576297D01*
X191949877Y-99599803D01*
X191859760Y-99777051D01*
X191858178Y-99782145D01*
X191858177Y-99782148D01*
X191817245Y-99913970D01*
X191791393Y-99997227D01*
X191790692Y-100002516D01*
X191763652Y-100206535D01*
X191761102Y-100225774D01*
X178615926Y-100225774D01*
X178618977Y-100220489D01*
X178631223Y-100199279D01*
X178631224Y-100199278D01*
X178634527Y-100193556D01*
X178693542Y-100011928D01*
X178695546Y-99992866D01*
X178708274Y-99871760D01*
X178710907Y-99846706D01*
X178737920Y-99781050D01*
X178747122Y-99770782D01*
X180999861Y-97518043D01*
X191789139Y-97518043D01*
X191791335Y-97532207D01*
X191804522Y-97536000D01*
X192975885Y-97536000D01*
X192991124Y-97531525D01*
X192992329Y-97530135D01*
X192994000Y-97522452D01*
X192994000Y-97517885D01*
X193502000Y-97517885D01*
X193506475Y-97533124D01*
X193507865Y-97534329D01*
X193515548Y-97536000D01*
X194689192Y-97536000D01*
X194702723Y-97532027D01*
X194704248Y-97521420D01*
X194679523Y-97403579D01*
X194676463Y-97393383D01*
X194595737Y-97188971D01*
X194591006Y-97179439D01*
X194476984Y-96991538D01*
X194470720Y-96982948D01*
X194326673Y-96816948D01*
X194319042Y-96809528D01*
X194149089Y-96670174D01*
X194140323Y-96664150D01*
X194112801Y-96648483D01*
X194063496Y-96597400D01*
X194049635Y-96527770D01*
X194075619Y-96461699D01*
X194104768Y-96434462D01*
X194222575Y-96355150D01*
X194230870Y-96348481D01*
X194389900Y-96196772D01*
X194396941Y-96188814D01*
X194528141Y-96012475D01*
X194533745Y-96003438D01*
X194633357Y-95807516D01*
X194637357Y-95797665D01*
X194702534Y-95587760D01*
X194704817Y-95577376D01*
X194706861Y-95561957D01*
X194704665Y-95547793D01*
X194691478Y-95544000D01*
X193520115Y-95544000D01*
X193504876Y-95548475D01*
X193503671Y-95549865D01*
X193502000Y-95557548D01*
X193502000Y-97517885D01*
X192994000Y-97517885D01*
X192994000Y-95562115D01*
X192989525Y-95546876D01*
X192988135Y-95545671D01*
X192980452Y-95544000D01*
X191806808Y-95544000D01*
X191793277Y-95547973D01*
X191791752Y-95558580D01*
X191816477Y-95676421D01*
X191819537Y-95686617D01*
X191900263Y-95891029D01*
X191904994Y-95900561D01*
X192019016Y-96088462D01*
X192025280Y-96097052D01*
X192169327Y-96263052D01*
X192176958Y-96270472D01*
X192346911Y-96409826D01*
X192355677Y-96415850D01*
X192383199Y-96431517D01*
X192432504Y-96482600D01*
X192446365Y-96552230D01*
X192420381Y-96618301D01*
X192391232Y-96645538D01*
X192273425Y-96724850D01*
X192265130Y-96731519D01*
X192106100Y-96883228D01*
X192099059Y-96891186D01*
X191967859Y-97067525D01*
X191962255Y-97076562D01*
X191862643Y-97272484D01*
X191858643Y-97282335D01*
X191793466Y-97492240D01*
X191791183Y-97502624D01*
X191789139Y-97518043D01*
X180999861Y-97518043D01*
X182472758Y-96045146D01*
X182481048Y-96037602D01*
X182487529Y-96033489D01*
X182501544Y-96018565D01*
X182534169Y-95983822D01*
X182536924Y-95980980D01*
X182556646Y-95961258D01*
X182559130Y-95958056D01*
X182566828Y-95949044D01*
X182591672Y-95922587D01*
X182597097Y-95916810D01*
X182606858Y-95899055D01*
X182617709Y-95882536D01*
X182630125Y-95866530D01*
X182647685Y-95825952D01*
X182652902Y-95815302D01*
X182674206Y-95776549D01*
X182679244Y-95756926D01*
X182685648Y-95738223D01*
X182690544Y-95726909D01*
X182690544Y-95726908D01*
X182693692Y-95719634D01*
X182694931Y-95711811D01*
X182694934Y-95711801D01*
X182700610Y-95675965D01*
X182703016Y-95664345D01*
X182712039Y-95629200D01*
X182712039Y-95629199D01*
X182714011Y-95621519D01*
X182714011Y-95601265D01*
X182715562Y-95581554D01*
X182717491Y-95569375D01*
X182718731Y-95561546D01*
X182714570Y-95517527D01*
X182714011Y-95505670D01*
X182714011Y-92725774D01*
X191761102Y-92725774D01*
X191769751Y-92956158D01*
X191817093Y-93181791D01*
X191819051Y-93186750D01*
X191819052Y-93186752D01*
X191866164Y-93306045D01*
X191901776Y-93396221D01*
X191904543Y-93400780D01*
X191904544Y-93400783D01*
X191917764Y-93422568D01*
X192021377Y-93593317D01*
X192024874Y-93597347D01*
X192120460Y-93707500D01*
X192172477Y-93767445D01*
X192192416Y-93783794D01*
X192346627Y-93910240D01*
X192346633Y-93910244D01*
X192350755Y-93913624D01*
X192355398Y-93916267D01*
X192382735Y-93931829D01*
X192432041Y-93982912D01*
X192445902Y-94052542D01*
X192419918Y-94118613D01*
X192390768Y-94145851D01*
X192273422Y-94224852D01*
X192265130Y-94231519D01*
X192106100Y-94383228D01*
X192099059Y-94391186D01*
X191967859Y-94567525D01*
X191962255Y-94576562D01*
X191862643Y-94772484D01*
X191858643Y-94782335D01*
X191793466Y-94992240D01*
X191791183Y-95002624D01*
X191789139Y-95018043D01*
X191791335Y-95032207D01*
X191804522Y-95036000D01*
X194689192Y-95036000D01*
X194702723Y-95032027D01*
X194704248Y-95021420D01*
X194679523Y-94903579D01*
X194676463Y-94893383D01*
X194595737Y-94688971D01*
X194591006Y-94679439D01*
X194476984Y-94491538D01*
X194470720Y-94482948D01*
X194326673Y-94316948D01*
X194319042Y-94309528D01*
X194149089Y-94170174D01*
X194140326Y-94164152D01*
X194113289Y-94148762D01*
X194063982Y-94097680D01*
X194050120Y-94028049D01*
X194076103Y-93961978D01*
X194105253Y-93934739D01*
X194158532Y-93898869D01*
X194227319Y-93852559D01*
X194259234Y-93822114D01*
X194320769Y-93763412D01*
X194394135Y-93693424D01*
X194408269Y-93674428D01*
X194528568Y-93512740D01*
X194531754Y-93508458D01*
X194567502Y-93438148D01*
X194633822Y-93307704D01*
X194636240Y-93302949D01*
X194638010Y-93297251D01*
X194703024Y-93087871D01*
X194704607Y-93082773D01*
X194709237Y-93047840D01*
X194734198Y-92859511D01*
X194734198Y-92859506D01*
X194734898Y-92854226D01*
X194726249Y-92623842D01*
X194678907Y-92398209D01*
X194612919Y-92231118D01*
X194596185Y-92188744D01*
X194596184Y-92188742D01*
X194594224Y-92183779D01*
X194588940Y-92175070D01*
X194477390Y-91991243D01*
X194474623Y-91986683D01*
X194387755Y-91886576D01*
X194327023Y-91816588D01*
X194327021Y-91816586D01*
X194323523Y-91812555D01*
X194281970Y-91778484D01*
X194149373Y-91669760D01*
X194149367Y-91669756D01*
X194145245Y-91666376D01*
X194140609Y-91663737D01*
X194140606Y-91663735D01*
X193949529Y-91554968D01*
X193944886Y-91552325D01*
X193728175Y-91473663D01*
X193722926Y-91472714D01*
X193722923Y-91472713D01*
X193505392Y-91433377D01*
X193505385Y-91433376D01*
X193501308Y-91432639D01*
X193483586Y-91431803D01*
X193478644Y-91431570D01*
X193478637Y-91431570D01*
X193477156Y-91431500D01*
X193065110Y-91431500D01*
X192998191Y-91437178D01*
X192898591Y-91445629D01*
X192898587Y-91445630D01*
X192893280Y-91446080D01*
X192888125Y-91447418D01*
X192888119Y-91447419D01*
X192675297Y-91502657D01*
X192675293Y-91502658D01*
X192670128Y-91503999D01*
X192665262Y-91506191D01*
X192665259Y-91506192D01*
X192556980Y-91554968D01*
X192459925Y-91598688D01*
X192268681Y-91727441D01*
X192101865Y-91886576D01*
X191964246Y-92071542D01*
X191961830Y-92076293D01*
X191961828Y-92076297D01*
X191953081Y-92093502D01*
X191859760Y-92277051D01*
X191858178Y-92282145D01*
X191858177Y-92282148D01*
X191796115Y-92482020D01*
X191791393Y-92497227D01*
X191790692Y-92502516D01*
X191770858Y-92652167D01*
X191761102Y-92725774D01*
X182714011Y-92725774D01*
X182714011Y-84077386D01*
X196957759Y-84077386D01*
X196965216Y-84087753D01*
X197204935Y-84281874D01*
X197210272Y-84285751D01*
X197530685Y-84493830D01*
X197536394Y-84497127D01*
X197876811Y-84670578D01*
X197882836Y-84673260D01*
X198239502Y-84810171D01*
X198245784Y-84812212D01*
X198614816Y-84911094D01*
X198621266Y-84912465D01*
X198998629Y-84972234D01*
X199005167Y-84972920D01*
X199386699Y-84992916D01*
X199393301Y-84992916D01*
X199774833Y-84972920D01*
X199781371Y-84972234D01*
X200158734Y-84912465D01*
X200165184Y-84911094D01*
X200534216Y-84812212D01*
X200540498Y-84810171D01*
X200897164Y-84673260D01*
X200903189Y-84670578D01*
X201243606Y-84497127D01*
X201249315Y-84493830D01*
X201569728Y-84285751D01*
X201575065Y-84281874D01*
X201813835Y-84088522D01*
X201822300Y-84076267D01*
X201815966Y-84065176D01*
X199402812Y-81652022D01*
X199388868Y-81644408D01*
X199387035Y-81644539D01*
X199380420Y-81648790D01*
X196964900Y-84064310D01*
X196957759Y-84077386D01*
X182714011Y-84077386D01*
X182714011Y-83347095D01*
X185332001Y-83347095D01*
X185332338Y-83353614D01*
X185342257Y-83449206D01*
X185345149Y-83462600D01*
X185396588Y-83616784D01*
X185402761Y-83629962D01*
X185488063Y-83767807D01*
X185497099Y-83779208D01*
X185611829Y-83893739D01*
X185623240Y-83902751D01*
X185761243Y-83987816D01*
X185774424Y-83993963D01*
X185928710Y-84045138D01*
X185942086Y-84048005D01*
X186036438Y-84057672D01*
X186042854Y-84058000D01*
X186417885Y-84058000D01*
X186433124Y-84053525D01*
X186434329Y-84052135D01*
X186436000Y-84044452D01*
X186436000Y-84039884D01*
X186944000Y-84039884D01*
X186948475Y-84055123D01*
X186949865Y-84056328D01*
X186957548Y-84057999D01*
X187337095Y-84057999D01*
X187343614Y-84057662D01*
X187439206Y-84047743D01*
X187452600Y-84044851D01*
X187606784Y-83993412D01*
X187619962Y-83987239D01*
X187757807Y-83901937D01*
X187769208Y-83892901D01*
X187883739Y-83778171D01*
X187892753Y-83766757D01*
X187978723Y-83627287D01*
X188031495Y-83579793D01*
X188101566Y-83568369D01*
X188166690Y-83596643D01*
X188177149Y-83606426D01*
X188286576Y-83721135D01*
X188471542Y-83858754D01*
X188476293Y-83861170D01*
X188476297Y-83861172D01*
X188538704Y-83892901D01*
X188677051Y-83963240D01*
X188682145Y-83964822D01*
X188682148Y-83964823D01*
X188882020Y-84026885D01*
X188897227Y-84031607D01*
X188902516Y-84032308D01*
X189120489Y-84061198D01*
X189120494Y-84061198D01*
X189125774Y-84061898D01*
X189131103Y-84061698D01*
X189131105Y-84061698D01*
X189240966Y-84057573D01*
X189356158Y-84053249D01*
X189361468Y-84052135D01*
X189576572Y-84007002D01*
X189581791Y-84005907D01*
X189586750Y-84003949D01*
X189586752Y-84003948D01*
X189791256Y-83923185D01*
X189791258Y-83923184D01*
X189796221Y-83921224D01*
X189895184Y-83861172D01*
X189988757Y-83804390D01*
X189988756Y-83804390D01*
X189993317Y-83801623D01*
X190033497Y-83766757D01*
X190163412Y-83654023D01*
X190163414Y-83654021D01*
X190167445Y-83650523D01*
X190234807Y-83568369D01*
X190310240Y-83476373D01*
X190310244Y-83476367D01*
X190313624Y-83472245D01*
X190317714Y-83465061D01*
X190425032Y-83276529D01*
X190427675Y-83271886D01*
X190506337Y-83055175D01*
X190507550Y-83048469D01*
X190546623Y-82832392D01*
X190546624Y-82832385D01*
X190547361Y-82828308D01*
X190548500Y-82804156D01*
X190548500Y-82342110D01*
X190541441Y-82258918D01*
X190534371Y-82175591D01*
X190534370Y-82175587D01*
X190533920Y-82170280D01*
X190532582Y-82165125D01*
X190532581Y-82165119D01*
X190477343Y-81952297D01*
X190477342Y-81952293D01*
X190476001Y-81947128D01*
X190472829Y-81940085D01*
X190383507Y-81741798D01*
X190381312Y-81736925D01*
X190252559Y-81545681D01*
X190246630Y-81539465D01*
X190139411Y-81427072D01*
X190093424Y-81378865D01*
X189964982Y-81283301D01*
X195677084Y-81283301D01*
X195697080Y-81664833D01*
X195697766Y-81671371D01*
X195757535Y-82048734D01*
X195758906Y-82055184D01*
X195857788Y-82424216D01*
X195859829Y-82430498D01*
X195996740Y-82787164D01*
X195999422Y-82793189D01*
X196172872Y-83133603D01*
X196176169Y-83139313D01*
X196384253Y-83459735D01*
X196388123Y-83465061D01*
X196581478Y-83703835D01*
X196593733Y-83712300D01*
X196604824Y-83705966D01*
X199017978Y-81292812D01*
X199025592Y-81278868D01*
X199025461Y-81277035D01*
X199021210Y-81270420D01*
X196605690Y-78854900D01*
X196592614Y-78847759D01*
X196582247Y-78855216D01*
X196388123Y-79094939D01*
X196384253Y-79100265D01*
X196176169Y-79420687D01*
X196172872Y-79426397D01*
X195999422Y-79766811D01*
X195996740Y-79772836D01*
X195859829Y-80129502D01*
X195857788Y-80135784D01*
X195758906Y-80504816D01*
X195757535Y-80511266D01*
X195697766Y-80888629D01*
X195697080Y-80895167D01*
X195677084Y-81276699D01*
X195677084Y-81283301D01*
X189964982Y-81283301D01*
X189908458Y-81241246D01*
X189903707Y-81238830D01*
X189903703Y-81238828D01*
X189770070Y-81170886D01*
X189702949Y-81136760D01*
X189697855Y-81135178D01*
X189697852Y-81135177D01*
X189487871Y-81069976D01*
X189482773Y-81068393D01*
X189477484Y-81067692D01*
X189259511Y-81038802D01*
X189259506Y-81038802D01*
X189254226Y-81038102D01*
X189248897Y-81038302D01*
X189248895Y-81038302D01*
X189150368Y-81042001D01*
X189023842Y-81046751D01*
X189018623Y-81047846D01*
X188998849Y-81051995D01*
X188798209Y-81094093D01*
X188793250Y-81096051D01*
X188793248Y-81096052D01*
X188588744Y-81176815D01*
X188588742Y-81176816D01*
X188583779Y-81178776D01*
X188579220Y-81181543D01*
X188579217Y-81181544D01*
X188457683Y-81255293D01*
X188386683Y-81298377D01*
X188382653Y-81301874D01*
X188230134Y-81434223D01*
X188212555Y-81449477D01*
X188209168Y-81453608D01*
X188182994Y-81485529D01*
X188124334Y-81525524D01*
X188053364Y-81527455D01*
X187992616Y-81490710D01*
X187978416Y-81471941D01*
X187891937Y-81332193D01*
X187882901Y-81320792D01*
X187768171Y-81206261D01*
X187756760Y-81197249D01*
X187618757Y-81112184D01*
X187605576Y-81106037D01*
X187451290Y-81054862D01*
X187437914Y-81051995D01*
X187343562Y-81042328D01*
X187337145Y-81042000D01*
X186962115Y-81042000D01*
X186946876Y-81046475D01*
X186945671Y-81047865D01*
X186944000Y-81055548D01*
X186944000Y-84039884D01*
X186436000Y-84039884D01*
X186436000Y-82822115D01*
X186431525Y-82806876D01*
X186430135Y-82805671D01*
X186422452Y-82804000D01*
X185350116Y-82804000D01*
X185334877Y-82808475D01*
X185333672Y-82809865D01*
X185332001Y-82817548D01*
X185332001Y-83347095D01*
X182714011Y-83347095D01*
X182714011Y-82591279D01*
X182714538Y-82580096D01*
X182716213Y-82572603D01*
X182714073Y-82504512D01*
X182714011Y-82500555D01*
X182714011Y-82472655D01*
X182713507Y-82468664D01*
X182712574Y-82456822D01*
X182711489Y-82422278D01*
X182711185Y-82412622D01*
X182708973Y-82405008D01*
X182708972Y-82405003D01*
X182705534Y-82393170D01*
X182701523Y-82373806D01*
X182699978Y-82361575D01*
X182698985Y-82353714D01*
X182696068Y-82346347D01*
X182696067Y-82346342D01*
X182682709Y-82312603D01*
X182678865Y-82301376D01*
X182674156Y-82285168D01*
X182672040Y-82277885D01*
X185332000Y-82277885D01*
X185336475Y-82293124D01*
X185337865Y-82294329D01*
X185345548Y-82296000D01*
X186417885Y-82296000D01*
X186433124Y-82291525D01*
X186434329Y-82290135D01*
X186436000Y-82282452D01*
X186436000Y-81060116D01*
X186431525Y-81044877D01*
X186430135Y-81043672D01*
X186422452Y-81042001D01*
X186042905Y-81042001D01*
X186036386Y-81042338D01*
X185940794Y-81052257D01*
X185927400Y-81055149D01*
X185773216Y-81106588D01*
X185760038Y-81112761D01*
X185622193Y-81198063D01*
X185610792Y-81207099D01*
X185496261Y-81321829D01*
X185487249Y-81333240D01*
X185402184Y-81471243D01*
X185396037Y-81484424D01*
X185344862Y-81638710D01*
X185341995Y-81652086D01*
X185332328Y-81746438D01*
X185332000Y-81752855D01*
X185332000Y-82277885D01*
X182672040Y-82277885D01*
X182666529Y-82258918D01*
X182656218Y-82241483D01*
X182647523Y-82223735D01*
X182640063Y-82204894D01*
X182627156Y-82187128D01*
X182614075Y-82169124D01*
X182607559Y-82159204D01*
X182589091Y-82127976D01*
X182589089Y-82127973D01*
X182585053Y-82121149D01*
X182570732Y-82106828D01*
X182557891Y-82091794D01*
X182551199Y-82082583D01*
X182545983Y-82075404D01*
X182511906Y-82047213D01*
X182503127Y-82039223D01*
X181795122Y-81331218D01*
X181761096Y-81268906D01*
X181758907Y-81255293D01*
X181754655Y-81214831D01*
X181741542Y-81090072D01*
X181682527Y-80908444D01*
X181666748Y-80881113D01*
X181620602Y-80801187D01*
X181587040Y-80743056D01*
X181572753Y-80727188D01*
X181463675Y-80606045D01*
X181463674Y-80606044D01*
X181459253Y-80601134D01*
X181353110Y-80524016D01*
X181310094Y-80492763D01*
X181310093Y-80492762D01*
X181304752Y-80488882D01*
X181298724Y-80486198D01*
X181298722Y-80486197D01*
X181136319Y-80413891D01*
X181136318Y-80413891D01*
X181130288Y-80411206D01*
X181036888Y-80391353D01*
X180949944Y-80372872D01*
X180949939Y-80372872D01*
X180943487Y-80371500D01*
X180752513Y-80371500D01*
X180746061Y-80372872D01*
X180746056Y-80372872D01*
X180659112Y-80391353D01*
X180565712Y-80411206D01*
X180559682Y-80413891D01*
X180559681Y-80413891D01*
X180397278Y-80486197D01*
X180397276Y-80486198D01*
X180391248Y-80488882D01*
X180385907Y-80492762D01*
X180385906Y-80492763D01*
X180342890Y-80524016D01*
X180236747Y-80601134D01*
X180232326Y-80606044D01*
X180232325Y-80606045D01*
X180123248Y-80727188D01*
X180108960Y-80743056D01*
X180075398Y-80801187D01*
X180029253Y-80881113D01*
X180013473Y-80908444D01*
X179954458Y-81090072D01*
X179953768Y-81096633D01*
X179953768Y-81096635D01*
X179937093Y-81255293D01*
X179934496Y-81280000D01*
X179935186Y-81286565D01*
X179952309Y-81449477D01*
X179954458Y-81469928D01*
X180013473Y-81651556D01*
X180108960Y-81816944D01*
X180113378Y-81821851D01*
X180113379Y-81821852D01*
X180221794Y-81942259D01*
X180236747Y-81958866D01*
X180391248Y-82071118D01*
X180397276Y-82073802D01*
X180397278Y-82073803D01*
X180559681Y-82146109D01*
X180565712Y-82148794D01*
X180642515Y-82165119D01*
X180746056Y-82187128D01*
X180746061Y-82187128D01*
X180752513Y-82188500D01*
X180808405Y-82188500D01*
X180876526Y-82208502D01*
X180897501Y-82225405D01*
X181410107Y-82738012D01*
X181444132Y-82800324D01*
X181447011Y-82827107D01*
X181447011Y-93707500D01*
X181427009Y-93775621D01*
X181373353Y-93822114D01*
X181321011Y-93833500D01*
X181260513Y-93833500D01*
X181254061Y-93834872D01*
X181254056Y-93834872D01*
X181170848Y-93852559D01*
X181073712Y-93873206D01*
X181067682Y-93875891D01*
X181067681Y-93875891D01*
X180905278Y-93948197D01*
X180905276Y-93948198D01*
X180899248Y-93950882D01*
X180893907Y-93954762D01*
X180893906Y-93954763D01*
X180850135Y-93986565D01*
X180744747Y-94063134D01*
X180740332Y-94068037D01*
X180735420Y-94072460D01*
X180734295Y-94071211D01*
X180680986Y-94104051D01*
X180647800Y-94108500D01*
X144726200Y-94108500D01*
X144658079Y-94088498D01*
X144638853Y-94072157D01*
X144638580Y-94072460D01*
X144633668Y-94068037D01*
X144629253Y-94063134D01*
X144523865Y-93986565D01*
X144480094Y-93954763D01*
X144480093Y-93954762D01*
X144474752Y-93950882D01*
X144468724Y-93948198D01*
X144468722Y-93948197D01*
X144306319Y-93875891D01*
X144306318Y-93875891D01*
X144300288Y-93873206D01*
X144203152Y-93852559D01*
X144119944Y-93834872D01*
X144119939Y-93834872D01*
X144113487Y-93833500D01*
X143922513Y-93833500D01*
X143916061Y-93834872D01*
X143916056Y-93834872D01*
X143832848Y-93852559D01*
X143735712Y-93873206D01*
X143729682Y-93875891D01*
X143729681Y-93875891D01*
X143567278Y-93948197D01*
X143567276Y-93948198D01*
X143561248Y-93950882D01*
X143555907Y-93954762D01*
X143555906Y-93954763D01*
X143521171Y-93980000D01*
X143406747Y-94063134D01*
X143402326Y-94068044D01*
X143402325Y-94068045D01*
X143304937Y-94176206D01*
X143278960Y-94205056D01*
X143183473Y-94370444D01*
X143124458Y-94552072D01*
X143123768Y-94558633D01*
X143123768Y-94558635D01*
X143105186Y-94735435D01*
X143104496Y-94742000D01*
X143105186Y-94748565D01*
X143119894Y-94888500D01*
X143124458Y-94931928D01*
X143183473Y-95113556D01*
X143186776Y-95119278D01*
X143186777Y-95119279D01*
X143227319Y-95189500D01*
X143244057Y-95258496D01*
X143220836Y-95325587D01*
X143165029Y-95369474D01*
X143118200Y-95378500D01*
X133804200Y-95378500D01*
X133736079Y-95358498D01*
X133716853Y-95342157D01*
X133716580Y-95342460D01*
X133711668Y-95338037D01*
X133707253Y-95333134D01*
X133552752Y-95220882D01*
X133546724Y-95218198D01*
X133546722Y-95218197D01*
X133384319Y-95145891D01*
X133384318Y-95145891D01*
X133378288Y-95143206D01*
X133265721Y-95119279D01*
X133197944Y-95104872D01*
X133197939Y-95104872D01*
X133191487Y-95103500D01*
X133000513Y-95103500D01*
X132994061Y-95104872D01*
X132994056Y-95104872D01*
X132926279Y-95119279D01*
X132813712Y-95143206D01*
X132807682Y-95145891D01*
X132807681Y-95145891D01*
X132645278Y-95218197D01*
X132645276Y-95218198D01*
X132639248Y-95220882D01*
X132484747Y-95333134D01*
X132480326Y-95338044D01*
X132480325Y-95338045D01*
X132380279Y-95449158D01*
X132356960Y-95475056D01*
X132261473Y-95640444D01*
X132202458Y-95822072D01*
X132201768Y-95828633D01*
X132201768Y-95828635D01*
X132189920Y-95941365D01*
X132182496Y-96012000D01*
X132183186Y-96018565D01*
X132201080Y-96188814D01*
X132202458Y-96201928D01*
X132261473Y-96383556D01*
X132356960Y-96548944D01*
X132361378Y-96553851D01*
X132361379Y-96553852D01*
X132447905Y-96649949D01*
X132484747Y-96690866D01*
X132531522Y-96724850D01*
X132608207Y-96780565D01*
X132639248Y-96803118D01*
X132645276Y-96805802D01*
X132645278Y-96805803D01*
X132807681Y-96878109D01*
X132813712Y-96880794D01*
X132907112Y-96900647D01*
X132994056Y-96919128D01*
X132994061Y-96919128D01*
X133000513Y-96920500D01*
X133191487Y-96920500D01*
X133197939Y-96919128D01*
X133197944Y-96919128D01*
X133284888Y-96900647D01*
X133378288Y-96880794D01*
X133384319Y-96878109D01*
X133546722Y-96805803D01*
X133546724Y-96805802D01*
X133552752Y-96803118D01*
X133583794Y-96780565D01*
X133689995Y-96703405D01*
X133707253Y-96690866D01*
X133711668Y-96685963D01*
X133716580Y-96681540D01*
X133717705Y-96682789D01*
X133771014Y-96649949D01*
X133804200Y-96645500D01*
X147513406Y-96645500D01*
X147581527Y-96665502D01*
X147602501Y-96682405D01*
X149674878Y-98754782D01*
X149708904Y-98817094D01*
X149711093Y-98830707D01*
X149723824Y-98951834D01*
X149728458Y-98995928D01*
X149787473Y-99177556D01*
X149882960Y-99342944D01*
X149887378Y-99347851D01*
X149887379Y-99347852D01*
X149939722Y-99405985D01*
X150010747Y-99484866D01*
X150165248Y-99597118D01*
X150171276Y-99599802D01*
X150171278Y-99599803D01*
X150243756Y-99632072D01*
X150339712Y-99674794D01*
X150433113Y-99694647D01*
X150520056Y-99713128D01*
X150520061Y-99713128D01*
X150526513Y-99714500D01*
X150717487Y-99714500D01*
X150723939Y-99713128D01*
X150723944Y-99713128D01*
X150810887Y-99694647D01*
X150904288Y-99674794D01*
X151000244Y-99632072D01*
X151072722Y-99599803D01*
X151072724Y-99599802D01*
X151078752Y-99597118D01*
X151233253Y-99484866D01*
X151304278Y-99405985D01*
X151356621Y-99347852D01*
X151356622Y-99347851D01*
X151361040Y-99342944D01*
X151456527Y-99177556D01*
X151515542Y-98995928D01*
X151519173Y-98961387D01*
X151534814Y-98812565D01*
X151535504Y-98806000D01*
X151524024Y-98696772D01*
X151516232Y-98622635D01*
X151516232Y-98622633D01*
X151515542Y-98616072D01*
X151456527Y-98434444D01*
X151361040Y-98269056D01*
X151336826Y-98242163D01*
X151237675Y-98132045D01*
X151237674Y-98132044D01*
X151233253Y-98127134D01*
X151078752Y-98014882D01*
X151072724Y-98012198D01*
X151072722Y-98012197D01*
X150910319Y-97939891D01*
X150910318Y-97939891D01*
X150904288Y-97937206D01*
X150802170Y-97915500D01*
X150723944Y-97898872D01*
X150723939Y-97898872D01*
X150717487Y-97897500D01*
X150661594Y-97897500D01*
X150593473Y-97877498D01*
X150572499Y-97860595D01*
X149462679Y-96750774D01*
X148331652Y-95619747D01*
X148324112Y-95611461D01*
X148320000Y-95604982D01*
X148307614Y-95593351D01*
X148271648Y-95532138D01*
X148274485Y-95461198D01*
X148315225Y-95403054D01*
X148380933Y-95376165D01*
X148393866Y-95375500D01*
X151615186Y-95375500D01*
X151683307Y-95395502D01*
X151729800Y-95449158D01*
X151740898Y-95500176D01*
X151740496Y-95504000D01*
X151741186Y-95510565D01*
X151759690Y-95686617D01*
X151760458Y-95693928D01*
X151819473Y-95875556D01*
X151822776Y-95881278D01*
X151822777Y-95881279D01*
X151843291Y-95916810D01*
X151914960Y-96040944D01*
X151919378Y-96045851D01*
X151919379Y-96045852D01*
X152038325Y-96177955D01*
X152042747Y-96182866D01*
X152197248Y-96295118D01*
X152203276Y-96297802D01*
X152203278Y-96297803D01*
X152365681Y-96370109D01*
X152371712Y-96372794D01*
X152465112Y-96392647D01*
X152552056Y-96411128D01*
X152552061Y-96411128D01*
X152558513Y-96412500D01*
X152614406Y-96412500D01*
X152682527Y-96432502D01*
X152703501Y-96449405D01*
X155414859Y-99160764D01*
X155422399Y-99169050D01*
X155426511Y-99175529D01*
X155432288Y-99180954D01*
X155476162Y-99222154D01*
X155479004Y-99224909D01*
X155498741Y-99244646D01*
X155501938Y-99247126D01*
X155510958Y-99254829D01*
X155543190Y-99285097D01*
X155550136Y-99288916D01*
X155550139Y-99288918D01*
X155560945Y-99294859D01*
X155577464Y-99305710D01*
X155593470Y-99318125D01*
X155600739Y-99321270D01*
X155600743Y-99321273D01*
X155634048Y-99335685D01*
X155644698Y-99340902D01*
X155683451Y-99362206D01*
X155691126Y-99364177D01*
X155691127Y-99364177D01*
X155703073Y-99367244D01*
X155721778Y-99373648D01*
X155740366Y-99381692D01*
X155748189Y-99382931D01*
X155748199Y-99382934D01*
X155784035Y-99388610D01*
X155795655Y-99391016D01*
X155830800Y-99400039D01*
X155838481Y-99402011D01*
X155858735Y-99402011D01*
X155878445Y-99403562D01*
X155898454Y-99406731D01*
X155906346Y-99405985D01*
X155942472Y-99402570D01*
X155954330Y-99402011D01*
X157503786Y-99402011D01*
X157571907Y-99422013D01*
X157618400Y-99475669D01*
X157628504Y-99545943D01*
X157623621Y-99566940D01*
X157602458Y-99632072D01*
X157601768Y-99638633D01*
X157601768Y-99638635D01*
X157585093Y-99797292D01*
X157558080Y-99862949D01*
X157548878Y-99873217D01*
X154714500Y-102707595D01*
X154652188Y-102741621D01*
X154625405Y-102744500D01*
X140916200Y-102744500D01*
X140848079Y-102724498D01*
X140828853Y-102708157D01*
X140828580Y-102708460D01*
X140823668Y-102704037D01*
X140819253Y-102699134D01*
X140664752Y-102586882D01*
X140658724Y-102584198D01*
X140658722Y-102584197D01*
X140496319Y-102511891D01*
X140496318Y-102511891D01*
X140490288Y-102509206D01*
X140396887Y-102489353D01*
X140309944Y-102470872D01*
X140309939Y-102470872D01*
X140303487Y-102469500D01*
X140112513Y-102469500D01*
X140106061Y-102470872D01*
X140106056Y-102470872D01*
X140019112Y-102489353D01*
X139925712Y-102509206D01*
X139919682Y-102511891D01*
X139919681Y-102511891D01*
X139757278Y-102584197D01*
X139757276Y-102584198D01*
X139751248Y-102586882D01*
X139596747Y-102699134D01*
X139592332Y-102704037D01*
X139587420Y-102708460D01*
X139586295Y-102707211D01*
X139532986Y-102740051D01*
X139499800Y-102744500D01*
X136204594Y-102744500D01*
X136136473Y-102724498D01*
X136115499Y-102707595D01*
X132011122Y-98603217D01*
X131977096Y-98540905D01*
X131974907Y-98527292D01*
X131974852Y-98526763D01*
X131962251Y-98406872D01*
X131958232Y-98368635D01*
X131958232Y-98368633D01*
X131957542Y-98362072D01*
X131898527Y-98180444D01*
X131884028Y-98155330D01*
X131845016Y-98087760D01*
X131803040Y-98015056D01*
X131779722Y-97989158D01*
X131679675Y-97878045D01*
X131679674Y-97878044D01*
X131675253Y-97873134D01*
X131520752Y-97760882D01*
X131514724Y-97758198D01*
X131514722Y-97758197D01*
X131352319Y-97685891D01*
X131352318Y-97685891D01*
X131346288Y-97683206D01*
X131233721Y-97659279D01*
X131165944Y-97644872D01*
X131165939Y-97644872D01*
X131159487Y-97643500D01*
X130968513Y-97643500D01*
X130962061Y-97644872D01*
X130962056Y-97644872D01*
X130894279Y-97659279D01*
X130781712Y-97683206D01*
X130775682Y-97685891D01*
X130775681Y-97685891D01*
X130613278Y-97758197D01*
X130613276Y-97758198D01*
X130607248Y-97760882D01*
X130452747Y-97873134D01*
X130448326Y-97878044D01*
X130448325Y-97878045D01*
X130348279Y-97989158D01*
X130324960Y-98015056D01*
X130282984Y-98087760D01*
X130243973Y-98155330D01*
X130229473Y-98180444D01*
X130218002Y-98215749D01*
X130184636Y-98318437D01*
X130144562Y-98377042D01*
X130079165Y-98404679D01*
X130064803Y-98405500D01*
X129952513Y-98405500D01*
X129946061Y-98406872D01*
X129946056Y-98406872D01*
X129859113Y-98425353D01*
X129765712Y-98445206D01*
X129759682Y-98447891D01*
X129759681Y-98447891D01*
X129597278Y-98520197D01*
X129597276Y-98520198D01*
X129591248Y-98522882D01*
X129585907Y-98526762D01*
X129585906Y-98526763D01*
X129551171Y-98552000D01*
X129436747Y-98635134D01*
X129432326Y-98640044D01*
X129432325Y-98640045D01*
X129329016Y-98754782D01*
X129308960Y-98777056D01*
X129251491Y-98876595D01*
X129219792Y-98931500D01*
X129213473Y-98942444D01*
X129154458Y-99124072D01*
X129153768Y-99130633D01*
X129153768Y-99130635D01*
X129141525Y-99247119D01*
X129134496Y-99314000D01*
X129135186Y-99320565D01*
X129152863Y-99488749D01*
X129154458Y-99503928D01*
X129213473Y-99685556D01*
X129216776Y-99691278D01*
X129216777Y-99691279D01*
X129245750Y-99741461D01*
X129262488Y-99810456D01*
X129239268Y-99877548D01*
X129183461Y-99921435D01*
X129127487Y-99929212D01*
X129127487Y-99929500D01*
X128936513Y-99929500D01*
X128930061Y-99930872D01*
X128930056Y-99930872D01*
X128843112Y-99949353D01*
X128749712Y-99969206D01*
X128743685Y-99971889D01*
X128743677Y-99971892D01*
X128677361Y-100001418D01*
X128606994Y-100010852D01*
X128542697Y-99980745D01*
X128504884Y-99920656D01*
X128505560Y-99849663D01*
X128516994Y-99823311D01*
X128593223Y-99691279D01*
X128593224Y-99691278D01*
X128596527Y-99685556D01*
X128655542Y-99503928D01*
X128657138Y-99488749D01*
X128674814Y-99320565D01*
X128675504Y-99314000D01*
X128668475Y-99247119D01*
X128656232Y-99130635D01*
X128656232Y-99130633D01*
X128655542Y-99124072D01*
X128596527Y-98942444D01*
X128590209Y-98931500D01*
X128558509Y-98876595D01*
X128501040Y-98777056D01*
X128488431Y-98763052D01*
X128377668Y-98640037D01*
X128377666Y-98640035D01*
X128373253Y-98635134D01*
X128374062Y-98634406D01*
X128340126Y-98579311D01*
X128341484Y-98508327D01*
X128372584Y-98457037D01*
X134719216Y-92110405D01*
X134781528Y-92076379D01*
X134808311Y-92073500D01*
X142293800Y-92073500D01*
X142361921Y-92093502D01*
X142381147Y-92109843D01*
X142381420Y-92109540D01*
X142386332Y-92113963D01*
X142390747Y-92118866D01*
X142412329Y-92134546D01*
X142492525Y-92192812D01*
X142545248Y-92231118D01*
X142551276Y-92233802D01*
X142551278Y-92233803D01*
X142713681Y-92306109D01*
X142719712Y-92308794D01*
X142813112Y-92328647D01*
X142900056Y-92347128D01*
X142900061Y-92347128D01*
X142906513Y-92348500D01*
X143097487Y-92348500D01*
X143103939Y-92347128D01*
X143103944Y-92347128D01*
X143190888Y-92328647D01*
X143284288Y-92308794D01*
X143290319Y-92306109D01*
X143452722Y-92233803D01*
X143452724Y-92233802D01*
X143458752Y-92231118D01*
X143613253Y-92118866D01*
X143636091Y-92093502D01*
X143736621Y-91981852D01*
X143736622Y-91981851D01*
X143741040Y-91976944D01*
X143836527Y-91811556D01*
X143895542Y-91629928D01*
X143898826Y-91598688D01*
X143914814Y-91446565D01*
X143915504Y-91440000D01*
X143895542Y-91250072D01*
X143836527Y-91068444D01*
X143741040Y-90903056D01*
X143613253Y-90761134D01*
X143458752Y-90648882D01*
X143452724Y-90646198D01*
X143452722Y-90646197D01*
X143290319Y-90573891D01*
X143290318Y-90573891D01*
X143284288Y-90571206D01*
X143190887Y-90551353D01*
X143103944Y-90532872D01*
X143103939Y-90532872D01*
X143097487Y-90531500D01*
X142906513Y-90531500D01*
X142900061Y-90532872D01*
X142900056Y-90532872D01*
X142813113Y-90551353D01*
X142719712Y-90571206D01*
X142713682Y-90573891D01*
X142713681Y-90573891D01*
X142551278Y-90646197D01*
X142551276Y-90646198D01*
X142545248Y-90648882D01*
X142390747Y-90761134D01*
X142386332Y-90766037D01*
X142381420Y-90770460D01*
X142380295Y-90769211D01*
X142326986Y-90802051D01*
X142293800Y-90806500D01*
X136085419Y-90806500D01*
X136017298Y-90786498D01*
X135970805Y-90732842D01*
X135960701Y-90662568D01*
X135990195Y-90597988D01*
X135993255Y-90594868D01*
X135993253Y-90594866D01*
X136116621Y-90457852D01*
X136116622Y-90457851D01*
X136121040Y-90452944D01*
X136216527Y-90287556D01*
X136275542Y-90105928D01*
X136295504Y-89916000D01*
X136292907Y-89891293D01*
X136276232Y-89732635D01*
X136276232Y-89732633D01*
X136275542Y-89726072D01*
X136216527Y-89544444D01*
X136172681Y-89468500D01*
X136155943Y-89399504D01*
X136179164Y-89332413D01*
X136234971Y-89288526D01*
X136281800Y-89279500D01*
X137986733Y-89279500D01*
X137997916Y-89280027D01*
X138005409Y-89281702D01*
X138013335Y-89281453D01*
X138013336Y-89281453D01*
X138073486Y-89279562D01*
X138077445Y-89279500D01*
X138105356Y-89279500D01*
X138109291Y-89279003D01*
X138109356Y-89278995D01*
X138121193Y-89278062D01*
X138153451Y-89277048D01*
X138157470Y-89276922D01*
X138165389Y-89276673D01*
X138184843Y-89271021D01*
X138204200Y-89267013D01*
X138216430Y-89265468D01*
X138216431Y-89265468D01*
X138224297Y-89264474D01*
X138231668Y-89261555D01*
X138231670Y-89261555D01*
X138265412Y-89248196D01*
X138276642Y-89244351D01*
X138311483Y-89234229D01*
X138311484Y-89234229D01*
X138319093Y-89232018D01*
X138325912Y-89227985D01*
X138325917Y-89227983D01*
X138336528Y-89221707D01*
X138354276Y-89213012D01*
X138373117Y-89205552D01*
X138408887Y-89179564D01*
X138418807Y-89173048D01*
X138450035Y-89154580D01*
X138450038Y-89154578D01*
X138456862Y-89150542D01*
X138471183Y-89136221D01*
X138486217Y-89123380D01*
X138496194Y-89116131D01*
X138502607Y-89111472D01*
X138530798Y-89077395D01*
X138538788Y-89068616D01*
X145589278Y-82018126D01*
X145651590Y-81984100D01*
X145710984Y-81985514D01*
X145733858Y-81991643D01*
X145750037Y-81995978D01*
X145971500Y-82015353D01*
X146192963Y-81995978D01*
X146349794Y-81953955D01*
X146402386Y-81939863D01*
X146402388Y-81939862D01*
X146407696Y-81938440D01*
X146413690Y-81935645D01*
X146604190Y-81846814D01*
X146604195Y-81846811D01*
X146609177Y-81844488D01*
X146674459Y-81798777D01*
X147817277Y-81798777D01*
X147826574Y-81810793D01*
X147869569Y-81840898D01*
X147879055Y-81846376D01*
X148070493Y-81935645D01*
X148080785Y-81939391D01*
X148284809Y-81994059D01*
X148295604Y-81995962D01*
X148506025Y-82014372D01*
X148516975Y-82014372D01*
X148727396Y-81995962D01*
X148738191Y-81994059D01*
X148942215Y-81939391D01*
X148952507Y-81935645D01*
X149143945Y-81846376D01*
X149153431Y-81840898D01*
X149197264Y-81810207D01*
X149205639Y-81799729D01*
X149198571Y-81786281D01*
X148524312Y-81112022D01*
X148510368Y-81104408D01*
X148508535Y-81104539D01*
X148501920Y-81108790D01*
X147823707Y-81787003D01*
X147817277Y-81798777D01*
X146674459Y-81798777D01*
X146740042Y-81752855D01*
X146786770Y-81720136D01*
X146786773Y-81720134D01*
X146791281Y-81716977D01*
X146948477Y-81559781D01*
X146954048Y-81551826D01*
X147072831Y-81382185D01*
X147072832Y-81382183D01*
X147075988Y-81377676D01*
X147078311Y-81372694D01*
X147078314Y-81372689D01*
X147127581Y-81267035D01*
X147174499Y-81213750D01*
X147242776Y-81194289D01*
X147310736Y-81214831D01*
X147355971Y-81267035D01*
X147405123Y-81372441D01*
X147410603Y-81381932D01*
X147441294Y-81425765D01*
X147451771Y-81434140D01*
X147465218Y-81427072D01*
X148139478Y-80752812D01*
X148145856Y-80741132D01*
X148875908Y-80741132D01*
X148876039Y-80742965D01*
X148880290Y-80749580D01*
X149558503Y-81427793D01*
X149570277Y-81434223D01*
X149582293Y-81424926D01*
X149612397Y-81381932D01*
X149617877Y-81372441D01*
X149667029Y-81267035D01*
X149713947Y-81213750D01*
X149782224Y-81194289D01*
X149850184Y-81214831D01*
X149895419Y-81267035D01*
X149944686Y-81372689D01*
X149944689Y-81372694D01*
X149947012Y-81377676D01*
X149950168Y-81382183D01*
X149950169Y-81382185D01*
X150068953Y-81551826D01*
X150074523Y-81559781D01*
X150231719Y-81716977D01*
X150236227Y-81720134D01*
X150236230Y-81720136D01*
X150282958Y-81752855D01*
X150413823Y-81844488D01*
X150418805Y-81846811D01*
X150418810Y-81846814D01*
X150609310Y-81935645D01*
X150615304Y-81938440D01*
X150620612Y-81939862D01*
X150620614Y-81939863D01*
X150673206Y-81953955D01*
X150830037Y-81995978D01*
X151051500Y-82015353D01*
X151272963Y-81995978D01*
X151429794Y-81953955D01*
X151482386Y-81939863D01*
X151482388Y-81939862D01*
X151487696Y-81938440D01*
X151493690Y-81935645D01*
X151684190Y-81846814D01*
X151684195Y-81846811D01*
X151689177Y-81844488D01*
X151820042Y-81752855D01*
X151866770Y-81720136D01*
X151866773Y-81720134D01*
X151871281Y-81716977D01*
X152028477Y-81559781D01*
X152034048Y-81551826D01*
X152152831Y-81382185D01*
X152152832Y-81382183D01*
X152155988Y-81377676D01*
X152158311Y-81372694D01*
X152158314Y-81372689D01*
X152233682Y-81211061D01*
X159678110Y-81211061D01*
X159681706Y-81283301D01*
X159694415Y-81538586D01*
X159694647Y-81543255D01*
X159695288Y-81546986D01*
X159695289Y-81546994D01*
X159746409Y-81844488D01*
X159750974Y-81871057D01*
X159752062Y-81874696D01*
X159752063Y-81874699D01*
X159842544Y-82177245D01*
X159846274Y-82189718D01*
X159847787Y-82193189D01*
X159847789Y-82193195D01*
X159930797Y-82383645D01*
X159979166Y-82494622D01*
X159981089Y-82497893D01*
X159981091Y-82497897D01*
X160017683Y-82560141D01*
X160147726Y-82781352D01*
X160150027Y-82784367D01*
X160347212Y-83042742D01*
X160347217Y-83042748D01*
X160349512Y-83045755D01*
X160581602Y-83284002D01*
X160840632Y-83492640D01*
X160922535Y-83543719D01*
X161099402Y-83654023D01*
X161122852Y-83668648D01*
X161424172Y-83809476D01*
X161427781Y-83810659D01*
X161581870Y-83861172D01*
X161740229Y-83913085D01*
X162066444Y-83977973D01*
X162070216Y-83978260D01*
X162070224Y-83978261D01*
X162394315Y-84002914D01*
X162394320Y-84002914D01*
X162398092Y-84003201D01*
X162730369Y-83988403D01*
X162737362Y-83987239D01*
X163054720Y-83934417D01*
X163054725Y-83934416D01*
X163058461Y-83933794D01*
X163377616Y-83840164D01*
X163381083Y-83838674D01*
X163381087Y-83838673D01*
X163679728Y-83710366D01*
X163679730Y-83710365D01*
X163683212Y-83708869D01*
X163970821Y-83541813D01*
X163973843Y-83539532D01*
X163973847Y-83539529D01*
X164233253Y-83343697D01*
X164233254Y-83343696D01*
X164236277Y-83341414D01*
X164475735Y-83110575D01*
X164685727Y-82852641D01*
X164845678Y-82599134D01*
X164861183Y-82574560D01*
X164861185Y-82574557D01*
X164863210Y-82571347D01*
X164866371Y-82564676D01*
X164967417Y-82351392D01*
X165005614Y-82270767D01*
X165009434Y-82259319D01*
X165071408Y-82073560D01*
X165110877Y-81955257D01*
X165177472Y-81629386D01*
X165204436Y-81297875D01*
X165205042Y-81240000D01*
X165203460Y-81213750D01*
X165185255Y-80911772D01*
X165185254Y-80911765D01*
X165185027Y-80907997D01*
X165125270Y-80580803D01*
X165107638Y-80524016D01*
X165027761Y-80266771D01*
X165026639Y-80263157D01*
X164890561Y-79959662D01*
X164778082Y-79772836D01*
X164720966Y-79677966D01*
X164720962Y-79677960D01*
X164719007Y-79674713D01*
X164716680Y-79671729D01*
X164716675Y-79671722D01*
X164516794Y-79415425D01*
X164516788Y-79415418D01*
X164514463Y-79412437D01*
X164279892Y-79176634D01*
X164018691Y-78970720D01*
X163734644Y-78797677D01*
X163613546Y-78742617D01*
X163435317Y-78661580D01*
X163435309Y-78661577D01*
X163431865Y-78660011D01*
X163114740Y-78559718D01*
X162892396Y-78517906D01*
X162791587Y-78498949D01*
X162791585Y-78498949D01*
X162787864Y-78498249D01*
X162455970Y-78476496D01*
X162452190Y-78476704D01*
X162452189Y-78476704D01*
X162354418Y-78482085D01*
X162123866Y-78494773D01*
X162120139Y-78495434D01*
X162120135Y-78495434D01*
X161861010Y-78541358D01*
X161796364Y-78552815D01*
X161792739Y-78553920D01*
X161792734Y-78553921D01*
X161611918Y-78609030D01*
X161478207Y-78649782D01*
X161474743Y-78651313D01*
X161474736Y-78651316D01*
X161287551Y-78734070D01*
X161174003Y-78784269D01*
X161170749Y-78786205D01*
X161170743Y-78786208D01*
X161053156Y-78856165D01*
X160888159Y-78954328D01*
X160624816Y-79157496D01*
X160387788Y-79390829D01*
X160180509Y-79650949D01*
X160005981Y-79934086D01*
X159866732Y-80236140D01*
X159865573Y-80239740D01*
X159865570Y-80239747D01*
X159774028Y-80524016D01*
X159764780Y-80552735D01*
X159764061Y-80556451D01*
X159764059Y-80556459D01*
X159716710Y-80801187D01*
X159701600Y-80879285D01*
X159701333Y-80883061D01*
X159701332Y-80883066D01*
X159678378Y-81207272D01*
X159678110Y-81211061D01*
X152233682Y-81211061D01*
X152247617Y-81181178D01*
X152247618Y-81181177D01*
X152249940Y-81176196D01*
X152266938Y-81112761D01*
X152282375Y-81055149D01*
X152307478Y-80961463D01*
X152326853Y-80740000D01*
X152307478Y-80518537D01*
X152249940Y-80303804D01*
X152216782Y-80232696D01*
X152158314Y-80107311D01*
X152158311Y-80107306D01*
X152155988Y-80102324D01*
X152124164Y-80056874D01*
X152031636Y-79924730D01*
X152031634Y-79924727D01*
X152028477Y-79920219D01*
X151871281Y-79763023D01*
X151866773Y-79759866D01*
X151866770Y-79759864D01*
X151791005Y-79706813D01*
X151689177Y-79635512D01*
X151684195Y-79633189D01*
X151684190Y-79633186D01*
X151492678Y-79543883D01*
X151492677Y-79543882D01*
X151487696Y-79541560D01*
X151482388Y-79540138D01*
X151482386Y-79540137D01*
X151416551Y-79522497D01*
X151272963Y-79484022D01*
X151051500Y-79464647D01*
X150830037Y-79484022D01*
X150686449Y-79522497D01*
X150620614Y-79540137D01*
X150620612Y-79540138D01*
X150615304Y-79541560D01*
X150610323Y-79543882D01*
X150610322Y-79543883D01*
X150418811Y-79633186D01*
X150418806Y-79633189D01*
X150413824Y-79635512D01*
X150409317Y-79638668D01*
X150409315Y-79638669D01*
X150236230Y-79759864D01*
X150236227Y-79759866D01*
X150231719Y-79763023D01*
X150074523Y-79920219D01*
X150071366Y-79924727D01*
X150071364Y-79924730D01*
X149978836Y-80056874D01*
X149947012Y-80102324D01*
X149944689Y-80107306D01*
X149944686Y-80107311D01*
X149895419Y-80212965D01*
X149848501Y-80266250D01*
X149780224Y-80285711D01*
X149712264Y-80265169D01*
X149667029Y-80212965D01*
X149617877Y-80107559D01*
X149612397Y-80098068D01*
X149581706Y-80054235D01*
X149571229Y-80045860D01*
X149557782Y-80052928D01*
X148883522Y-80727188D01*
X148875908Y-80741132D01*
X148145856Y-80741132D01*
X148147092Y-80738868D01*
X148146961Y-80737035D01*
X148142710Y-80730420D01*
X147464497Y-80052207D01*
X147452723Y-80045777D01*
X147440707Y-80055074D01*
X147410603Y-80098068D01*
X147405123Y-80107559D01*
X147355971Y-80212965D01*
X147309053Y-80266250D01*
X147240776Y-80285711D01*
X147172816Y-80265169D01*
X147127581Y-80212965D01*
X147078314Y-80107311D01*
X147078311Y-80107306D01*
X147075988Y-80102324D01*
X147044164Y-80056874D01*
X146951636Y-79924730D01*
X146951634Y-79924727D01*
X146948477Y-79920219D01*
X146791281Y-79763023D01*
X146786773Y-79759866D01*
X146786770Y-79759864D01*
X146711005Y-79706813D01*
X146673099Y-79680271D01*
X147817360Y-79680271D01*
X147824428Y-79693718D01*
X148498688Y-80367978D01*
X148512632Y-80375592D01*
X148514465Y-80375461D01*
X148521080Y-80371210D01*
X149199293Y-79692997D01*
X149205723Y-79681223D01*
X149196426Y-79669207D01*
X149153431Y-79639102D01*
X149143945Y-79633624D01*
X148952507Y-79544355D01*
X148942215Y-79540609D01*
X148738191Y-79485941D01*
X148727396Y-79484038D01*
X148516975Y-79465628D01*
X148506025Y-79465628D01*
X148295604Y-79484038D01*
X148284809Y-79485941D01*
X148080785Y-79540609D01*
X148070493Y-79544355D01*
X147879059Y-79633623D01*
X147869568Y-79639103D01*
X147825735Y-79669794D01*
X147817360Y-79680271D01*
X146673099Y-79680271D01*
X146609177Y-79635512D01*
X146604195Y-79633189D01*
X146604190Y-79633186D01*
X146412678Y-79543883D01*
X146412677Y-79543882D01*
X146407696Y-79541560D01*
X146402388Y-79540138D01*
X146402386Y-79540137D01*
X146336551Y-79522497D01*
X146192963Y-79484022D01*
X145971500Y-79464647D01*
X145750037Y-79484022D01*
X145606449Y-79522497D01*
X145540614Y-79540137D01*
X145540612Y-79540138D01*
X145535304Y-79541560D01*
X145530323Y-79543882D01*
X145530322Y-79543883D01*
X145338811Y-79633186D01*
X145338806Y-79633189D01*
X145333824Y-79635512D01*
X145329317Y-79638668D01*
X145329315Y-79638669D01*
X145156230Y-79759864D01*
X145156227Y-79759866D01*
X145151719Y-79763023D01*
X144994523Y-79920219D01*
X144991366Y-79924727D01*
X144991364Y-79924730D01*
X144898836Y-80056874D01*
X144867012Y-80102324D01*
X144864689Y-80107306D01*
X144864686Y-80107311D01*
X144815695Y-80212373D01*
X144768777Y-80265658D01*
X144700500Y-80285119D01*
X144632540Y-80264577D01*
X144587305Y-80212373D01*
X144538314Y-80107311D01*
X144538311Y-80107306D01*
X144535988Y-80102324D01*
X144504164Y-80056874D01*
X144411636Y-79924730D01*
X144411634Y-79924727D01*
X144408477Y-79920219D01*
X144251281Y-79763023D01*
X144246773Y-79759866D01*
X144246770Y-79759864D01*
X144171005Y-79706813D01*
X144069177Y-79635512D01*
X144064195Y-79633189D01*
X144064190Y-79633186D01*
X143872678Y-79543883D01*
X143872677Y-79543882D01*
X143867696Y-79541560D01*
X143862388Y-79540138D01*
X143862386Y-79540137D01*
X143796551Y-79522497D01*
X143652963Y-79484022D01*
X143431500Y-79464647D01*
X143210037Y-79484022D01*
X143066449Y-79522497D01*
X143000614Y-79540137D01*
X143000612Y-79540138D01*
X142995304Y-79541560D01*
X142990323Y-79543882D01*
X142990322Y-79543883D01*
X142798811Y-79633186D01*
X142798806Y-79633189D01*
X142793824Y-79635512D01*
X142789317Y-79638668D01*
X142789315Y-79638669D01*
X142616230Y-79759864D01*
X142616227Y-79759866D01*
X142611719Y-79763023D01*
X142454523Y-79920219D01*
X142451366Y-79924727D01*
X142451364Y-79924730D01*
X142358836Y-80056874D01*
X142327012Y-80102324D01*
X142324689Y-80107306D01*
X142324686Y-80107311D01*
X142266218Y-80232696D01*
X142233060Y-80303804D01*
X142175522Y-80518537D01*
X142156147Y-80740000D01*
X142175522Y-80961463D01*
X142176946Y-80966776D01*
X142176947Y-80966783D01*
X142185985Y-81000514D01*
X142184296Y-81071490D01*
X142153374Y-81122221D01*
X136316000Y-86959595D01*
X136253688Y-86993621D01*
X136226905Y-86996500D01*
X124406200Y-86996500D01*
X124338079Y-86976498D01*
X124318853Y-86960157D01*
X124318580Y-86960460D01*
X124313668Y-86956037D01*
X124309253Y-86951134D01*
X124154752Y-86838882D01*
X124148724Y-86836198D01*
X124148722Y-86836197D01*
X123986319Y-86763891D01*
X123986318Y-86763891D01*
X123980288Y-86761206D01*
X123886887Y-86741353D01*
X123799944Y-86722872D01*
X123799939Y-86722872D01*
X123793487Y-86721500D01*
X123602513Y-86721500D01*
X123596061Y-86722872D01*
X123596056Y-86722872D01*
X123509113Y-86741353D01*
X123415712Y-86761206D01*
X123409682Y-86763891D01*
X123409681Y-86763891D01*
X123247278Y-86836197D01*
X123247276Y-86836198D01*
X123241248Y-86838882D01*
X123086747Y-86951134D01*
X123082326Y-86956044D01*
X123082325Y-86956045D01*
X123048492Y-86993621D01*
X122958960Y-87093056D01*
X122863473Y-87258444D01*
X122804458Y-87440072D01*
X122784496Y-87630000D01*
X122785186Y-87636565D01*
X122802783Y-87803988D01*
X122804458Y-87819928D01*
X122806498Y-87826205D01*
X122806498Y-87826207D01*
X122806615Y-87826567D01*
X122806621Y-87826787D01*
X122807871Y-87832666D01*
X122806796Y-87832895D01*
X122808641Y-87897534D01*
X122771977Y-87958331D01*
X122708264Y-87989655D01*
X122686781Y-87991500D01*
X122586513Y-87991500D01*
X122580061Y-87992872D01*
X122580056Y-87992872D01*
X122501261Y-88009621D01*
X122399712Y-88031206D01*
X122393682Y-88033891D01*
X122393681Y-88033891D01*
X122231278Y-88106197D01*
X122231276Y-88106198D01*
X122225248Y-88108882D01*
X122070747Y-88221134D01*
X121942960Y-88363056D01*
X121847473Y-88528444D01*
X121788458Y-88710072D01*
X121768496Y-88900000D01*
X121769186Y-88906565D01*
X121786661Y-89072827D01*
X121788458Y-89089928D01*
X121847473Y-89271556D01*
X121850776Y-89277278D01*
X121850777Y-89277279D01*
X121852059Y-89279500D01*
X121942960Y-89436944D01*
X122070747Y-89578866D01*
X122225248Y-89691118D01*
X122231276Y-89693802D01*
X122231278Y-89693803D01*
X122303756Y-89726072D01*
X122399712Y-89768794D01*
X122493112Y-89788647D01*
X122580056Y-89807128D01*
X122580061Y-89807128D01*
X122586513Y-89808500D01*
X122777487Y-89808500D01*
X122783939Y-89807128D01*
X122783944Y-89807128D01*
X122870887Y-89788647D01*
X122964288Y-89768794D01*
X123060244Y-89726072D01*
X123132722Y-89693803D01*
X123132724Y-89693802D01*
X123138752Y-89691118D01*
X123293253Y-89578866D01*
X123421040Y-89436944D01*
X123475569Y-89342498D01*
X123526951Y-89293506D01*
X123584687Y-89279500D01*
X134482200Y-89279500D01*
X134550321Y-89299502D01*
X134596814Y-89353158D01*
X134606918Y-89423432D01*
X134591319Y-89468500D01*
X134547473Y-89544444D01*
X134488458Y-89726072D01*
X134487768Y-89732633D01*
X134487768Y-89732635D01*
X134471093Y-89891293D01*
X134444080Y-89956950D01*
X134434878Y-89967218D01*
X127790500Y-96611595D01*
X127728188Y-96645621D01*
X127701405Y-96648500D01*
X123644200Y-96648500D01*
X123576079Y-96628498D01*
X123556853Y-96612157D01*
X123556580Y-96612460D01*
X123551668Y-96608037D01*
X123547253Y-96603134D01*
X123512376Y-96577794D01*
X123398094Y-96494763D01*
X123398093Y-96494762D01*
X123392752Y-96490882D01*
X123386724Y-96488198D01*
X123386722Y-96488197D01*
X123224319Y-96415891D01*
X123224318Y-96415891D01*
X123218288Y-96413206D01*
X123105721Y-96389279D01*
X123037944Y-96374872D01*
X123037939Y-96374872D01*
X123031487Y-96373500D01*
X122840513Y-96373500D01*
X122834061Y-96374872D01*
X122834056Y-96374872D01*
X122766279Y-96389279D01*
X122653712Y-96413206D01*
X122647682Y-96415891D01*
X122647681Y-96415891D01*
X122485278Y-96488197D01*
X122485276Y-96488198D01*
X122479248Y-96490882D01*
X122324747Y-96603134D01*
X122320326Y-96608044D01*
X122320325Y-96608045D01*
X122215154Y-96724850D01*
X122196960Y-96745056D01*
X122180249Y-96774000D01*
X122112592Y-96891186D01*
X122101473Y-96910444D01*
X122042458Y-97092072D01*
X122041768Y-97098633D01*
X122041768Y-97098635D01*
X122037497Y-97139271D01*
X122022496Y-97282000D01*
X122023186Y-97288565D01*
X122037858Y-97428158D01*
X122042458Y-97471928D01*
X122101473Y-97653556D01*
X122196960Y-97818944D01*
X122201378Y-97823851D01*
X122201379Y-97823852D01*
X122245753Y-97873134D01*
X122324747Y-97960866D01*
X122479248Y-98073118D01*
X122485276Y-98075802D01*
X122485278Y-98075803D01*
X122647681Y-98148109D01*
X122653712Y-98150794D01*
X122731423Y-98167312D01*
X122834056Y-98189128D01*
X122834061Y-98189128D01*
X122840513Y-98190500D01*
X123031487Y-98190500D01*
X123037939Y-98189128D01*
X123037944Y-98189128D01*
X123140577Y-98167312D01*
X123218288Y-98150794D01*
X123224319Y-98148109D01*
X123386722Y-98075803D01*
X123386724Y-98075802D01*
X123392752Y-98073118D01*
X123432830Y-98044000D01*
X123525671Y-97976546D01*
X123547253Y-97960866D01*
X123551668Y-97955963D01*
X123556580Y-97951540D01*
X123557705Y-97952789D01*
X123611014Y-97919949D01*
X123644200Y-97915500D01*
X126818122Y-97915500D01*
X126886243Y-97935502D01*
X126932736Y-97989158D01*
X126942840Y-98059432D01*
X126913346Y-98124012D01*
X126907217Y-98130595D01*
X125690925Y-99346887D01*
X125628613Y-99380913D01*
X125557798Y-99375848D01*
X125527769Y-99359728D01*
X125430094Y-99288763D01*
X125430093Y-99288762D01*
X125424752Y-99284882D01*
X125418724Y-99282198D01*
X125418722Y-99282197D01*
X125256319Y-99209891D01*
X125256318Y-99209891D01*
X125250288Y-99207206D01*
X125137721Y-99183279D01*
X125069944Y-99168872D01*
X125069939Y-99168872D01*
X125063487Y-99167500D01*
X124872513Y-99167500D01*
X124866061Y-99168872D01*
X124866056Y-99168872D01*
X124798279Y-99183279D01*
X124685712Y-99207206D01*
X124679682Y-99209891D01*
X124679681Y-99209891D01*
X124517278Y-99282197D01*
X124517276Y-99282198D01*
X124511248Y-99284882D01*
X124505907Y-99288762D01*
X124505906Y-99288763D01*
X124472177Y-99313269D01*
X124356747Y-99397134D01*
X124352326Y-99402044D01*
X124352325Y-99402045D01*
X124254937Y-99510206D01*
X124228960Y-99539056D01*
X124133473Y-99704444D01*
X124074458Y-99886072D01*
X124073768Y-99892633D01*
X124073768Y-99892635D01*
X124057556Y-100046882D01*
X124054496Y-100076000D01*
X124055186Y-100082565D01*
X124071176Y-100234697D01*
X124074458Y-100265928D01*
X124133473Y-100447556D01*
X124136776Y-100453278D01*
X124136777Y-100453279D01*
X124158868Y-100491541D01*
X124228960Y-100612944D01*
X124233378Y-100617851D01*
X124233379Y-100617852D01*
X124315452Y-100709003D01*
X124356747Y-100754866D01*
X124511248Y-100867118D01*
X124517276Y-100869802D01*
X124517278Y-100869803D01*
X124679681Y-100942109D01*
X124685712Y-100944794D01*
X124774521Y-100963671D01*
X124866056Y-100983128D01*
X124866061Y-100983128D01*
X124872513Y-100984500D01*
X125063487Y-100984500D01*
X125069939Y-100983128D01*
X125069944Y-100983128D01*
X125161479Y-100963671D01*
X125250288Y-100944794D01*
X125256319Y-100942109D01*
X125418722Y-100869803D01*
X125418724Y-100869802D01*
X125424752Y-100867118D01*
X125464830Y-100838000D01*
X125561995Y-100767405D01*
X125579253Y-100754866D01*
X125583668Y-100749963D01*
X125588580Y-100745540D01*
X125589705Y-100746789D01*
X125643014Y-100713949D01*
X125676200Y-100709500D01*
X125778950Y-100709500D01*
X125790133Y-100710027D01*
X125797626Y-100711702D01*
X125805552Y-100711453D01*
X125805553Y-100711453D01*
X125865703Y-100709562D01*
X125869662Y-100709500D01*
X125897573Y-100709500D01*
X125901508Y-100709003D01*
X125901573Y-100708995D01*
X125913410Y-100708062D01*
X125945668Y-100707048D01*
X125949687Y-100706922D01*
X125957606Y-100706673D01*
X125977060Y-100701021D01*
X125996417Y-100697013D01*
X126008647Y-100695468D01*
X126008648Y-100695468D01*
X126016514Y-100694474D01*
X126023885Y-100691555D01*
X126023887Y-100691555D01*
X126057629Y-100678196D01*
X126068859Y-100674351D01*
X126103700Y-100664229D01*
X126103701Y-100664229D01*
X126111310Y-100662018D01*
X126118129Y-100657985D01*
X126118134Y-100657983D01*
X126128745Y-100651707D01*
X126146493Y-100643012D01*
X126165334Y-100635552D01*
X126201104Y-100609564D01*
X126211024Y-100603048D01*
X126242252Y-100584580D01*
X126242255Y-100584578D01*
X126249079Y-100580542D01*
X126263400Y-100566221D01*
X126278434Y-100553380D01*
X126280062Y-100552197D01*
X126294824Y-100541472D01*
X126323015Y-100507395D01*
X126331005Y-100498616D01*
X126908092Y-99921529D01*
X126970404Y-99887503D01*
X127041219Y-99892568D01*
X127090818Y-99926308D01*
X127096132Y-99932209D01*
X127126852Y-99996214D01*
X127128500Y-100016524D01*
X127128500Y-100269406D01*
X127108498Y-100337527D01*
X127091595Y-100358501D01*
X121969500Y-105480595D01*
X121907188Y-105514621D01*
X121880405Y-105517500D01*
X121824513Y-105517500D01*
X121818061Y-105518872D01*
X121818056Y-105518872D01*
X121731112Y-105537353D01*
X121637712Y-105557206D01*
X121631682Y-105559891D01*
X121631681Y-105559891D01*
X121469278Y-105632197D01*
X121469276Y-105632198D01*
X121463248Y-105634882D01*
X121457907Y-105638762D01*
X121457906Y-105638763D01*
X121423171Y-105664000D01*
X121308747Y-105747134D01*
X121304326Y-105752044D01*
X121304325Y-105752045D01*
X121206937Y-105860206D01*
X121180960Y-105889056D01*
X121085473Y-106054444D01*
X121026458Y-106236072D01*
X121025768Y-106242633D01*
X121025768Y-106242635D01*
X121017720Y-106319206D01*
X121006496Y-106426000D01*
X113163904Y-106426000D01*
X114995297Y-104594607D01*
X115057609Y-104560581D01*
X115128424Y-104565646D01*
X115185260Y-104608193D01*
X115204225Y-104644765D01*
X115222852Y-104702092D01*
X115243473Y-104765556D01*
X115246776Y-104771278D01*
X115246777Y-104771279D01*
X115252601Y-104781366D01*
X115338960Y-104930944D01*
X115343378Y-104935851D01*
X115343379Y-104935852D01*
X115444808Y-105048500D01*
X115466747Y-105072866D01*
X115534578Y-105122148D01*
X115602505Y-105171500D01*
X115621248Y-105185118D01*
X115627276Y-105187802D01*
X115627278Y-105187803D01*
X115751851Y-105243266D01*
X115795712Y-105262794D01*
X115889112Y-105282647D01*
X115976056Y-105301128D01*
X115976061Y-105301128D01*
X115982513Y-105302500D01*
X116173487Y-105302500D01*
X116179939Y-105301128D01*
X116179944Y-105301128D01*
X116266887Y-105282647D01*
X116360288Y-105262794D01*
X116404149Y-105243266D01*
X116528722Y-105187803D01*
X116528724Y-105187802D01*
X116534752Y-105185118D01*
X116559478Y-105167153D01*
X116626344Y-105143296D01*
X116695496Y-105159376D01*
X116744976Y-105210289D01*
X116753370Y-105230151D01*
X116767473Y-105273556D01*
X116862960Y-105438944D01*
X116867378Y-105443851D01*
X116867379Y-105443852D01*
X116980679Y-105569684D01*
X116990747Y-105580866D01*
X117026474Y-105606823D01*
X117114207Y-105670565D01*
X117145248Y-105693118D01*
X117151276Y-105695802D01*
X117151278Y-105695803D01*
X117313681Y-105768109D01*
X117319712Y-105770794D01*
X117395132Y-105786825D01*
X117500056Y-105809128D01*
X117500061Y-105809128D01*
X117506513Y-105810500D01*
X117697487Y-105810500D01*
X117703939Y-105809128D01*
X117703944Y-105809128D01*
X117808868Y-105786825D01*
X117884288Y-105770794D01*
X117890319Y-105768109D01*
X118052722Y-105695803D01*
X118052724Y-105695802D01*
X118058752Y-105693118D01*
X118089794Y-105670565D01*
X118177526Y-105606823D01*
X118213253Y-105580866D01*
X118223321Y-105569684D01*
X118336621Y-105443852D01*
X118336622Y-105443851D01*
X118341040Y-105438944D01*
X118436527Y-105273556D01*
X118495542Y-105091928D01*
X118497138Y-105076749D01*
X118509188Y-104962091D01*
X118512907Y-104926706D01*
X118539920Y-104861050D01*
X118549113Y-104850791D01*
X119511422Y-103888483D01*
X119573732Y-103854459D01*
X119644548Y-103859524D01*
X119674573Y-103875643D01*
X119759784Y-103937552D01*
X119806778Y-103971695D01*
X119825261Y-103985124D01*
X119831289Y-103987808D01*
X119831291Y-103987809D01*
X119972379Y-104050625D01*
X119999725Y-104062800D01*
X120087936Y-104081550D01*
X120180069Y-104101134D01*
X120180074Y-104101134D01*
X120186526Y-104102506D01*
X120377500Y-104102506D01*
X120383952Y-104101134D01*
X120383957Y-104101134D01*
X120476090Y-104081550D01*
X120564301Y-104062800D01*
X120591647Y-104050625D01*
X120732735Y-103987809D01*
X120732737Y-103987808D01*
X120738765Y-103985124D01*
X120757249Y-103971695D01*
X120846889Y-103906567D01*
X120893266Y-103872872D01*
X120958326Y-103800616D01*
X121016634Y-103735858D01*
X121016635Y-103735857D01*
X121021053Y-103730950D01*
X121116540Y-103565562D01*
X121175555Y-103383934D01*
X121187622Y-103269128D01*
X121194827Y-103200571D01*
X121195517Y-103194006D01*
X121179422Y-103040866D01*
X121176245Y-103010641D01*
X121176245Y-103010639D01*
X121175555Y-103004078D01*
X121116540Y-102822450D01*
X121113234Y-102816723D01*
X121060533Y-102725441D01*
X121043795Y-102656446D01*
X121067016Y-102589354D01*
X121080557Y-102573347D01*
X121616499Y-102037405D01*
X121678811Y-102003379D01*
X121705594Y-102000500D01*
X121761487Y-102000500D01*
X121767939Y-101999128D01*
X121767944Y-101999128D01*
X121854887Y-101980647D01*
X121948288Y-101960794D01*
X122044244Y-101918072D01*
X122116722Y-101885803D01*
X122116724Y-101885802D01*
X122122752Y-101883118D01*
X122136676Y-101873002D01*
X122202667Y-101825056D01*
X122277253Y-101770866D01*
X122337361Y-101704109D01*
X122400621Y-101633852D01*
X122400622Y-101633851D01*
X122405040Y-101628944D01*
X122472584Y-101511955D01*
X122497223Y-101469279D01*
X122497224Y-101469278D01*
X122500527Y-101463556D01*
X122559542Y-101281928D01*
X122560709Y-101270830D01*
X122578814Y-101098565D01*
X122579504Y-101092000D01*
X122571174Y-101012740D01*
X122560232Y-100908635D01*
X122560232Y-100908633D01*
X122559542Y-100902072D01*
X122500527Y-100720444D01*
X122494209Y-100709500D01*
X122408341Y-100560774D01*
X122405040Y-100555056D01*
X122400326Y-100549820D01*
X122281675Y-100418045D01*
X122281674Y-100418044D01*
X122277253Y-100413134D01*
X122122752Y-100300882D01*
X122116724Y-100298198D01*
X122116722Y-100298197D01*
X121954319Y-100225891D01*
X121954318Y-100225891D01*
X121948288Y-100223206D01*
X121835721Y-100199279D01*
X121767944Y-100184872D01*
X121767939Y-100184872D01*
X121761487Y-100183500D01*
X121570513Y-100183500D01*
X121564061Y-100184872D01*
X121564056Y-100184872D01*
X121496279Y-100199279D01*
X121383712Y-100223206D01*
X121377682Y-100225891D01*
X121377681Y-100225891D01*
X121215278Y-100298197D01*
X121215276Y-100298198D01*
X121209248Y-100300882D01*
X121054747Y-100413134D01*
X121050326Y-100418044D01*
X121050325Y-100418045D01*
X120931675Y-100549820D01*
X120926960Y-100555056D01*
X120923659Y-100560774D01*
X120837792Y-100709500D01*
X120831473Y-100720444D01*
X120772458Y-100902072D01*
X120771768Y-100908633D01*
X120771768Y-100908635D01*
X120767749Y-100946872D01*
X120755149Y-101066763D01*
X120755093Y-101067292D01*
X120728080Y-101132949D01*
X120718878Y-101143217D01*
X120716702Y-101145393D01*
X120654390Y-101179419D01*
X120583575Y-101174354D01*
X120526739Y-101131807D01*
X120507774Y-101095234D01*
X120506724Y-101092000D01*
X120468527Y-100974444D01*
X120373040Y-100809056D01*
X120351855Y-100785527D01*
X120249675Y-100672045D01*
X120249674Y-100672044D01*
X120245253Y-100667134D01*
X120090752Y-100554882D01*
X120084724Y-100552198D01*
X120084722Y-100552197D01*
X119922319Y-100479891D01*
X119922318Y-100479891D01*
X119916288Y-100477206D01*
X119822888Y-100457353D01*
X119735944Y-100438872D01*
X119735939Y-100438872D01*
X119729487Y-100437500D01*
X119538513Y-100437500D01*
X119532061Y-100438872D01*
X119532056Y-100438872D01*
X119445112Y-100457353D01*
X119351712Y-100477206D01*
X119345682Y-100479891D01*
X119345681Y-100479891D01*
X119183278Y-100552197D01*
X119183276Y-100552198D01*
X119177248Y-100554882D01*
X119022747Y-100667134D01*
X119018326Y-100672044D01*
X119018325Y-100672045D01*
X118916146Y-100785527D01*
X118894960Y-100809056D01*
X118799473Y-100974444D01*
X118769305Y-101067292D01*
X118744166Y-101144660D01*
X118704092Y-101203266D01*
X118638696Y-101230903D01*
X118598136Y-101228971D01*
X118465944Y-101200872D01*
X118465939Y-101200872D01*
X118459487Y-101199500D01*
X118268513Y-101199500D01*
X118262061Y-101200872D01*
X118262056Y-101200872D01*
X118175113Y-101219353D01*
X118081712Y-101239206D01*
X118075682Y-101241891D01*
X118075681Y-101241891D01*
X117913278Y-101314197D01*
X117913276Y-101314198D01*
X117907248Y-101316882D01*
X117752747Y-101429134D01*
X117748326Y-101434044D01*
X117748325Y-101434045D01*
X117645016Y-101548782D01*
X117624960Y-101571056D01*
X117591438Y-101629118D01*
X117584119Y-101641795D01*
X117532737Y-101690788D01*
X117463023Y-101704224D01*
X117397112Y-101677838D01*
X117365881Y-101641795D01*
X117358562Y-101629118D01*
X117325040Y-101571056D01*
X117304985Y-101548782D01*
X117201675Y-101434045D01*
X117201674Y-101434044D01*
X117197253Y-101429134D01*
X117042752Y-101316882D01*
X117036724Y-101314198D01*
X117036722Y-101314197D01*
X116874319Y-101241891D01*
X116874318Y-101241891D01*
X116868288Y-101239206D01*
X116774888Y-101219353D01*
X116687944Y-101200872D01*
X116687939Y-101200872D01*
X116681487Y-101199500D01*
X116490513Y-101199500D01*
X116484061Y-101200872D01*
X116484056Y-101200872D01*
X116397113Y-101219353D01*
X116303712Y-101239206D01*
X116297682Y-101241891D01*
X116297681Y-101241891D01*
X116135278Y-101314197D01*
X116135276Y-101314198D01*
X116129248Y-101316882D01*
X115974747Y-101429134D01*
X115970326Y-101434044D01*
X115970325Y-101434045D01*
X115867016Y-101548782D01*
X115846960Y-101571056D01*
X115832636Y-101595866D01*
X115759882Y-101721880D01*
X115751473Y-101736444D01*
X115692458Y-101918072D01*
X115691768Y-101924633D01*
X115691768Y-101924635D01*
X115675093Y-102083292D01*
X115648080Y-102148949D01*
X115638878Y-102159217D01*
X107999500Y-109798595D01*
X107937188Y-109832621D01*
X107910405Y-109835500D01*
X107854513Y-109835500D01*
X107848061Y-109836872D01*
X107848056Y-109836872D01*
X107761113Y-109855353D01*
X107667712Y-109875206D01*
X107661682Y-109877891D01*
X107661681Y-109877891D01*
X107499278Y-109950197D01*
X107499276Y-109950198D01*
X107493248Y-109952882D01*
X107338747Y-110065134D01*
X107334326Y-110070044D01*
X107334325Y-110070045D01*
X107277548Y-110133103D01*
X107210960Y-110207056D01*
X107115473Y-110372444D01*
X107056458Y-110554072D01*
X107055768Y-110560633D01*
X107055768Y-110560635D01*
X107050235Y-110613279D01*
X107036496Y-110744000D01*
X93765438Y-110744000D01*
X93485184Y-110668906D01*
X93478734Y-110667535D01*
X93101371Y-110607766D01*
X93094833Y-110607080D01*
X92713301Y-110587084D01*
X92706699Y-110587084D01*
X92325167Y-110607080D01*
X92318629Y-110607766D01*
X91941266Y-110667535D01*
X91934816Y-110668906D01*
X91565784Y-110767788D01*
X91559502Y-110769829D01*
X91202836Y-110906740D01*
X91196811Y-110909422D01*
X90856397Y-111082872D01*
X90850687Y-111086169D01*
X90530265Y-111294253D01*
X90524939Y-111298123D01*
X90286165Y-111491478D01*
X90277700Y-111503733D01*
X89408500Y-111503733D01*
X89408500Y-106680000D01*
X93816835Y-106680000D01*
X93835465Y-106916711D01*
X93836619Y-106921518D01*
X93836620Y-106921524D01*
X93867982Y-107052154D01*
X93890895Y-107147594D01*
X93892788Y-107152165D01*
X93892789Y-107152167D01*
X93953877Y-107299646D01*
X93981760Y-107366963D01*
X93984346Y-107371183D01*
X94103241Y-107565202D01*
X94103245Y-107565208D01*
X94105824Y-107569416D01*
X94260031Y-107749969D01*
X94440584Y-107904176D01*
X94444792Y-107906755D01*
X94444798Y-107906759D01*
X94567259Y-107981803D01*
X94643037Y-108028240D01*
X94647607Y-108030133D01*
X94647611Y-108030135D01*
X94857833Y-108117211D01*
X94862406Y-108119105D01*
X94910349Y-108130615D01*
X95088476Y-108173380D01*
X95088482Y-108173381D01*
X95093289Y-108174535D01*
X95330000Y-108193165D01*
X95566711Y-108174535D01*
X95571518Y-108173381D01*
X95571524Y-108173380D01*
X95749651Y-108130615D01*
X95797594Y-108119105D01*
X95802167Y-108117211D01*
X96012389Y-108030135D01*
X96012393Y-108030133D01*
X96016963Y-108028240D01*
X96092741Y-107981803D01*
X96215202Y-107906759D01*
X96215208Y-107906755D01*
X96219416Y-107904176D01*
X96399969Y-107749969D01*
X96470784Y-107667056D01*
X96538753Y-107587474D01*
X96584686Y-107553598D01*
X96606668Y-107544122D01*
X97457978Y-106692812D01*
X97465592Y-106678868D01*
X97465461Y-106677035D01*
X97461210Y-106670420D01*
X96609710Y-105818920D01*
X96571352Y-105797974D01*
X96535928Y-105769218D01*
X96403177Y-105613787D01*
X96399969Y-105610031D01*
X96219416Y-105455824D01*
X96215208Y-105453245D01*
X96215202Y-105453241D01*
X96206470Y-105447890D01*
X96962093Y-105447890D01*
X96965876Y-105456666D01*
X98100115Y-106590905D01*
X98134141Y-106653217D01*
X98129076Y-106724032D01*
X98100115Y-106769095D01*
X96968920Y-107900290D01*
X96962160Y-107912670D01*
X96967887Y-107920320D01*
X97139042Y-108025205D01*
X97147837Y-108029687D01*
X97357988Y-108116734D01*
X97367373Y-108119783D01*
X97588554Y-108172885D01*
X97598301Y-108174428D01*
X97825070Y-108192275D01*
X97834930Y-108192275D01*
X98061699Y-108174428D01*
X98071446Y-108172885D01*
X98292627Y-108119783D01*
X98302012Y-108116734D01*
X98512163Y-108029687D01*
X98520958Y-108025205D01*
X98719121Y-107903770D01*
X98720396Y-107905851D01*
X98777739Y-107885280D01*
X98846918Y-107901242D01*
X98885974Y-107935497D01*
X98961357Y-108036080D01*
X98966739Y-108043261D01*
X99083295Y-108130615D01*
X99219684Y-108181745D01*
X99281866Y-108188500D01*
X101378134Y-108188500D01*
X101440316Y-108181745D01*
X101576705Y-108130615D01*
X101693261Y-108043261D01*
X101780615Y-107926705D01*
X101831745Y-107790316D01*
X101838500Y-107728134D01*
X101838500Y-105631866D01*
X101831745Y-105569684D01*
X101780615Y-105433295D01*
X101693261Y-105316739D01*
X101576705Y-105229385D01*
X101440316Y-105178255D01*
X101378134Y-105171500D01*
X99281866Y-105171500D01*
X99219684Y-105178255D01*
X99083295Y-105229385D01*
X98966739Y-105316739D01*
X98961358Y-105323919D01*
X98961357Y-105323920D01*
X98885974Y-105424503D01*
X98829115Y-105467018D01*
X98758296Y-105472044D01*
X98719983Y-105454824D01*
X98719121Y-105456230D01*
X98520958Y-105334795D01*
X98512163Y-105330313D01*
X98302012Y-105243266D01*
X98292627Y-105240217D01*
X98071446Y-105187115D01*
X98061699Y-105185572D01*
X97834930Y-105167725D01*
X97825070Y-105167725D01*
X97598301Y-105185572D01*
X97588554Y-105187115D01*
X97367373Y-105240217D01*
X97357988Y-105243266D01*
X97147837Y-105330313D01*
X97139042Y-105334795D01*
X96971555Y-105437432D01*
X96962093Y-105447890D01*
X96206470Y-105447890D01*
X96021183Y-105334346D01*
X96016963Y-105331760D01*
X96012393Y-105329867D01*
X96012389Y-105329865D01*
X95802167Y-105242789D01*
X95802165Y-105242788D01*
X95797594Y-105240895D01*
X95670111Y-105210289D01*
X95571524Y-105186620D01*
X95571518Y-105186619D01*
X95566711Y-105185465D01*
X95330000Y-105166835D01*
X95093289Y-105185465D01*
X95088482Y-105186619D01*
X95088476Y-105186620D01*
X94989889Y-105210289D01*
X94862406Y-105240895D01*
X94857835Y-105242788D01*
X94857833Y-105242789D01*
X94647611Y-105329865D01*
X94647607Y-105329867D01*
X94643037Y-105331760D01*
X94638817Y-105334346D01*
X94444798Y-105453241D01*
X94444792Y-105453245D01*
X94440584Y-105455824D01*
X94260031Y-105610031D01*
X94105824Y-105790584D01*
X94103245Y-105794792D01*
X94103241Y-105794798D01*
X94045480Y-105889056D01*
X93981760Y-105993037D01*
X93979867Y-105997607D01*
X93979865Y-105997611D01*
X93893610Y-106205852D01*
X93890895Y-106212406D01*
X93889740Y-106217218D01*
X93838040Y-106432565D01*
X93835465Y-106443289D01*
X93816835Y-106680000D01*
X89408500Y-106680000D01*
X89408500Y-101854000D01*
X100686496Y-101854000D01*
X100687186Y-101860565D01*
X100701894Y-102000500D01*
X100706458Y-102043928D01*
X100765473Y-102225556D01*
X100860960Y-102390944D01*
X100988747Y-102532866D01*
X101143248Y-102645118D01*
X101149276Y-102647802D01*
X101149278Y-102647803D01*
X101285517Y-102708460D01*
X101317712Y-102722794D01*
X101406286Y-102741621D01*
X101498056Y-102761128D01*
X101498061Y-102761128D01*
X101504513Y-102762500D01*
X101560406Y-102762500D01*
X101628527Y-102782502D01*
X101649501Y-102799405D01*
X103469595Y-104619499D01*
X103503621Y-104681811D01*
X103506500Y-104708594D01*
X103506500Y-107501476D01*
X103486498Y-107569597D01*
X103474142Y-107585779D01*
X103400960Y-107667056D01*
X103360070Y-107737879D01*
X103324466Y-107799548D01*
X103305473Y-107832444D01*
X103246458Y-108014072D01*
X103245768Y-108020633D01*
X103245768Y-108020635D01*
X103229766Y-108172885D01*
X103226496Y-108204000D01*
X103246458Y-108393928D01*
X103305473Y-108575556D01*
X103400960Y-108740944D01*
X103405378Y-108745851D01*
X103405379Y-108745852D01*
X103424215Y-108766771D01*
X103528747Y-108882866D01*
X103683248Y-108995118D01*
X103689276Y-108997802D01*
X103689278Y-108997803D01*
X103851681Y-109070109D01*
X103857712Y-109072794D01*
X103951113Y-109092647D01*
X104038056Y-109111128D01*
X104038061Y-109111128D01*
X104044513Y-109112500D01*
X104235487Y-109112500D01*
X104241939Y-109111128D01*
X104241944Y-109111128D01*
X104328888Y-109092647D01*
X104422288Y-109072794D01*
X104428319Y-109070109D01*
X104590722Y-108997803D01*
X104590724Y-108997802D01*
X104596752Y-108995118D01*
X104751253Y-108882866D01*
X104855785Y-108766771D01*
X104874621Y-108745852D01*
X104874622Y-108745851D01*
X104879040Y-108740944D01*
X104974527Y-108575556D01*
X105033542Y-108393928D01*
X105053504Y-108204000D01*
X105050234Y-108172885D01*
X105034232Y-108020635D01*
X105034232Y-108020633D01*
X105033542Y-108014072D01*
X104974527Y-107832444D01*
X104955535Y-107799548D01*
X104919930Y-107737879D01*
X104879040Y-107667056D01*
X104805863Y-107585785D01*
X104775147Y-107521779D01*
X104773500Y-107501476D01*
X104773500Y-104472763D01*
X104774027Y-104461579D01*
X104775701Y-104454091D01*
X104773562Y-104386032D01*
X104773500Y-104382075D01*
X104773500Y-104354144D01*
X104772994Y-104350138D01*
X104772061Y-104338292D01*
X104771996Y-104336206D01*
X104770673Y-104294110D01*
X104765022Y-104274658D01*
X104761014Y-104255306D01*
X104759468Y-104243068D01*
X104759467Y-104243066D01*
X104758474Y-104235203D01*
X104742194Y-104194086D01*
X104738359Y-104182885D01*
X104726018Y-104140406D01*
X104721985Y-104133587D01*
X104721983Y-104133582D01*
X104715707Y-104122971D01*
X104707010Y-104105221D01*
X104699552Y-104086383D01*
X104673571Y-104050623D01*
X104667053Y-104040701D01*
X104648578Y-104009460D01*
X104648574Y-104009455D01*
X104644542Y-104002637D01*
X104630218Y-103988313D01*
X104617376Y-103973278D01*
X104616226Y-103971695D01*
X104605472Y-103956893D01*
X104571406Y-103928711D01*
X104562627Y-103920722D01*
X102547122Y-101905217D01*
X102513096Y-101842905D01*
X102510907Y-101829292D01*
X102509947Y-101820153D01*
X102498420Y-101710479D01*
X102494232Y-101670635D01*
X102494232Y-101670633D01*
X102493542Y-101664072D01*
X102434527Y-101482444D01*
X102431223Y-101476721D01*
X102428539Y-101470693D01*
X102429725Y-101470165D01*
X102414646Y-101408003D01*
X102437867Y-101340911D01*
X102493675Y-101297025D01*
X102540503Y-101288000D01*
X103157885Y-101288000D01*
X103173124Y-101283525D01*
X103174329Y-101282135D01*
X103176000Y-101274452D01*
X103176000Y-101269884D01*
X103684000Y-101269884D01*
X103688475Y-101285123D01*
X103689865Y-101286328D01*
X103697548Y-101287999D01*
X104474669Y-101287999D01*
X104481490Y-101287629D01*
X104532352Y-101282105D01*
X104547604Y-101278479D01*
X104668054Y-101233324D01*
X104683649Y-101224786D01*
X104785724Y-101148285D01*
X104798285Y-101135724D01*
X104874786Y-101033649D01*
X104883324Y-101018054D01*
X104928478Y-100897606D01*
X104932105Y-100882351D01*
X104937631Y-100831486D01*
X104938000Y-100824672D01*
X104938000Y-99452115D01*
X104933525Y-99436876D01*
X104932135Y-99435671D01*
X104924452Y-99434000D01*
X103702115Y-99434000D01*
X103686876Y-99438475D01*
X103685671Y-99439865D01*
X103684000Y-99447548D01*
X103684000Y-101269884D01*
X103176000Y-101269884D01*
X103176000Y-99452115D01*
X103171525Y-99436876D01*
X103170135Y-99435671D01*
X103162452Y-99434000D01*
X101940116Y-99434000D01*
X101924877Y-99438475D01*
X101923672Y-99439865D01*
X101922001Y-99447548D01*
X101922001Y-100824687D01*
X101922362Y-100831350D01*
X101906075Y-100900453D01*
X101855013Y-100949780D01*
X101785389Y-100963671D01*
X101770350Y-100961412D01*
X101701953Y-100946873D01*
X101701940Y-100946872D01*
X101695487Y-100945500D01*
X101504513Y-100945500D01*
X101498061Y-100946872D01*
X101498056Y-100946872D01*
X101411113Y-100965353D01*
X101317712Y-100985206D01*
X101311682Y-100987891D01*
X101311681Y-100987891D01*
X101149278Y-101060197D01*
X101149276Y-101060198D01*
X101143248Y-101062882D01*
X101137907Y-101066762D01*
X101137906Y-101066763D01*
X101107634Y-101088757D01*
X100988747Y-101175134D01*
X100984326Y-101180044D01*
X100984325Y-101180045D01*
X100879317Y-101296669D01*
X100860960Y-101317056D01*
X100765473Y-101482444D01*
X100706458Y-101664072D01*
X100705768Y-101670633D01*
X100705768Y-101670635D01*
X100693920Y-101783365D01*
X100686496Y-101854000D01*
X89408500Y-101854000D01*
X89408500Y-100824669D01*
X90722001Y-100824669D01*
X90722371Y-100831490D01*
X90727895Y-100882352D01*
X90731521Y-100897604D01*
X90776676Y-101018054D01*
X90785214Y-101033649D01*
X90861715Y-101135724D01*
X90874276Y-101148285D01*
X90976351Y-101224786D01*
X90991946Y-101233324D01*
X91112394Y-101278478D01*
X91127649Y-101282105D01*
X91178514Y-101287631D01*
X91185328Y-101288000D01*
X91957885Y-101288000D01*
X91973124Y-101283525D01*
X91974329Y-101282135D01*
X91976000Y-101274452D01*
X91976000Y-101269884D01*
X92484000Y-101269884D01*
X92488475Y-101285123D01*
X92489865Y-101286328D01*
X92497548Y-101287999D01*
X93274669Y-101287999D01*
X93281490Y-101287629D01*
X93332352Y-101282105D01*
X93347604Y-101278479D01*
X93468054Y-101233324D01*
X93483649Y-101224786D01*
X93585724Y-101148285D01*
X93598285Y-101135724D01*
X93674786Y-101033649D01*
X93683324Y-101018054D01*
X93728478Y-100897606D01*
X93732105Y-100882351D01*
X93737631Y-100831486D01*
X93738000Y-100824672D01*
X93738000Y-99452115D01*
X93733525Y-99436876D01*
X93732135Y-99435671D01*
X93724452Y-99434000D01*
X92502115Y-99434000D01*
X92486876Y-99438475D01*
X92485671Y-99439865D01*
X92484000Y-99447548D01*
X92484000Y-101269884D01*
X91976000Y-101269884D01*
X91976000Y-99452115D01*
X91971525Y-99436876D01*
X91970135Y-99435671D01*
X91962452Y-99434000D01*
X90740116Y-99434000D01*
X90724877Y-99438475D01*
X90723672Y-99439865D01*
X90722001Y-99447548D01*
X90722001Y-100824669D01*
X89408500Y-100824669D01*
X89408500Y-98907885D01*
X90722000Y-98907885D01*
X90726475Y-98923124D01*
X90727865Y-98924329D01*
X90735548Y-98926000D01*
X91957885Y-98926000D01*
X91973124Y-98921525D01*
X91974329Y-98920135D01*
X91976000Y-98912452D01*
X91976000Y-98907885D01*
X92484000Y-98907885D01*
X92488475Y-98923124D01*
X92489865Y-98924329D01*
X92497548Y-98926000D01*
X93719884Y-98926000D01*
X93735123Y-98921525D01*
X93736328Y-98920135D01*
X93737999Y-98912452D01*
X93737999Y-98907885D01*
X101922000Y-98907885D01*
X101926475Y-98923124D01*
X101927865Y-98924329D01*
X101935548Y-98926000D01*
X103157885Y-98926000D01*
X103173124Y-98921525D01*
X103174329Y-98920135D01*
X103176000Y-98912452D01*
X103176000Y-98907885D01*
X103684000Y-98907885D01*
X103688475Y-98923124D01*
X103689865Y-98924329D01*
X103697548Y-98926000D01*
X104919884Y-98926000D01*
X104935123Y-98921525D01*
X104936328Y-98920135D01*
X104937999Y-98912452D01*
X104937999Y-97535331D01*
X104937629Y-97528510D01*
X104932105Y-97477648D01*
X104928479Y-97462396D01*
X104883324Y-97341946D01*
X104874786Y-97326351D01*
X104798285Y-97224276D01*
X104785724Y-97211715D01*
X104683649Y-97135214D01*
X104668054Y-97126676D01*
X104547606Y-97081522D01*
X104532351Y-97077895D01*
X104481486Y-97072369D01*
X104474672Y-97072000D01*
X103702115Y-97072000D01*
X103686876Y-97076475D01*
X103685671Y-97077865D01*
X103684000Y-97085548D01*
X103684000Y-98907885D01*
X103176000Y-98907885D01*
X103176000Y-97090116D01*
X103171525Y-97074877D01*
X103170135Y-97073672D01*
X103162452Y-97072001D01*
X102385331Y-97072001D01*
X102378510Y-97072371D01*
X102327648Y-97077895D01*
X102312396Y-97081521D01*
X102191946Y-97126676D01*
X102176351Y-97135214D01*
X102074276Y-97211715D01*
X102061715Y-97224276D01*
X101985214Y-97326351D01*
X101976676Y-97341946D01*
X101931522Y-97462394D01*
X101927895Y-97477649D01*
X101922369Y-97528514D01*
X101922000Y-97535328D01*
X101922000Y-98907885D01*
X93737999Y-98907885D01*
X93737999Y-97535331D01*
X93737629Y-97528510D01*
X93732105Y-97477648D01*
X93728479Y-97462396D01*
X93683324Y-97341946D01*
X93674786Y-97326351D01*
X93598285Y-97224276D01*
X93585724Y-97211715D01*
X93483649Y-97135214D01*
X93468054Y-97126676D01*
X93347606Y-97081522D01*
X93332351Y-97077895D01*
X93281486Y-97072369D01*
X93274672Y-97072000D01*
X92502115Y-97072000D01*
X92486876Y-97076475D01*
X92485671Y-97077865D01*
X92484000Y-97085548D01*
X92484000Y-98907885D01*
X91976000Y-98907885D01*
X91976000Y-97090116D01*
X91971525Y-97074877D01*
X91970135Y-97073672D01*
X91962452Y-97072001D01*
X91185331Y-97072001D01*
X91178510Y-97072371D01*
X91127648Y-97077895D01*
X91112396Y-97081521D01*
X90991946Y-97126676D01*
X90976351Y-97135214D01*
X90874276Y-97211715D01*
X90861715Y-97224276D01*
X90785214Y-97326351D01*
X90776676Y-97341946D01*
X90731522Y-97462394D01*
X90727895Y-97477649D01*
X90722369Y-97528514D01*
X90722000Y-97535328D01*
X90722000Y-98907885D01*
X89408500Y-98907885D01*
X89408500Y-93980000D01*
X118720496Y-93980000D01*
X118721186Y-93986565D01*
X118735065Y-94118613D01*
X118740458Y-94169928D01*
X118799473Y-94351556D01*
X118894960Y-94516944D01*
X118899378Y-94521851D01*
X118899379Y-94521852D01*
X118926589Y-94552072D01*
X119022747Y-94658866D01*
X119064183Y-94688971D01*
X119146207Y-94748565D01*
X119177248Y-94771118D01*
X119183276Y-94773802D01*
X119183278Y-94773803D01*
X119270407Y-94812595D01*
X119351712Y-94848794D01*
X119445113Y-94868647D01*
X119532056Y-94887128D01*
X119532061Y-94887128D01*
X119538513Y-94888500D01*
X119594406Y-94888500D01*
X119662527Y-94908502D01*
X119683501Y-94925405D01*
X120464878Y-95706782D01*
X120498904Y-95769094D01*
X120501092Y-95782703D01*
X120504570Y-95815794D01*
X120515795Y-95922587D01*
X120518458Y-95947928D01*
X120577473Y-96129556D01*
X120672960Y-96294944D01*
X120677378Y-96299851D01*
X120677379Y-96299852D01*
X120764600Y-96396721D01*
X120800747Y-96436866D01*
X120955248Y-96549118D01*
X120961276Y-96551802D01*
X120961278Y-96551803D01*
X121097517Y-96612460D01*
X121129712Y-96626794D01*
X121217716Y-96645500D01*
X121310056Y-96665128D01*
X121310061Y-96665128D01*
X121316513Y-96666500D01*
X121507487Y-96666500D01*
X121513939Y-96665128D01*
X121513944Y-96665128D01*
X121606284Y-96645500D01*
X121694288Y-96626794D01*
X121726483Y-96612460D01*
X121862722Y-96551803D01*
X121862724Y-96551802D01*
X121868752Y-96549118D01*
X122023253Y-96436866D01*
X122059400Y-96396721D01*
X122146621Y-96299852D01*
X122146622Y-96299851D01*
X122151040Y-96294944D01*
X122246527Y-96129556D01*
X122305542Y-95947928D01*
X122308206Y-95922587D01*
X122324814Y-95764565D01*
X122325504Y-95758000D01*
X122318080Y-95687365D01*
X122306232Y-95574635D01*
X122306232Y-95574633D01*
X122305542Y-95568072D01*
X122246527Y-95386444D01*
X122240593Y-95376165D01*
X122154341Y-95226774D01*
X122151040Y-95221056D01*
X122023253Y-95079134D01*
X121868752Y-94966882D01*
X121862724Y-94964198D01*
X121862722Y-94964197D01*
X121700319Y-94891891D01*
X121700318Y-94891891D01*
X121694288Y-94889206D01*
X121600888Y-94869353D01*
X121513944Y-94850872D01*
X121513939Y-94850872D01*
X121507487Y-94849500D01*
X121451595Y-94849500D01*
X121383474Y-94829498D01*
X121362499Y-94812595D01*
X120581121Y-94031216D01*
X120547096Y-93968904D01*
X120544907Y-93955291D01*
X120528232Y-93796635D01*
X120528232Y-93796633D01*
X120527542Y-93790072D01*
X120468527Y-93608444D01*
X120459794Y-93593317D01*
X120423315Y-93530135D01*
X120373040Y-93443056D01*
X120352569Y-93420320D01*
X120249675Y-93306045D01*
X120249674Y-93306044D01*
X120245253Y-93301134D01*
X120090752Y-93188882D01*
X120084724Y-93186198D01*
X120084722Y-93186197D01*
X119922319Y-93113891D01*
X119922318Y-93113891D01*
X119916288Y-93111206D01*
X119806506Y-93087871D01*
X119735944Y-93072872D01*
X119735939Y-93072872D01*
X119729487Y-93071500D01*
X119538513Y-93071500D01*
X119532061Y-93072872D01*
X119532056Y-93072872D01*
X119461494Y-93087871D01*
X119351712Y-93111206D01*
X119345682Y-93113891D01*
X119345681Y-93113891D01*
X119183278Y-93186197D01*
X119183276Y-93186198D01*
X119177248Y-93188882D01*
X119022747Y-93301134D01*
X119018326Y-93306044D01*
X119018325Y-93306045D01*
X118915432Y-93420320D01*
X118894960Y-93443056D01*
X118844685Y-93530135D01*
X118808207Y-93593317D01*
X118799473Y-93608444D01*
X118740458Y-93790072D01*
X118739768Y-93796633D01*
X118739768Y-93796635D01*
X118725559Y-93931829D01*
X118720496Y-93980000D01*
X89408500Y-93980000D01*
X89408500Y-92180000D01*
X93816835Y-92180000D01*
X93835465Y-92416711D01*
X93890895Y-92647594D01*
X93892788Y-92652165D01*
X93892789Y-92652167D01*
X93979772Y-92862163D01*
X93981760Y-92866963D01*
X93984346Y-92871183D01*
X94103241Y-93065202D01*
X94103245Y-93065208D01*
X94105824Y-93069416D01*
X94260031Y-93249969D01*
X94440584Y-93404176D01*
X94444792Y-93406755D01*
X94444798Y-93406759D01*
X94602996Y-93503703D01*
X94643037Y-93528240D01*
X94647607Y-93530133D01*
X94647611Y-93530135D01*
X94857833Y-93617211D01*
X94862406Y-93619105D01*
X94942609Y-93638360D01*
X95088476Y-93673380D01*
X95088482Y-93673381D01*
X95093289Y-93674535D01*
X95330000Y-93693165D01*
X95566711Y-93674535D01*
X95571518Y-93673381D01*
X95571524Y-93673380D01*
X95717391Y-93638360D01*
X95797594Y-93619105D01*
X95802167Y-93617211D01*
X96012389Y-93530135D01*
X96012393Y-93530133D01*
X96016963Y-93528240D01*
X96057004Y-93503703D01*
X96205556Y-93412670D01*
X99462160Y-93412670D01*
X99467887Y-93420320D01*
X99639042Y-93525205D01*
X99647837Y-93529687D01*
X99857988Y-93616734D01*
X99867373Y-93619783D01*
X100088554Y-93672885D01*
X100098301Y-93674428D01*
X100325070Y-93692275D01*
X100334930Y-93692275D01*
X100561699Y-93674428D01*
X100571446Y-93672885D01*
X100792627Y-93619783D01*
X100802012Y-93616734D01*
X101012163Y-93529687D01*
X101020958Y-93525205D01*
X101188445Y-93422568D01*
X101197907Y-93412110D01*
X101194124Y-93403334D01*
X100342812Y-92552022D01*
X100328868Y-92544408D01*
X100327035Y-92544539D01*
X100320420Y-92548790D01*
X99468920Y-93400290D01*
X99462160Y-93412670D01*
X96205556Y-93412670D01*
X96215202Y-93406759D01*
X96215208Y-93406755D01*
X96219416Y-93404176D01*
X96399969Y-93249969D01*
X96554176Y-93069416D01*
X96556755Y-93065208D01*
X96556759Y-93065202D01*
X96675654Y-92871183D01*
X96678240Y-92866963D01*
X96680229Y-92862163D01*
X96767211Y-92652167D01*
X96767212Y-92652165D01*
X96769105Y-92647594D01*
X96824535Y-92416711D01*
X96842777Y-92184930D01*
X98817725Y-92184930D01*
X98835572Y-92411699D01*
X98837115Y-92421446D01*
X98890217Y-92642627D01*
X98893266Y-92652012D01*
X98980313Y-92862163D01*
X98984795Y-92870958D01*
X99087432Y-93038445D01*
X99097890Y-93047907D01*
X99106666Y-93044124D01*
X99957978Y-92192812D01*
X99964356Y-92181132D01*
X100694408Y-92181132D01*
X100694539Y-92182965D01*
X100698790Y-92189580D01*
X101550290Y-93041080D01*
X101562670Y-93047840D01*
X101570320Y-93042113D01*
X101675205Y-92870958D01*
X101679687Y-92862163D01*
X101766734Y-92652012D01*
X101769783Y-92642627D01*
X101822885Y-92421446D01*
X101824428Y-92411699D01*
X101842275Y-92184930D01*
X101842275Y-92175070D01*
X101824428Y-91948301D01*
X101822885Y-91938554D01*
X101769783Y-91717373D01*
X101766734Y-91707988D01*
X101679687Y-91497837D01*
X101675205Y-91489042D01*
X101572568Y-91321555D01*
X101562110Y-91312093D01*
X101553334Y-91315876D01*
X100702022Y-92167188D01*
X100694408Y-92181132D01*
X99964356Y-92181132D01*
X99965592Y-92178868D01*
X99965461Y-92177035D01*
X99961210Y-92170420D01*
X99109710Y-91318920D01*
X99097330Y-91312160D01*
X99089680Y-91317887D01*
X98984795Y-91489042D01*
X98980313Y-91497837D01*
X98893266Y-91707988D01*
X98890217Y-91717373D01*
X98837115Y-91938554D01*
X98835572Y-91948301D01*
X98817725Y-92175070D01*
X98817725Y-92184930D01*
X96842777Y-92184930D01*
X96843165Y-92180000D01*
X96824535Y-91943289D01*
X96811947Y-91890854D01*
X96773598Y-91731122D01*
X96769105Y-91712406D01*
X96734942Y-91629928D01*
X96680135Y-91497611D01*
X96680133Y-91497607D01*
X96678240Y-91493037D01*
X96675654Y-91488817D01*
X96556759Y-91294798D01*
X96556755Y-91294792D01*
X96554176Y-91290584D01*
X96399969Y-91110031D01*
X96219416Y-90955824D01*
X96215208Y-90953245D01*
X96215202Y-90953241D01*
X96206470Y-90947890D01*
X99462093Y-90947890D01*
X99465876Y-90956666D01*
X100317188Y-91807978D01*
X100331132Y-91815592D01*
X100332965Y-91815461D01*
X100339580Y-91811210D01*
X101191080Y-90959710D01*
X101197840Y-90947330D01*
X101192113Y-90939680D01*
X101020958Y-90834795D01*
X101012163Y-90830313D01*
X100802012Y-90743266D01*
X100792627Y-90740217D01*
X100571446Y-90687115D01*
X100561699Y-90685572D01*
X100334930Y-90667725D01*
X100325070Y-90667725D01*
X100098301Y-90685572D01*
X100088554Y-90687115D01*
X99867373Y-90740217D01*
X99857988Y-90743266D01*
X99647837Y-90830313D01*
X99639042Y-90834795D01*
X99471555Y-90937432D01*
X99462093Y-90947890D01*
X96206470Y-90947890D01*
X96021183Y-90834346D01*
X96016963Y-90831760D01*
X96012393Y-90829867D01*
X96012389Y-90829865D01*
X95802167Y-90742789D01*
X95802165Y-90742788D01*
X95797594Y-90740895D01*
X95717391Y-90721640D01*
X95571524Y-90686620D01*
X95571518Y-90686619D01*
X95566711Y-90685465D01*
X95330000Y-90666835D01*
X95093289Y-90685465D01*
X95088482Y-90686619D01*
X95088476Y-90686620D01*
X94942609Y-90721640D01*
X94862406Y-90740895D01*
X94857835Y-90742788D01*
X94857833Y-90742789D01*
X94647611Y-90829865D01*
X94647607Y-90829867D01*
X94643037Y-90831760D01*
X94638817Y-90834346D01*
X94444798Y-90953241D01*
X94444792Y-90953245D01*
X94440584Y-90955824D01*
X94260031Y-91110031D01*
X94105824Y-91290584D01*
X94103245Y-91294792D01*
X94103241Y-91294798D01*
X93984346Y-91488817D01*
X93981760Y-91493037D01*
X93979867Y-91497607D01*
X93979865Y-91497611D01*
X93925058Y-91629928D01*
X93890895Y-91712406D01*
X93886402Y-91731122D01*
X93848054Y-91890854D01*
X93835465Y-91943289D01*
X93816835Y-92180000D01*
X89408500Y-92180000D01*
X89408500Y-84077386D01*
X90277759Y-84077386D01*
X90285216Y-84087753D01*
X90524935Y-84281874D01*
X90530272Y-84285751D01*
X90850685Y-84493830D01*
X90856394Y-84497127D01*
X91196811Y-84670578D01*
X91202836Y-84673260D01*
X91559502Y-84810171D01*
X91565784Y-84812212D01*
X91934816Y-84911094D01*
X91941266Y-84912465D01*
X92318629Y-84972234D01*
X92325167Y-84972920D01*
X92706699Y-84992916D01*
X92713301Y-84992916D01*
X93094833Y-84972920D01*
X93101371Y-84972234D01*
X93478734Y-84912465D01*
X93485184Y-84911094D01*
X93854216Y-84812212D01*
X93860498Y-84810171D01*
X94217164Y-84673260D01*
X94223189Y-84670578D01*
X94563606Y-84497127D01*
X94569315Y-84493830D01*
X94889728Y-84285751D01*
X94895065Y-84281874D01*
X95133835Y-84088522D01*
X95142300Y-84076267D01*
X95135966Y-84065176D01*
X92722812Y-81652022D01*
X92708868Y-81644408D01*
X92707035Y-81644539D01*
X92700420Y-81648790D01*
X90284900Y-84064310D01*
X90277759Y-84077386D01*
X89408500Y-84077386D01*
X89408500Y-83429684D01*
X89428502Y-83361563D01*
X89482158Y-83315070D01*
X89552432Y-83304966D01*
X89617012Y-83334460D01*
X89640173Y-83361060D01*
X89704253Y-83459735D01*
X89708123Y-83465061D01*
X89901478Y-83703835D01*
X89913733Y-83712300D01*
X89924824Y-83705966D01*
X92349658Y-81281132D01*
X93074408Y-81281132D01*
X93074539Y-81282965D01*
X93078790Y-81289580D01*
X95494310Y-83705100D01*
X95507386Y-83712241D01*
X95517753Y-83704784D01*
X95711877Y-83465061D01*
X95715747Y-83459735D01*
X95923831Y-83139313D01*
X95927128Y-83133603D01*
X96100578Y-82793189D01*
X96103260Y-82787164D01*
X96240171Y-82430498D01*
X96242212Y-82424216D01*
X96341036Y-82055400D01*
X100321500Y-82055400D01*
X100321837Y-82058646D01*
X100321837Y-82058650D01*
X100331333Y-82150166D01*
X100332474Y-82161166D01*
X100334655Y-82167702D01*
X100334655Y-82167704D01*
X100366405Y-82262870D01*
X100388450Y-82328946D01*
X100481522Y-82479348D01*
X100606697Y-82604305D01*
X100612927Y-82608145D01*
X100612928Y-82608146D01*
X100750090Y-82692694D01*
X100757262Y-82697115D01*
X100792938Y-82708948D01*
X100918611Y-82750632D01*
X100918613Y-82750632D01*
X100925139Y-82752797D01*
X100931975Y-82753497D01*
X100931978Y-82753498D01*
X100967663Y-82757154D01*
X101029600Y-82763500D01*
X102330400Y-82763500D01*
X102333646Y-82763163D01*
X102333650Y-82763163D01*
X102429308Y-82753238D01*
X102429312Y-82753237D01*
X102436166Y-82752526D01*
X102442702Y-82750345D01*
X102442704Y-82750345D01*
X102574806Y-82706272D01*
X102603946Y-82696550D01*
X102754348Y-82603478D01*
X102879305Y-82478303D01*
X102969081Y-82332660D01*
X103021852Y-82285168D01*
X103091924Y-82273744D01*
X103157048Y-82302018D01*
X103167510Y-82311805D01*
X103207490Y-82353714D01*
X103276576Y-82426135D01*
X103461542Y-82563754D01*
X103466293Y-82566170D01*
X103466297Y-82566172D01*
X103529481Y-82598296D01*
X103667051Y-82668240D01*
X103672145Y-82669822D01*
X103672148Y-82669823D01*
X103837583Y-82721192D01*
X103887227Y-82736607D01*
X103892516Y-82737308D01*
X104110489Y-82766198D01*
X104110494Y-82766198D01*
X104115774Y-82766898D01*
X104121103Y-82766698D01*
X104121105Y-82766698D01*
X104230966Y-82762574D01*
X104346158Y-82758249D01*
X104368802Y-82753498D01*
X104566572Y-82712002D01*
X104571791Y-82710907D01*
X104576750Y-82708949D01*
X104576752Y-82708948D01*
X104781256Y-82628185D01*
X104781258Y-82628184D01*
X104786221Y-82626224D01*
X104791525Y-82623006D01*
X104978757Y-82509390D01*
X104978756Y-82509390D01*
X104983317Y-82506623D01*
X104997147Y-82494622D01*
X105153412Y-82359023D01*
X105153414Y-82359021D01*
X105157445Y-82355523D01*
X105229894Y-82267165D01*
X105300240Y-82181373D01*
X105300244Y-82181367D01*
X105303624Y-82177245D01*
X105321552Y-82145750D01*
X105372632Y-82096445D01*
X105442262Y-82082583D01*
X105508333Y-82108566D01*
X105535573Y-82137716D01*
X105617441Y-82259319D01*
X105621120Y-82263176D01*
X105621122Y-82263178D01*
X105677234Y-82321998D01*
X105776576Y-82426135D01*
X105961542Y-82563754D01*
X105966293Y-82566170D01*
X105966297Y-82566172D01*
X106029481Y-82598296D01*
X106167051Y-82668240D01*
X106172145Y-82669822D01*
X106172148Y-82669823D01*
X106337583Y-82721192D01*
X106387227Y-82736607D01*
X106392516Y-82737308D01*
X106610489Y-82766198D01*
X106610494Y-82766198D01*
X106615774Y-82766898D01*
X106621103Y-82766698D01*
X106621105Y-82766698D01*
X106730966Y-82762574D01*
X106846158Y-82758249D01*
X106868802Y-82753498D01*
X107066572Y-82712002D01*
X107071791Y-82710907D01*
X107076750Y-82708949D01*
X107076752Y-82708948D01*
X107281256Y-82628185D01*
X107281258Y-82628184D01*
X107286221Y-82626224D01*
X107291525Y-82623006D01*
X107478757Y-82509390D01*
X107478756Y-82509390D01*
X107483317Y-82506623D01*
X107497147Y-82494622D01*
X107653412Y-82359023D01*
X107653414Y-82359021D01*
X107657445Y-82355523D01*
X107729894Y-82267165D01*
X107800240Y-82181373D01*
X107800244Y-82181367D01*
X107803624Y-82177245D01*
X107816681Y-82154308D01*
X107821829Y-82145265D01*
X107872912Y-82095959D01*
X107942542Y-82082098D01*
X108008613Y-82108082D01*
X108035851Y-82137232D01*
X108114852Y-82254578D01*
X108121519Y-82262870D01*
X108273228Y-82421900D01*
X108281186Y-82428941D01*
X108457525Y-82560141D01*
X108466562Y-82565745D01*
X108662484Y-82665357D01*
X108672335Y-82669357D01*
X108882240Y-82734534D01*
X108892624Y-82736817D01*
X108908043Y-82738861D01*
X108922207Y-82736665D01*
X108926000Y-82723478D01*
X108926000Y-82721192D01*
X109434000Y-82721192D01*
X109437973Y-82734723D01*
X109448580Y-82736248D01*
X109566421Y-82711523D01*
X109576617Y-82708463D01*
X109781029Y-82627737D01*
X109790561Y-82623006D01*
X109978462Y-82508984D01*
X109987052Y-82502720D01*
X110153052Y-82358673D01*
X110160472Y-82351042D01*
X110299826Y-82181089D01*
X110305850Y-82172322D01*
X110414576Y-81981318D01*
X110419041Y-81971654D01*
X110494031Y-81765059D01*
X110496802Y-81754792D01*
X110533504Y-81551826D01*
X110532085Y-81538586D01*
X110517450Y-81534000D01*
X109452115Y-81534000D01*
X109436876Y-81538475D01*
X109435671Y-81539865D01*
X109434000Y-81547548D01*
X109434000Y-82721192D01*
X108926000Y-82721192D01*
X108926000Y-81211061D01*
X129198110Y-81211061D01*
X129201706Y-81283301D01*
X129214415Y-81538586D01*
X129214647Y-81543255D01*
X129215288Y-81546986D01*
X129215289Y-81546994D01*
X129266409Y-81844488D01*
X129270974Y-81871057D01*
X129272062Y-81874696D01*
X129272063Y-81874699D01*
X129362544Y-82177245D01*
X129366274Y-82189718D01*
X129367787Y-82193189D01*
X129367789Y-82193195D01*
X129450797Y-82383645D01*
X129499166Y-82494622D01*
X129501089Y-82497893D01*
X129501091Y-82497897D01*
X129537683Y-82560141D01*
X129667726Y-82781352D01*
X129670027Y-82784367D01*
X129867212Y-83042742D01*
X129867217Y-83042748D01*
X129869512Y-83045755D01*
X130101602Y-83284002D01*
X130360632Y-83492640D01*
X130442535Y-83543719D01*
X130619402Y-83654023D01*
X130642852Y-83668648D01*
X130944172Y-83809476D01*
X130947781Y-83810659D01*
X131101870Y-83861172D01*
X131260229Y-83913085D01*
X131586444Y-83977973D01*
X131590216Y-83978260D01*
X131590224Y-83978261D01*
X131914315Y-84002914D01*
X131914320Y-84002914D01*
X131918092Y-84003201D01*
X132250369Y-83988403D01*
X132257362Y-83987239D01*
X132574720Y-83934417D01*
X132574725Y-83934416D01*
X132578461Y-83933794D01*
X132897616Y-83840164D01*
X132901083Y-83838674D01*
X132901087Y-83838673D01*
X133199728Y-83710366D01*
X133199730Y-83710365D01*
X133203212Y-83708869D01*
X133490821Y-83541813D01*
X133493843Y-83539532D01*
X133493847Y-83539529D01*
X133753253Y-83343697D01*
X133753254Y-83343696D01*
X133756277Y-83341414D01*
X133995735Y-83110575D01*
X134205727Y-82852641D01*
X134365678Y-82599134D01*
X134381183Y-82574560D01*
X134381185Y-82574557D01*
X134383210Y-82571347D01*
X134386371Y-82564676D01*
X134487417Y-82351392D01*
X134525614Y-82270767D01*
X134529434Y-82259319D01*
X134591408Y-82073560D01*
X134630877Y-81955257D01*
X134697472Y-81629386D01*
X134724436Y-81297875D01*
X134725042Y-81240000D01*
X134723460Y-81213750D01*
X134705255Y-80911772D01*
X134705254Y-80911765D01*
X134705027Y-80907997D01*
X134645270Y-80580803D01*
X134627638Y-80524016D01*
X134547761Y-80266771D01*
X134546639Y-80263157D01*
X134410561Y-79959662D01*
X134298082Y-79772836D01*
X134240966Y-79677966D01*
X134240962Y-79677960D01*
X134239007Y-79674713D01*
X134236680Y-79671729D01*
X134236675Y-79671722D01*
X134036794Y-79415425D01*
X134036788Y-79415418D01*
X134034463Y-79412437D01*
X133799892Y-79176634D01*
X133538691Y-78970720D01*
X133254644Y-78797677D01*
X133133546Y-78742617D01*
X132955317Y-78661580D01*
X132955309Y-78661577D01*
X132951865Y-78660011D01*
X132634740Y-78559718D01*
X132412396Y-78517906D01*
X132311587Y-78498949D01*
X132311585Y-78498949D01*
X132307864Y-78498249D01*
X131975970Y-78476496D01*
X131972190Y-78476704D01*
X131972189Y-78476704D01*
X131874418Y-78482085D01*
X131643866Y-78494773D01*
X131640139Y-78495434D01*
X131640135Y-78495434D01*
X131381010Y-78541358D01*
X131316364Y-78552815D01*
X131312739Y-78553920D01*
X131312734Y-78553921D01*
X131131918Y-78609030D01*
X130998207Y-78649782D01*
X130994743Y-78651313D01*
X130994736Y-78651316D01*
X130807551Y-78734070D01*
X130694003Y-78784269D01*
X130690749Y-78786205D01*
X130690743Y-78786208D01*
X130573156Y-78856165D01*
X130408159Y-78954328D01*
X130144816Y-79157496D01*
X129907788Y-79390829D01*
X129700509Y-79650949D01*
X129525981Y-79934086D01*
X129386732Y-80236140D01*
X129385573Y-80239740D01*
X129385570Y-80239747D01*
X129294028Y-80524016D01*
X129284780Y-80552735D01*
X129284061Y-80556451D01*
X129284059Y-80556459D01*
X129236710Y-80801187D01*
X129221600Y-80879285D01*
X129221333Y-80883061D01*
X129221332Y-80883066D01*
X129198378Y-81207272D01*
X129198110Y-81211061D01*
X108926000Y-81211061D01*
X108926000Y-81007885D01*
X109434000Y-81007885D01*
X109438475Y-81023124D01*
X109439865Y-81024329D01*
X109447548Y-81026000D01*
X110513849Y-81026000D01*
X110528527Y-81021690D01*
X110530590Y-81009807D01*
X110523876Y-80930675D01*
X110522086Y-80920203D01*
X110466870Y-80707465D01*
X110463335Y-80697425D01*
X110373063Y-80497030D01*
X110367894Y-80487744D01*
X110245150Y-80305425D01*
X110238481Y-80297130D01*
X110086772Y-80138100D01*
X110078814Y-80131059D01*
X109902475Y-79999859D01*
X109893438Y-79994255D01*
X109697516Y-79894643D01*
X109687665Y-79890643D01*
X109477760Y-79825466D01*
X109467376Y-79823183D01*
X109451957Y-79821139D01*
X109437793Y-79823335D01*
X109434000Y-79836522D01*
X109434000Y-81007885D01*
X108926000Y-81007885D01*
X108926000Y-79838808D01*
X108922027Y-79825277D01*
X108911420Y-79823752D01*
X108793579Y-79848477D01*
X108783383Y-79851537D01*
X108578971Y-79932263D01*
X108569439Y-79936994D01*
X108381538Y-80051016D01*
X108372948Y-80057280D01*
X108206948Y-80201327D01*
X108199528Y-80208958D01*
X108060174Y-80378911D01*
X108054152Y-80387674D01*
X108038762Y-80414711D01*
X107987680Y-80464018D01*
X107918049Y-80477880D01*
X107851978Y-80451897D01*
X107824739Y-80422747D01*
X107748236Y-80309114D01*
X107742559Y-80300681D01*
X107728279Y-80285711D01*
X107654725Y-80208608D01*
X107583424Y-80133865D01*
X107398458Y-79996246D01*
X107393707Y-79993830D01*
X107393703Y-79993828D01*
X107275588Y-79933776D01*
X107192949Y-79891760D01*
X107187855Y-79890178D01*
X107187852Y-79890177D01*
X106977871Y-79824976D01*
X106972773Y-79823393D01*
X106967484Y-79822692D01*
X106749511Y-79793802D01*
X106749506Y-79793802D01*
X106744226Y-79793102D01*
X106738897Y-79793302D01*
X106738895Y-79793302D01*
X106629034Y-79797427D01*
X106513842Y-79801751D01*
X106508623Y-79802846D01*
X106486566Y-79807474D01*
X106288209Y-79849093D01*
X106283250Y-79851051D01*
X106283248Y-79851052D01*
X106078744Y-79931815D01*
X106078742Y-79931816D01*
X106073779Y-79933776D01*
X106069220Y-79936543D01*
X106069217Y-79936544D01*
X105974113Y-79994255D01*
X105876683Y-80053377D01*
X105872653Y-80056874D01*
X105779484Y-80137722D01*
X105702555Y-80204477D01*
X105699168Y-80208608D01*
X105559760Y-80378627D01*
X105559756Y-80378633D01*
X105556376Y-80382755D01*
X105538448Y-80414250D01*
X105487368Y-80463555D01*
X105417738Y-80477417D01*
X105351667Y-80451434D01*
X105324427Y-80422284D01*
X105297814Y-80382755D01*
X105242559Y-80300681D01*
X105228279Y-80285711D01*
X105154725Y-80208608D01*
X105083424Y-80133865D01*
X104898458Y-79996246D01*
X104893707Y-79993830D01*
X104893703Y-79993828D01*
X104775588Y-79933776D01*
X104692949Y-79891760D01*
X104687855Y-79890178D01*
X104687852Y-79890177D01*
X104477871Y-79824976D01*
X104472773Y-79823393D01*
X104467484Y-79822692D01*
X104249511Y-79793802D01*
X104249506Y-79793802D01*
X104244226Y-79793102D01*
X104238897Y-79793302D01*
X104238895Y-79793302D01*
X104129034Y-79797427D01*
X104013842Y-79801751D01*
X104008623Y-79802846D01*
X103986566Y-79807474D01*
X103788209Y-79849093D01*
X103783250Y-79851051D01*
X103783248Y-79851052D01*
X103578744Y-79931815D01*
X103578742Y-79931816D01*
X103573779Y-79933776D01*
X103569220Y-79936543D01*
X103569217Y-79936544D01*
X103474113Y-79994255D01*
X103376683Y-80053377D01*
X103372653Y-80056874D01*
X103279484Y-80137722D01*
X103202555Y-80204477D01*
X103173330Y-80240120D01*
X103114671Y-80280114D01*
X103043701Y-80282046D01*
X102982952Y-80245302D01*
X102968752Y-80226532D01*
X102882332Y-80086880D01*
X102878478Y-80080652D01*
X102753303Y-79955695D01*
X102722965Y-79936994D01*
X102608968Y-79866725D01*
X102608966Y-79866724D01*
X102602738Y-79862885D01*
X102489353Y-79825277D01*
X102441389Y-79809368D01*
X102441387Y-79809368D01*
X102434861Y-79807203D01*
X102428025Y-79806503D01*
X102428022Y-79806502D01*
X102384969Y-79802091D01*
X102330400Y-79796500D01*
X101029600Y-79796500D01*
X101026354Y-79796837D01*
X101026350Y-79796837D01*
X100930692Y-79806762D01*
X100930688Y-79806763D01*
X100923834Y-79807474D01*
X100917298Y-79809655D01*
X100917296Y-79809655D01*
X100785194Y-79853728D01*
X100756054Y-79863450D01*
X100605652Y-79956522D01*
X100600479Y-79961704D01*
X100577642Y-79984581D01*
X100480695Y-80081697D01*
X100476855Y-80087927D01*
X100476854Y-80087928D01*
X100402466Y-80208608D01*
X100387885Y-80232262D01*
X100370353Y-80285119D01*
X100336432Y-80387390D01*
X100332203Y-80400139D01*
X100331503Y-80406975D01*
X100331502Y-80406978D01*
X100329338Y-80428102D01*
X100321500Y-80504600D01*
X100321500Y-82055400D01*
X96341036Y-82055400D01*
X96341094Y-82055184D01*
X96342465Y-82048734D01*
X96402234Y-81671371D01*
X96402920Y-81664833D01*
X96422916Y-81283301D01*
X96422916Y-81276699D01*
X96402920Y-80895167D01*
X96402234Y-80888629D01*
X96342465Y-80511266D01*
X96341094Y-80504816D01*
X96242212Y-80135784D01*
X96240171Y-80129502D01*
X96103260Y-79772836D01*
X96100578Y-79766811D01*
X95927128Y-79426397D01*
X95923831Y-79420687D01*
X95715747Y-79100265D01*
X95711877Y-79094939D01*
X95518522Y-78856165D01*
X95506267Y-78847700D01*
X95495176Y-78854034D01*
X93082022Y-81267188D01*
X93074408Y-81281132D01*
X92349658Y-81281132D01*
X95135100Y-78495690D01*
X95142241Y-78482614D01*
X95134784Y-78472247D01*
X94895065Y-78278126D01*
X94889728Y-78274249D01*
X94791059Y-78210172D01*
X94744822Y-78156296D01*
X94735053Y-78085975D01*
X94764853Y-78021535D01*
X94824762Y-77983436D01*
X94859684Y-77978500D01*
X197240316Y-77978500D01*
X197308437Y-77998502D01*
G37*
%TD.AperFunction*%
%TA.AperFunction,Conductor*%
G36*
X158829726Y-95395502D02*
G01*
X158876219Y-95449158D01*
X158886323Y-95519432D01*
X158881437Y-95540438D01*
X158874498Y-95561792D01*
X158874498Y-95561794D01*
X158872458Y-95568072D01*
X158871768Y-95574633D01*
X158871768Y-95574635D01*
X158859920Y-95687365D01*
X158852496Y-95758000D01*
X158853186Y-95764565D01*
X158869795Y-95922587D01*
X158872458Y-95947928D01*
X158931473Y-96129556D01*
X159026960Y-96294944D01*
X159031378Y-96299851D01*
X159031379Y-96299852D01*
X159118600Y-96396721D01*
X159154747Y-96436866D01*
X159309248Y-96549118D01*
X159315276Y-96551802D01*
X159315278Y-96551803D01*
X159451517Y-96612460D01*
X159483712Y-96626794D01*
X159571716Y-96645500D01*
X159664056Y-96665128D01*
X159664061Y-96665128D01*
X159670513Y-96666500D01*
X159726406Y-96666500D01*
X159794527Y-96686502D01*
X159815501Y-96703405D01*
X168127554Y-105015459D01*
X168161580Y-105077771D01*
X168156515Y-105148586D01*
X168147578Y-105167554D01*
X168090006Y-105267272D01*
X168075473Y-105292444D01*
X168016458Y-105474072D01*
X168015768Y-105480633D01*
X168015768Y-105480635D01*
X168000230Y-105628469D01*
X167996496Y-105664000D01*
X167997186Y-105670565D01*
X168012779Y-105818920D01*
X168016458Y-105853928D01*
X168075473Y-106035556D01*
X168170960Y-106200944D01*
X168175378Y-106205851D01*
X168175379Y-106205852D01*
X168279670Y-106321679D01*
X168310388Y-106385686D01*
X168301623Y-106456140D01*
X168256160Y-106510671D01*
X168186034Y-106531989D01*
X138214084Y-106531989D01*
X138145963Y-106511987D01*
X138124989Y-106495084D01*
X135856500Y-104226595D01*
X135822474Y-104164283D01*
X135827539Y-104093468D01*
X135870086Y-104036632D01*
X135936606Y-104011821D01*
X135945595Y-104011500D01*
X139499800Y-104011500D01*
X139567921Y-104031502D01*
X139587147Y-104047843D01*
X139587420Y-104047540D01*
X139592332Y-104051963D01*
X139596747Y-104056866D01*
X139602086Y-104060745D01*
X139720207Y-104146565D01*
X139751248Y-104169118D01*
X139757276Y-104171802D01*
X139757278Y-104171803D01*
X139899678Y-104235203D01*
X139925712Y-104246794D01*
X140012009Y-104265137D01*
X140106056Y-104285128D01*
X140106061Y-104285128D01*
X140112513Y-104286500D01*
X140303487Y-104286500D01*
X140309939Y-104285128D01*
X140309944Y-104285128D01*
X140403991Y-104265137D01*
X140490288Y-104246794D01*
X140516322Y-104235203D01*
X140658722Y-104171803D01*
X140658724Y-104171802D01*
X140664752Y-104169118D01*
X140695794Y-104146565D01*
X140813914Y-104060745D01*
X140819253Y-104056866D01*
X140823668Y-104051963D01*
X140828580Y-104047540D01*
X140829705Y-104048789D01*
X140883014Y-104015949D01*
X140916200Y-104011500D01*
X146791480Y-104011500D01*
X146859601Y-104031502D01*
X146906094Y-104085158D01*
X146916790Y-104124329D01*
X146932590Y-104274658D01*
X146934458Y-104292428D01*
X146993473Y-104474056D01*
X146996776Y-104479778D01*
X146996777Y-104479779D01*
X147002276Y-104489303D01*
X147088960Y-104639444D01*
X147093378Y-104644351D01*
X147093379Y-104644352D01*
X147140398Y-104696572D01*
X147216747Y-104781366D01*
X147239042Y-104797564D01*
X147360865Y-104886074D01*
X147371248Y-104893618D01*
X147377276Y-104896302D01*
X147377278Y-104896303D01*
X147539681Y-104968609D01*
X147545712Y-104971294D01*
X147639112Y-104991147D01*
X147726056Y-105009628D01*
X147726061Y-105009628D01*
X147732513Y-105011000D01*
X147923487Y-105011000D01*
X147929939Y-105009628D01*
X147929944Y-105009628D01*
X148016887Y-104991147D01*
X148110288Y-104971294D01*
X148116319Y-104968609D01*
X148278722Y-104896303D01*
X148278724Y-104896302D01*
X148284752Y-104893618D01*
X148295136Y-104886074D01*
X148416958Y-104797564D01*
X148483825Y-104773706D01*
X148491019Y-104773500D01*
X152199800Y-104773500D01*
X152267921Y-104793502D01*
X152287147Y-104809843D01*
X152287420Y-104809540D01*
X152292332Y-104813963D01*
X152296747Y-104818866D01*
X152318329Y-104834546D01*
X152411171Y-104902000D01*
X152451248Y-104931118D01*
X152457276Y-104933802D01*
X152457278Y-104933803D01*
X152569152Y-104983612D01*
X152625712Y-105008794D01*
X152719113Y-105028647D01*
X152806056Y-105047128D01*
X152806061Y-105047128D01*
X152812513Y-105048500D01*
X153003487Y-105048500D01*
X153009939Y-105047128D01*
X153009944Y-105047128D01*
X153096888Y-105028647D01*
X153190288Y-105008794D01*
X153246848Y-104983612D01*
X153358722Y-104933803D01*
X153358724Y-104933802D01*
X153364752Y-104931118D01*
X153519253Y-104818866D01*
X153534339Y-104802111D01*
X153642621Y-104681852D01*
X153642622Y-104681851D01*
X153647040Y-104676944D01*
X153721086Y-104548693D01*
X153739223Y-104517279D01*
X153739224Y-104517278D01*
X153742527Y-104511556D01*
X153801542Y-104329928D01*
X153804474Y-104302037D01*
X153820814Y-104146565D01*
X153821504Y-104140000D01*
X153821129Y-104136429D01*
X153840816Y-104069379D01*
X153894472Y-104022886D01*
X153946814Y-104011500D01*
X154861233Y-104011500D01*
X154872416Y-104012027D01*
X154879909Y-104013702D01*
X154887835Y-104013453D01*
X154887836Y-104013453D01*
X154947986Y-104011562D01*
X154951945Y-104011500D01*
X154979856Y-104011500D01*
X154983791Y-104011003D01*
X154983856Y-104010995D01*
X154995693Y-104010062D01*
X155027951Y-104009048D01*
X155031970Y-104008922D01*
X155039889Y-104008673D01*
X155059343Y-104003021D01*
X155078700Y-103999013D01*
X155090930Y-103997468D01*
X155090931Y-103997468D01*
X155098797Y-103996474D01*
X155106168Y-103993555D01*
X155106170Y-103993555D01*
X155139912Y-103980196D01*
X155151142Y-103976351D01*
X155185983Y-103966229D01*
X155185984Y-103966229D01*
X155193593Y-103964018D01*
X155200412Y-103959985D01*
X155200417Y-103959983D01*
X155211028Y-103953707D01*
X155228776Y-103945012D01*
X155247617Y-103937552D01*
X155259785Y-103928712D01*
X155283387Y-103911564D01*
X155293307Y-103905048D01*
X155324535Y-103886580D01*
X155324538Y-103886578D01*
X155331362Y-103882542D01*
X155345683Y-103868221D01*
X155360717Y-103855380D01*
X155370694Y-103848131D01*
X155377107Y-103843472D01*
X155405298Y-103809395D01*
X155413288Y-103800616D01*
X158446499Y-100767405D01*
X158508811Y-100733379D01*
X158535594Y-100730500D01*
X158591487Y-100730500D01*
X158597939Y-100729128D01*
X158597944Y-100729128D01*
X158692622Y-100709003D01*
X158778288Y-100690794D01*
X158787367Y-100686752D01*
X158946722Y-100615803D01*
X158946724Y-100615802D01*
X158952752Y-100613118D01*
X159107253Y-100500866D01*
X159111675Y-100495954D01*
X159116577Y-100491541D01*
X159117454Y-100492516D01*
X159171879Y-100458990D01*
X159242863Y-100460346D01*
X159294157Y-100491447D01*
X159857595Y-101054885D01*
X159891621Y-101117197D01*
X159894500Y-101143980D01*
X159894500Y-101659476D01*
X159874498Y-101727597D01*
X159862142Y-101743779D01*
X159788960Y-101825056D01*
X159693473Y-101990444D01*
X159634458Y-102172072D01*
X159633768Y-102178633D01*
X159633768Y-102178635D01*
X159615186Y-102355435D01*
X159614496Y-102362000D01*
X159615186Y-102368565D01*
X159632863Y-102536749D01*
X159634458Y-102551928D01*
X159693473Y-102733556D01*
X159696776Y-102739278D01*
X159696777Y-102739279D01*
X159709392Y-102761128D01*
X159788960Y-102898944D01*
X159793378Y-102903851D01*
X159793379Y-102903852D01*
X159877970Y-102997800D01*
X159916747Y-103040866D01*
X160071248Y-103153118D01*
X160077276Y-103155802D01*
X160077278Y-103155803D01*
X160239681Y-103228109D01*
X160245712Y-103230794D01*
X160339112Y-103250647D01*
X160426056Y-103269128D01*
X160426061Y-103269128D01*
X160432513Y-103270500D01*
X160623487Y-103270500D01*
X160629939Y-103269128D01*
X160629944Y-103269128D01*
X160716887Y-103250647D01*
X160810288Y-103230794D01*
X160816319Y-103228109D01*
X160978722Y-103155803D01*
X160978724Y-103155802D01*
X160984752Y-103153118D01*
X161139253Y-103040866D01*
X161178030Y-102997800D01*
X161262621Y-102903852D01*
X161262622Y-102903851D01*
X161267040Y-102898944D01*
X161346608Y-102761128D01*
X161359223Y-102739279D01*
X161359224Y-102739278D01*
X161362527Y-102733556D01*
X161421542Y-102551928D01*
X161423138Y-102536749D01*
X161440814Y-102368565D01*
X161441504Y-102362000D01*
X161440814Y-102355435D01*
X161422232Y-102178635D01*
X161422232Y-102178633D01*
X161421542Y-102172072D01*
X161362527Y-101990444D01*
X161267040Y-101825056D01*
X161193863Y-101743785D01*
X161163147Y-101679779D01*
X161161500Y-101659476D01*
X161161500Y-100908149D01*
X161162027Y-100896965D01*
X161163701Y-100889477D01*
X161161562Y-100821418D01*
X161161500Y-100817461D01*
X161161500Y-100789530D01*
X161160994Y-100785524D01*
X161160061Y-100773678D01*
X161158922Y-100737423D01*
X161158673Y-100729496D01*
X161153022Y-100710044D01*
X161149014Y-100690692D01*
X161147468Y-100678454D01*
X161147467Y-100678452D01*
X161146474Y-100670589D01*
X161130194Y-100629472D01*
X161126359Y-100618271D01*
X161114018Y-100575792D01*
X161109985Y-100568973D01*
X161109983Y-100568968D01*
X161103707Y-100558357D01*
X161095010Y-100540607D01*
X161087552Y-100521769D01*
X161061571Y-100486009D01*
X161055053Y-100476087D01*
X161036578Y-100444846D01*
X161036574Y-100444841D01*
X161032542Y-100438023D01*
X161018218Y-100423699D01*
X161005376Y-100408664D01*
X160993472Y-100392279D01*
X160959406Y-100364097D01*
X160950627Y-100356108D01*
X158970777Y-98376258D01*
X158963237Y-98367972D01*
X158959125Y-98361493D01*
X158909473Y-98314867D01*
X158906632Y-98312113D01*
X158886895Y-98292376D01*
X158883698Y-98289896D01*
X158874676Y-98282191D01*
X158848225Y-98257352D01*
X158842446Y-98251925D01*
X158835500Y-98248106D01*
X158835497Y-98248104D01*
X158824691Y-98242163D01*
X158808172Y-98231312D01*
X158807708Y-98230952D01*
X158792166Y-98218897D01*
X158784897Y-98215752D01*
X158784893Y-98215749D01*
X158751588Y-98201337D01*
X158740938Y-98196120D01*
X158702185Y-98174816D01*
X158682562Y-98169778D01*
X158663859Y-98163374D01*
X158652545Y-98158478D01*
X158652544Y-98158478D01*
X158645270Y-98155330D01*
X158637447Y-98154091D01*
X158637437Y-98154088D01*
X158601601Y-98148412D01*
X158589981Y-98146006D01*
X158554836Y-98136983D01*
X158554835Y-98136983D01*
X158547155Y-98135011D01*
X158526901Y-98135011D01*
X158507190Y-98133460D01*
X158495011Y-98131531D01*
X158487182Y-98130291D01*
X158479290Y-98131037D01*
X158443164Y-98134452D01*
X158431306Y-98135011D01*
X156233105Y-98135011D01*
X156164984Y-98115009D01*
X156144010Y-98098106D01*
X153636500Y-95590595D01*
X153602474Y-95528283D01*
X153607539Y-95457467D01*
X153650086Y-95400632D01*
X153716606Y-95375821D01*
X153725595Y-95375500D01*
X158761605Y-95375500D01*
X158829726Y-95395502D01*
G37*
%TD.AperFunction*%
%TA.AperFunction,Conductor*%
G36*
X91547708Y-115207248D02*
G01*
X91592771Y-115236209D01*
X91773791Y-115417229D01*
X91807817Y-115479541D01*
X91802752Y-115550356D01*
X91773791Y-115595419D01*
X90647386Y-116721824D01*
X90585074Y-116755850D01*
X90514259Y-116750785D01*
X90469196Y-116721824D01*
X90288176Y-116540804D01*
X90254150Y-116478492D01*
X90259215Y-116407677D01*
X90288176Y-116362614D01*
X91414581Y-115236209D01*
X91476893Y-115202183D01*
X91547708Y-115207248D01*
G37*
%TD.AperFunction*%
%TA.AperFunction,Conductor*%
G36*
X200640356Y-115207248D02*
G01*
X200685419Y-115236209D01*
X201811824Y-116362614D01*
X201845850Y-116424926D01*
X201840785Y-116495741D01*
X201811824Y-116540804D01*
X201630804Y-116721824D01*
X201568492Y-116755850D01*
X201497677Y-116750785D01*
X201452614Y-116721824D01*
X200326209Y-115595419D01*
X200292183Y-115533107D01*
X200297248Y-115462292D01*
X200326209Y-115417229D01*
X200507229Y-115236209D01*
X200569541Y-115202183D01*
X200640356Y-115207248D01*
G37*
%TD.AperFunction*%
%TA.AperFunction,Conductor*%
G36*
X90602323Y-78829215D02*
G01*
X90647386Y-78858176D01*
X91773791Y-79984581D01*
X91807817Y-80046893D01*
X91802752Y-80117708D01*
X91773791Y-80162771D01*
X91592771Y-80343791D01*
X91530459Y-80377817D01*
X91459644Y-80372752D01*
X91414581Y-80343791D01*
X90288176Y-79217386D01*
X90254150Y-79155074D01*
X90259215Y-79084259D01*
X90288176Y-79039196D01*
X90469196Y-78858176D01*
X90531508Y-78824150D01*
X90602323Y-78829215D01*
G37*
%TD.AperFunction*%
%TA.AperFunction,Conductor*%
G36*
X201585741Y-78829215D02*
G01*
X201630804Y-78858176D01*
X201811824Y-79039196D01*
X201845850Y-79101508D01*
X201840785Y-79172323D01*
X201811824Y-79217386D01*
X200685419Y-80343791D01*
X200623107Y-80377817D01*
X200552292Y-80372752D01*
X200507229Y-80343791D01*
X200326209Y-80162771D01*
X200292183Y-80100459D01*
X200297248Y-80029644D01*
X200326209Y-79984581D01*
X201452614Y-78858176D01*
X201514926Y-78824150D01*
X201585741Y-78829215D01*
G37*
%TD.AperFunction*%
%TD*%
M02*
