<?xml version="1.0" encoding="UTF-8"?>
<svg xmlns="http://www.w3.org/2000/svg" xmlns:xlink="http://www.w3.org/1999/xlink" width="175pt" height="36pt" viewBox="0 0 175 36" version="1.1">
<g id="surface1">
<path style=" stroke:none;fill-rule:nonzero;fill:rgb(22.698975%,45.498657%,71.798706%);fill-opacity:1;" d="M 19.0625 26.644531 C 22.894531 26.644531 26 23.539063 26 19.707031 C 26 15.867188 22.894531 12.761719 19.0625 12.761719 C 15.222656 12.761719 12.121094 15.867188 12.121094 19.707031 C 12.121094 23.539063 15.222656 26.644531 19.0625 26.644531 "/>
<path style=" stroke:none;fill-rule:nonzero;fill:rgb(22.698975%,45.498657%,71.798706%);fill-opacity:1;" d="M 30.457031 35.378906 C 27.703125 32.132813 23.679688 30.160156 19.09375 30.160156 C 14.53125 30.160156 10.464844 32.1875 7.710938 35.394531 L 30.457031 35.378906 "/>
<path style=" stroke:none;fill-rule:nonzero;fill:rgb(22.698975%,45.498657%,71.798706%);fill-opacity:1;" d="M 7.683594 35.367188 C 9.921875 31.742188 10.554688 27.3125 9.132813 22.945313 C 7.730469 18.613281 4.539063 15.363281 0.640625 13.738281 L 7.683594 35.367188 "/>
<path style=" stroke:none;fill-rule:nonzero;fill:rgb(22.698975%,45.498657%,71.798706%);fill-opacity:1;" d="M 0.671875 13.734375 C 4.800781 14.746094 9.222656 13.980469 12.933594 11.28125 C 16.613281 8.605469 18.71875 4.566406 19.0625 0.355469 L 0.671875 13.734375 "/>
<path style=" stroke:none;fill-rule:nonzero;fill:rgb(22.698975%,45.498657%,71.798706%);fill-opacity:1;" d="M 19.09375 0.355469 C 19.410156 4.597656 21.496094 8.558594 25.214844 11.261719 C 28.898438 13.929688 33.398438 14.683594 37.5 13.710938 L 19.09375 0.355469 "/>
<path style=" stroke:none;fill-rule:nonzero;fill:rgb(22.698975%,45.498657%,71.798706%);fill-opacity:1;" d="M 37.5 13.746094 C 33.554688 15.355469 30.433594 18.570313 29.023438 22.941406 C 27.609375 27.269531 28.289063 31.773438 30.476563 35.378906 L 37.5 13.746094 "/>
<path style=" stroke:none;fill-rule:nonzero;fill:rgb(13.699341%,12.199402%,12.5%);fill-opacity:1;" d="M 110.132813 19.832031 L 118.941406 8.382813 L 130.363281 8.382813 L 120.308594 20.269531 L 131.585938 34.070313 L 120.328125 34.070313 L 110.132813 20.972656 L 110.132813 34.03125 L 101.496094 34.03125 L 101.496094 8.40625 L 110.132813 8.40625 L 110.132813 19.832031 "/>
<path style=" stroke:none;fill-rule:nonzero;fill:rgb(13.699341%,12.199402%,12.5%);fill-opacity:1;" d="M 79.4375 8.390625 L 68.371094 34.042969 L 85.679688 34.042969 L 88.441406 27.121094 L 80.714844 27.121094 L 84.734375 17.851563 L 91.066406 34.042969 L 100.683594 34.042969 L 89.660156 8.390625 L 79.4375 8.390625 "/>
<path style=" stroke:none;fill-rule:nonzero;fill:rgb(13.699341%,12.199402%,12.5%);fill-opacity:1;" d="M 40.082031 8.390625 L 40.082031 34.039063 L 48.710938 34.039063 L 48.710938 24.652344 L 56.472656 24.652344 L 59.242188 17.902344 L 59.242188 34.058594 L 67.859375 34.058594 L 67.859375 8.390625 L 59.261719 8.390625 L 59.261719 17.683594 L 48.710938 17.683594 L 48.710938 8.390625 L 40.082031 8.390625 "/>
<path style=" stroke:none;fill-rule:nonzero;fill:rgb(13.699341%,12.199402%,12.5%);fill-opacity:1;" d="M 166.890625 7.984375 L 153.234375 7.984375 C 149.070313 7.984375 145.695313 11.351563 145.695313 15.515625 L 145.695313 26.519531 C 145.695313 30.683594 149.070313 34.054688 153.234375 34.054688 L 166.890625 34.054688 C 171.050781 34.054688 174.425781 30.683594 174.425781 26.519531 L 174.425781 15.515625 C 174.425781 11.351563 171.050781 7.984375 166.890625 7.984375 Z M 165.382813 24.402344 C 165.382813 25.789063 164.261719 26.914063 162.871094 26.914063 L 157.269531 26.914063 C 155.875 26.914063 154.753906 25.789063 154.753906 24.402344 L 154.753906 17.597656 C 154.753906 16.210938 155.875 15.085938 157.269531 15.085938 L 162.871094 15.085938 C 164.261719 15.085938 165.382813 16.210938 165.382813 17.597656 L 165.382813 24.402344 "/>
<path style=" stroke:none;fill-rule:nonzero;fill:rgb(22.698975%,45.498657%,71.798706%);fill-opacity:1;" d="M 137.378906 34.054688 L 125.957031 20.300781 L 135.835938 8.382813 L 147.171875 8.382813 L 137.027344 20.195313 L 148.371094 34.054688 L 137.378906 34.054688 "/>
<path style=" stroke:none;fill-rule:nonzero;fill:rgb(13.699341%,12.199402%,12.5%);fill-opacity:1;" d="M 33.558594 0.460938 C 34.207031 0.460938 34.757813 0.6875 35.214844 1.144531 C 35.667969 1.601563 35.898438 2.152344 35.898438 2.796875 C 35.898438 3.449219 35.667969 4.003906 35.214844 4.460938 C 34.761719 4.917969 34.210938 5.148438 33.558594 5.148438 C 32.910156 5.148438 32.359375 4.917969 31.902344 4.460938 C 31.453125 4.003906 31.226563 3.449219 31.226563 2.796875 C 31.226563 2.152344 31.453125 1.601563 31.90625 1.144531 C 32.363281 0.6875 32.914063 0.460938 33.558594 0.460938 Z M 36.28125 2.792969 C 36.28125 2.046875 36.015625 1.410156 35.484375 0.882813 C 34.957031 0.355469 34.316406 0.09375 33.5625 0.09375 C 32.816406 0.09375 32.179688 0.355469 31.652344 0.882813 C 31.125 1.410156 30.859375 2.050781 30.859375 2.792969 C 30.859375 3.546875 31.121094 4.1875 31.644531 4.71875 C 32.171875 5.246094 32.8125 5.515625 33.5625 5.515625 C 34.316406 5.515625 34.957031 5.246094 35.484375 4.71875 C 36.015625 4.183594 36.28125 3.542969 36.28125 2.792969 Z M 34.289063 2.203125 C 34.289063 2.429688 34.183594 2.585938 33.976563 2.667969 C 33.863281 2.710938 33.695313 2.734375 33.46875 2.734375 L 32.992188 2.734375 L 32.992188 1.65625 L 33.445313 1.65625 C 33.738281 1.65625 33.953125 1.691406 34.085938 1.765625 C 34.21875 1.839844 34.289063 1.984375 34.289063 2.203125 Z M 32.46875 1.296875 L 32.46875 4.273438 L 32.992188 4.273438 L 32.992188 3.101563 L 33.40625 3.101563 C 33.683594 3.101563 33.878906 3.132813 33.992188 3.195313 C 34.179688 3.308594 34.273438 3.535156 34.273438 3.878906 L 34.273438 4.113281 L 34.285156 4.210938 C 34.285156 4.222656 34.289063 4.234375 34.289063 4.242188 C 34.292969 4.253906 34.296875 4.261719 34.296875 4.273438 L 34.796875 4.273438 L 34.777344 4.234375 C 34.761719 4.210938 34.753906 4.160156 34.75 4.082031 C 34.742188 4 34.742188 3.929688 34.742188 3.859375 L 34.742188 3.640625 C 34.742188 3.492188 34.6875 3.335938 34.582031 3.179688 C 34.472656 3.023438 34.304688 2.925781 34.074219 2.890625 C 34.257813 2.859375 34.402344 2.8125 34.503906 2.746094 C 34.699219 2.617188 34.796875 2.421875 34.796875 2.15625 C 34.796875 1.78125 34.640625 1.53125 34.332031 1.402344 C 34.160156 1.332031 33.886719 1.296875 33.515625 1.296875 L 32.46875 1.296875 "/>
</g>
</svg>
